<?xml version="1.0" standalone="no"?>
<!DOCTYPE svg PUBLIC "-//W3C//DTD SVG 1.1//EN" "http://www.w3.org/Graphics/SVG/1.1/DTD/svg11.dtd" >
<svg>
<metadata>
Created by FontForge 20090622 at Sun May 21 09:17:52 2017
 By deploy user
Copyright (c) 2010 by David Brezina. All rights reserved.
</metadata>
<defs>
<font id="SkolarPE-Bold" horiz-adv-x="0" >
  <font-face 
    font-family="Skolar PE"
    font-weight="700"
    font-stretch="normal"
    units-per-em="1000"
    panose-1="2 0 6 3 4 3 0 0 0 4"
    ascent="750"
    descent="-250"
    x-height="485"
    cap-height="671"
    bbox="-467 -377 1334.19 1141"
    underline-thickness="50"
    underline-position="-100"
    unicode-range="U+000D-U+FB03"
  />
<missing-glyph horiz-adv-x="624" 
d="M66 0v672h492v-672h-492zM430 86v497q-117 3 -118 3t-118 -3v-497q58 -3 118 -3t118 3z" />
    <glyph glyph-name="ff" unicode="ff" horiz-adv-x="745" 
d="M369 66q45 5 80 17q4 29 4 56v254h-200v-236q0 -40 3 -73q42 -4 75 -18q0 -48 -6 -67q-84 2 -141 2q-39 0 -87 -1t-65 -1q-7 19 -7 67q41 4 80 16q4 29 4 55v256q-11 3 -71 13q-11 33 -5 66q32 10 76 15q4 110 72.5 177t170.5 67q98 0 182 -26q64 61 150 61q80 0 156 -38
q-3 -102 -29 -157q-54 -14 -88 4q0 42 -5 89q-22 5 -41 5q-40 0 -50 -16q-30 -47 -30 -162v-6h121q2 -51 -4 -92h-117v-234q0 -39 3 -75q68 -4 118 -18q0 -48 -6 -67q-110 2 -184 2q-39 0 -87 -1t-65 -1q-7 21 -7 67zM285 619q-28 -44 -32 -134h200v8q0 62 18 113
q-63 28 -123 28q-54 0 -63 -15z" />
    <glyph glyph-name="fi" unicode="fi" horiz-adv-x="694" 
d="M32 472q29 11 77 16v4q0 122 71.5 198t187.5 76q62 0 132.5 -12t116.5 -32q-3 -98 -33 -159q-54 -10 -116 0q-14 41 -15 97q-51 9 -93 9q-63 0 -76 -17q-31 -46 -31 -164v-3h91q89 0 245 13l12 -12q-4 -131 -4 -280v-49q0 -39 3 -73q46 -5 75 -18q0 -48 -6 -67
q-54 2 -141 2q-39 0 -88 -1t-64 -1q-7 19 -7 67q41 4 80 16q4 23 4 49v262h-200v-234q0 -38 3 -75q42 -4 75 -18q0 -48 -6 -67q-84 2 -141 2q-39 0 -87 -1t-65 -1q-7 19 -7 67q41 4 80 16q4 29 4 55v256q-35 9 -72 13q-8 30 -5 66z" />
    <glyph glyph-name="fl" unicode="fl" horiz-adv-x="690" 
d="M38 406q-11 33 -5 66q32 10 76 15v6q0 121 66.5 197t161.5 76q67 0 125 -18q63 15 127 18l12 -12q-4 -133 -4 -288v-307q0 -39 3 -75q46 -5 75 -18q0 -48 -6 -67q-54 2 -144 2q-37 0 -85 -1t-63 -1q-7 21 -7 67q44 5 79 17q4 29 4 56v505q-53 25 -104 25q-57 0 -67 -16
q-29 -49 -29 -162v-6l121 -1q2 -50 -4 -91h-117v-234q0 -39 3 -75q46 -5 75 -18q0 -48 -6 -67q-54 2 -141 2q-39 0 -88 -1t-64 -1q-7 21 -7 67q45 5 80 17q4 29 4 56v254q-11 3 -71 13z" />
    <glyph glyph-name="ffi" unicode="ffi" horiz-adv-x="1038" 
d="M369 66q41 4 80 16q4 29 4 55v256h-200v-236q0 -40 3 -73q42 -4 75 -18q0 -48 -6 -67q-84 2 -141 2q-39 0 -87 -1t-65 -1q-7 19 -7 67q41 4 80 16q4 29 4 55v256q-11 3 -71 13q-11 33 -5 66q32 10 76 15q4 110 72.5 177t170.5 67q104 0 187 -28q71 63 177 63
q63 0 133.5 -12t116.5 -32q-3 -98 -33 -159q-54 -10 -116 0q-14 41 -15 97q-52 9 -95 9q-65 0 -78 -17q-32 -45 -32 -164v-3h91q89 0 245 13l12 -12q-4 -131 -4 -280v-49q0 -39 3 -73q46 -5 75 -18q0 -48 -6 -67q-54 2 -141 2q-39 0 -88 -1t-64 -1q-7 19 -7 67q41 4 80 16
q4 23 4 49v262h-200v-234q0 -38 3 -75q42 -4 75 -18q0 -48 -6 -67q-84 2 -141 2q-39 0 -87 -1t-65 -1q-7 19 -7 67zM285 619q-28 -44 -32 -134h200v7q0 61 20 113q-64 29 -125 29q-54 0 -63 -15z" />
    <glyph glyph-name="f_b" unicode="fb" horiz-adv-x="945" 
d="M453 139v505q-53 25 -104 25q-57 0 -67 -16q-29 -49 -29 -162v-6l121 -1q2 -50 -4 -91h-117v-234q0 -39 3 -75q46 -5 75 -18q0 -48 -6 -67q-54 2 -141 2q-39 0 -88 -1t-64 -1q-7 21 -7 67q45 5 80 17q4 29 4 56v254q-11 3 -71 13q-11 33 -5 66q32 10 76 15v6
q0 121 66.5 197t161.5 76q67 0 125 -18q63 15 127 18l12 -12q-4 -133 -4 -288v-14q65 43 136 43q82 0 132 -66.5t50 -178.5q0 -99 -63 -181.5t-156 -82.5q-83 0 -151 47q-55 -42 -86 -53q-33 9 -44 40q38 53 38 119zM672 394q-27 0 -75 -23v-248q45 -40 91 -40q39 0 59.5 42
t20.5 99q0 70 -25.5 120t-70.5 50z" />
    <glyph glyph-name="f_h" unicode="fh" horiz-adv-x="986" 
d="M38 406q-11 33 -5 66q32 10 76 15v6q0 121 66.5 197t161.5 76q67 0 125 -18q63 15 127 18l12 -12q-4 -133 -4 -288v-2q70 34 143 34q63 0 110 -40t47 -116v-183q0 -39 3 -75q47 -5 75 -18q0 -49 -7 -67q-52 2 -140 2q-32 0 -71.5 -1t-52.5 -1q-5 20 -5 67q30 7 50 17
q4 29 4 56v145q0 56 -16 84.5t-63 28.5q-35 0 -77 -13v-225q0 -39 3 -75q41 -5 67 -18q0 -48 -6 -67q-50 2 -133 2q-39 0 -88 -1t-64 -1q-7 21 -7 67q45 5 80 17q4 29 4 56v505q-53 25 -104 25q-57 0 -67 -16q-29 -49 -29 -162v-6l121 -1q2 -50 -4 -91h-117v-234
q0 -39 3 -75q46 -5 75 -18q0 -48 -6 -67q-54 2 -141 2q-39 0 -88 -1t-64 -1q-7 21 -7 67q45 5 80 17q4 29 4 56v254q-11 3 -71 13z" />
    <glyph glyph-name="fj" unicode="fj" horiz-adv-x="694" 
d="M32 472q29 11 77 16v4q0 122 72.5 198t189.5 76q63 0 134 -12t117 -32q-3 -98 -33 -159q-54 -10 -116 0q-14 36 -16 97q-53 9 -95 9q-64 0 -77 -17q-32 -43 -32 -164v-3h96q87 0 240 13l12 -12q-4 -252 -4 -301v-172q0 -63 -20 -113.5t-54.5 -82.5t-70.5 -51.5t-78 -31.5
q-28 16 -28 51q107 77 107 242v366h-200v-234q0 -39 3 -76q45 -4 75 -17q0 -48 -6 -67q-84 2 -141 2q-39 0 -87 -1t-65 -1q-7 19 -7 67q41 4 80 16q4 29 4 55v256q-35 9 -72 13q-8 30 -5 66z" />
    <glyph glyph-name="f_k" unicode="fk" horiz-adv-x="990" 
d="M38 406q-11 33 -5 66q32 10 76 15v6q0 121 66.5 197t161.5 76q67 0 125 -18q63 15 127 18l12 -12q-4 -133 -4 -288v-174l79 22l82 86l-74 18q0 41 8 67q14 0 69.5 -1t97.5 -1q40 0 98 2q6 -21 6 -67q-51 -16 -85 -20l-107 -117q59 -107 108 -164q19 -22 33 -30.5t36 -8.5
q15 0 30 3q16 -28 11 -58q-20 -12 -66 -23.5t-90 -11.5q-24 0 -48 20t-47 58.5t-40 75t-39 89.5l-62 -15v-57q0 -39 3 -75q46 -5 75 -18q0 -48 -6 -67q-54 2 -144 2q-37 0 -85 -1t-63 -1q-7 21 -7 67q44 5 79 17q4 29 4 56v505q-53 25 -104 25q-57 0 -67 -16
q-29 -49 -29 -162v-6l121 -1q2 -50 -4 -91h-117v-234q0 -39 3 -75q46 -5 75 -18q0 -48 -6 -67q-54 2 -141 2q-39 0 -88 -1t-64 -1q-7 21 -7 67q45 5 80 17q4 29 4 56v254q-11 3 -71 13z" />
    <glyph glyph-name="f_lcaron" unicode="f&#x13e;" horiz-adv-x="798" 
d="M38 406q-11 33 -5 66q32 10 76 15v6q0 121 66.5 197t161.5 76q67 0 125 -18q63 15 127 18l12 -12q-4 -133 -4 -288v-307q0 -39 3 -75q46 -5 75 -18q0 -48 -6 -67q-54 2 -144 2q-37 0 -85 -1t-63 -1q-7 21 -7 67q44 5 79 17q4 29 4 56v505q-53 25 -104 25q-57 0 -67 -16
q-29 -49 -29 -162v-6l121 -1q2 -50 -4 -91h-117v-234q0 -39 3 -75q46 -5 75 -18q0 -48 -6 -67q-54 2 -141 2q-39 0 -88 -1t-64 -1q-7 21 -7 67q45 5 80 17q4 29 4 56v254q-11 3 -71 13zM647 754l12 12q79 8 119 -22l-58 -225q-42 -5 -76 6z" />
    <glyph glyph-name="f_t" unicode="ft" horiz-adv-x="780" 
d="M38 406q-11 33 -5 66q32 10 76 15v6q0 123 69.5 198t178.5 75q123 0 239 -49l11 -13v-219h159q2 -51 -4 -92h-155v-204q0 -102 46 -102t97 19q23 -25 22 -64q-75 -56 -183 -56q-126 0 -126 144v263h-210v-234q0 -39 3 -75q68 -4 118 -18q0 -48 -6 -67q-110 2 -184 2
q-39 0 -87 -1t-65 -1q-7 21 -7 67q45 5 80 17q4 29 4 56v254q-11 3 -71 13zM253 491v-6h210v150q-54 34 -115 34q-52 0 -64 -16q-31 -45 -31 -162z" />
    <glyph glyph-name="f_f_b" unicode="ffb" horiz-adv-x="1289" 
d="M797 139v505q-53 25 -104 25q-57 0 -67 -16q-29 -49 -29 -162v-6h121q2 -51 -4 -92h-117v-234q0 -39 3 -75q46 -5 75 -18q0 -48 -6 -67q-54 2 -141 2q-39 0 -88 -1t-64 -1q-7 21 -7 67q45 5 80 17q4 29 4 56v254h-200v-236q0 -40 3 -73q42 -4 75 -18q0 -48 -6 -67
q-84 2 -141 2q-39 0 -87 -1t-65 -1q-7 19 -7 67q41 4 80 16q4 29 4 55v256q-11 3 -71 13q-11 33 -5 66q32 10 76 15q4 110 72.5 177t170.5 67q97 0 181 -26q63 61 148 61q67 0 125 -18q63 15 127 18l12 -12q-4 -133 -4 -288v-14q65 43 136 43q82 0 132 -66.5t50 -178.5
q0 -99 -63 -181.5t-156 -82.5q-83 0 -151 47q-55 -42 -86 -53q-33 9 -44 40q38 53 38 119zM1016 394q-27 0 -75 -23v-248q45 -40 91 -40q39 0 59.5 42t20.5 99q0 70 -25.5 120t-70.5 50zM285 619q-28 -44 -32 -134h200v8q0 63 18 113q-63 28 -123 28q-54 0 -63 -15z" />
    <glyph glyph-name="f_f_h" unicode="ffh" horiz-adv-x="1330" 
d="M1097 139v145q0 56 -16 84.5t-63 28.5q-35 0 -77 -13v-225q0 -39 3 -75q41 -5 67 -18q0 -48 -6 -67q-50 2 -133 2q-39 0 -88 -1t-64 -1q-7 21 -7 67q45 5 80 17q4 29 4 56v505q-53 25 -104 25q-57 0 -67 -16q-29 -49 -29 -162v-6h121q2 -51 -4 -92h-117v-234q0 -39 3 -75
q46 -5 75 -18q0 -48 -6 -67q-54 2 -141 2q-39 0 -88 -1t-64 -1q-7 21 -7 67q45 5 80 17q4 29 4 56v254h-200v-236q0 -40 3 -73q42 -4 75 -18q0 -48 -6 -67q-84 2 -141 2q-39 0 -87 -1t-65 -1q-7 19 -7 67q41 4 80 16q4 29 4 55v256q-11 3 -71 13q-11 33 -5 66q32 10 76 15
q4 110 72.5 177t170.5 67q97 0 181 -26q63 61 148 61q67 0 125 -18q63 15 127 18l12 -12q-4 -133 -4 -288v-2q70 34 143 34q63 0 110 -40t47 -116v-183q0 -39 3 -75q47 -5 75 -18q0 -49 -7 -67q-52 2 -140 2q-32 0 -71.5 -1t-52.5 -1q-5 20 -5 67q30 7 50 17q4 29 4 56z
M285 619q-28 -44 -32 -134h200v8q0 63 18 113q-63 28 -123 28q-54 0 -63 -15z" />
    <glyph glyph-name="f_f_j" unicode="ffj" horiz-adv-x="1038" 
d="M369 66q41 4 80 16q4 29 4 55v256h-200v-236q0 -40 3 -73q42 -4 75 -18q0 -48 -6 -67q-84 2 -141 2q-39 0 -87 -1t-65 -1q-7 19 -7 67q41 4 80 16q4 29 4 55v256q-11 3 -71 13q-11 33 -5 66q32 10 76 15q4 110 72.5 177t170.5 67q104 0 187 -28q71 63 176 63
q63 0 134 -12t117 -32q-3 -98 -33 -159q-54 -10 -116 0q-14 36 -16 97q-53 9 -95 9q-64 0 -77 -17q-32 -43 -32 -164v-3h96q87 0 240 13l12 -12q-4 -252 -4 -301v-172q0 -63 -20 -113.5t-54.5 -82.5t-70.5 -51.5t-78 -31.5q-28 16 -28 51q107 77 107 242v366h-200v-234
q0 -39 3 -76q45 -4 75 -17q0 -48 -6 -67q-84 2 -141 2q-39 0 -87 -1t-65 -1q-7 19 -7 67zM285 619q-28 -44 -32 -134h200v7q0 61 20 113q-64 29 -125 29q-54 0 -63 -15z" />
    <glyph glyph-name="f_f_k" unicode="ffk" horiz-adv-x="1334" 
d="M597 491v-6h121q2 -51 -4 -92h-117v-234q0 -39 3 -75q46 -5 75 -18q0 -48 -6 -67q-54 2 -141 2q-39 0 -88 -1t-64 -1q-7 21 -7 67q45 5 80 17q4 29 4 56v254h-200v-236q0 -40 3 -73q42 -4 75 -18q0 -48 -6 -67q-84 2 -141 2q-39 0 -87 -1t-65 -1q-7 19 -7 67q41 4 80 16
q4 29 4 55v256q-11 3 -71 13q-11 33 -5 66q32 10 76 15q4 110 72.5 177t170.5 67q97 0 181 -26q63 61 148 61q67 0 125 -18q63 15 127 18l12 -12q-4 -133 -4 -288v-174l79 22l82 86l-74 18q0 41 8 67q14 0 69.5 -1t97.5 -1q40 0 98 2q6 -21 6 -67q-51 -16 -85 -20l-107 -117
q59 -107 108 -164q19 -22 33 -30.5t36 -8.5q15 0 30 3q16 -28 11 -58q-20 -12 -66 -23.5t-90 -11.5q-24 0 -48 20t-47 58.5t-40 75t-39 89.5l-62 -15v-57q0 -39 3 -75q46 -5 75 -18q0 -48 -6 -67q-54 2 -144 2q-37 0 -85 -1t-63 -1q-7 21 -7 67q44 5 79 17q4 29 4 56v505
q-53 25 -104 25q-57 0 -67 -16q-29 -49 -29 -162zM285 619q-28 -44 -32 -134h200v8q0 63 18 113q-63 28 -123 28q-54 0 -63 -15z" />
    <glyph glyph-name="f_f_l" unicode="ffl" horiz-adv-x="1034" 
d="M597 491v-6h121q2 -51 -4 -92h-117v-234q0 -39 3 -75q46 -5 75 -18q0 -48 -6 -67q-54 2 -141 2q-39 0 -88 -1t-64 -1q-7 21 -7 67q45 5 80 17q4 29 4 56v254h-200v-236q0 -40 3 -73q42 -4 75 -18q0 -48 -6 -67q-84 2 -141 2q-39 0 -87 -1t-65 -1q-7 19 -7 67q41 4 80 16
q4 29 4 55v256q-11 3 -71 13q-11 33 -5 66q32 10 76 15q4 110 72.5 177t170.5 67q97 0 181 -26q63 61 148 61q67 0 125 -18q63 15 127 18l12 -12q-4 -133 -4 -288v-307q0 -39 3 -75q46 -5 75 -18q0 -48 -6 -67q-54 2 -144 2q-37 0 -85 -1t-63 -1q-7 21 -7 67q44 5 79 17
q4 29 4 56v505q-53 25 -104 25q-57 0 -67 -16q-29 -49 -29 -162zM285 619q-28 -44 -32 -134h200v8q0 63 18 113q-63 28 -123 28q-54 0 -63 -15z" />
    <glyph glyph-name="f_f_t" unicode="fft" horiz-adv-x="1124" 
d="M1106 393h-155v-204q0 -102 46 -102t97 19q23 -25 22 -64q-75 -56 -183 -56q-126 0 -126 144v263h-210v-234q0 -39 3 -75q68 -4 118 -18q0 -48 -6 -67q-110 2 -184 2q-39 0 -87 -1t-65 -1q-7 21 -7 67q45 5 80 17q4 29 4 56v254h-200v-236q0 -40 3 -73q42 -4 75 -18
q0 -48 -6 -67q-84 2 -141 2q-39 0 -87 -1t-65 -1q-7 19 -7 67q41 4 80 16q4 29 4 55v256q-11 3 -71 13q-11 33 -5 66q32 10 76 15q4 110 72.5 177t170.5 67q100 0 184 -27q67 62 165 62q123 0 239 -49l11 -13v-219h159q2 -51 -4 -92zM597 491v-6h210v150q-55 34 -123 34
q-44 0 -56 -16q-31 -45 -31 -162zM285 619q-28 -44 -32 -134h200v8q0 59 19 113q-65 28 -124 28q-54 0 -63 -15z" />
    <glyph glyph-name="longs_b" unicode="&#x17f;b" horiz-adv-x="945" 
d="M915 250q0 -99 -63 -181.5t-156 -82.5q-83 0 -151 47q-55 -42 -86 -53q-33 9 -44 40q38 53 38 119v505q-53 25 -104 25q-57 0 -67 -16q-29 -49 -29 -162v-332q0 -39 3 -75q46 -5 75 -18q0 -48 -6 -67q-54 2 -141 2q-39 0 -88 -1t-64 -1q-7 21 -7 67q45 5 80 17q4 29 4 56
v254q-11 3 -71 13q-11 33 -5 66q32 10 76 15v6q0 121 66.5 197t161.5 76q67 0 125 -18q63 15 127 18l12 -12q-4 -133 -4 -288v-14q65 43 136 43q82 0 132 -66.5t50 -178.5zM672 394q-27 0 -75 -23v-248q45 -40 91 -40q39 0 59.5 42t20.5 99q0 70 -25.5 120t-70.5 50z" />
    <glyph glyph-name="longs_h" unicode="&#x17f;h" horiz-adv-x="986" 
d="M753 139v145q0 56 -16 84.5t-63 28.5q-35 0 -77 -13v-225q0 -39 3 -75q41 -5 67 -18q0 -48 -6 -67q-50 2 -133 2q-39 0 -88 -1t-64 -1q-7 21 -7 67q45 5 80 17q4 29 4 56v505q-53 25 -104 25q-57 0 -67 -16q-29 -49 -29 -162v-332q0 -39 3 -75q46 -5 75 -18q0 -48 -6 -67
q-54 2 -141 2q-39 0 -88 -1t-64 -1q-7 21 -7 67q45 5 80 17q4 29 4 56v254q-11 3 -71 13q-11 33 -5 66q32 10 76 15v6q0 121 66.5 197t161.5 76q67 0 125 -18q63 15 127 18l12 -12q-4 -133 -4 -288v-2q70 34 143 34q63 0 110 -40t47 -116v-183q0 -39 3 -75q47 -5 75 -18
q0 -49 -7 -67q-52 2 -140 2q-32 0 -71.5 -1t-52.5 -1q-5 20 -5 67q30 7 50 17q4 29 4 56z" />
    <glyph glyph-name="longs_i" unicode="&#x17f;i" horiz-adv-x="694" 
d="M25 66q41 4 80 16q4 29 4 55v256q-11 3 -71 13q-11 33 -5 66q32 10 76 15v5q0 122 71.5 198t187.5 76q62 0 132.5 -12t116.5 -32q-3 -98 -33 -159q-54 -10 -116 0q-14 41 -15 97q-51 9 -93 9q-63 0 -76 -17q-31 -46 -31 -164v-329q0 -38 3 -75q42 -4 75 -18q0 -48 -6 -67
q-84 2 -141 2q-39 0 -87 -1t-65 -1q-7 19 -7 67zM597 198v-39q0 -39 3 -75q46 -5 75 -18q0 -48 -6 -67q-54 2 -141 2q-39 0 -88 -1t-64 -1q-7 21 -7 67q45 5 80 17q4 29 4 56v245q-45 12 -79 16q-10 32 -4 61q97 34 219 37l12 -12q-4 -133 -4 -288z" />
    <glyph glyph-name="longs_k" unicode="&#x17f;k" horiz-adv-x="990" 
d="M253 491v-332q0 -39 3 -75q46 -5 75 -18q0 -48 -6 -67q-54 2 -141 2q-39 0 -88 -1t-64 -1q-7 21 -7 67q45 5 80 17q4 29 4 56v254q-11 3 -71 13q-11 33 -5 66q32 10 76 15v6q0 121 66.5 197t161.5 76q67 0 125 -18q63 15 127 18l12 -12q-4 -133 -4 -288v-174l79 22l82 86
l-74 18q0 41 8 67q14 0 69.5 -1t97.5 -1q40 0 98 2q6 -21 6 -67q-51 -16 -85 -20l-107 -117q59 -107 108 -164q19 -22 33 -30.5t36 -8.5q15 0 30 3q16 -28 11 -58q-20 -12 -66 -23.5t-90 -11.5q-24 0 -48 20t-47 58.5t-40 75t-39 89.5l-62 -15v-57q0 -39 3 -75q46 -5 75 -18
q0 -48 -6 -67q-54 2 -144 2q-37 0 -85 -1t-63 -1q-7 21 -7 67q44 5 79 17q4 29 4 56v505q-53 25 -104 25q-57 0 -67 -16q-29 -49 -29 -162z" />
    <glyph glyph-name="longs_l" unicode="&#x17f;l" horiz-adv-x="690" 
d="M253 491v-332q0 -39 3 -75q46 -5 75 -18q0 -48 -6 -67q-54 2 -141 2q-39 0 -88 -1t-64 -1q-7 21 -7 67q45 5 80 17q4 29 4 56v254q-11 3 -71 13q-11 33 -5 66q32 10 76 15v6q0 121 66.5 197t161.5 76q67 0 125 -18q63 15 127 18l12 -12q-4 -133 -4 -288v-307q0 -39 3 -75
q46 -5 75 -18q0 -48 -6 -67q-54 2 -144 2q-37 0 -85 -1t-63 -1q-7 21 -7 67q44 5 79 17q4 29 4 56v505q-53 25 -104 25q-57 0 -67 -16q-29 -49 -29 -162z" />
    <glyph glyph-name="longs_longs" unicode="&#x17f;&#x17f;" horiz-adv-x="725" 
d="M677 669q-40 0 -50 -16q-30 -47 -30 -162v-332q0 -39 3 -75q68 -4 118 -18q0 -48 -6 -67q-110 2 -184 2q-39 0 -87 -1t-65 -1q-7 21 -7 67q45 5 80 17q4 29 4 56v254q-11 3 -71 13q-11 33 -5 66q32 10 76 15v6q0 62 18 113q-63 28 -123 28q-54 0 -63 -15
q-12 -18 -22 -59.5t-10 -91.5v-311q0 -40 3 -73q42 -4 75 -18q0 -48 -6 -67q-84 2 -141 2q-39 0 -87 -1t-65 -1q-7 19 -7 67q41 4 80 16q4 29 4 55v256q-11 3 -71 13q-11 33 -5 66q32 10 76 15q4 110 72.5 177t170.5 67q98 0 182 -26q64 61 150 61q80 0 156 -38
q-3 -102 -29 -157q-54 -14 -88 4q0 42 -5 89q-22 5 -41 5z" />
    <glyph glyph-name="longs_longs_i" unicode="&#x17f;&#x17f;i" horiz-adv-x="1038" 
d="M369 66q41 4 80 16q4 29 4 55v256q-11 3 -71 13q-11 33 -5 66q32 10 76 15v5q0 61 20 113q-64 29 -125 29q-54 0 -63 -15q-12 -18 -22 -59.5t-10 -91.5v-311q0 -40 3 -73q42 -4 75 -18q0 -48 -6 -67q-84 2 -141 2q-39 0 -87 -1t-65 -1q-7 19 -7 67q41 4 80 16q4 29 4 55
v256q-11 3 -71 13q-11 33 -5 66q32 10 76 15q4 110 72.5 177t170.5 67q99 0 186 -28q71 63 174 63q62 0 132.5 -12t116.5 -32q-3 -98 -33 -159q-54 -10 -116 0q-14 41 -15 97q-51 9 -93 9q-63 0 -76 -17q-31 -46 -31 -164v-329q0 -38 3 -75q42 -4 75 -18q0 -48 -6 -67
q-84 2 -141 2q-39 0 -87 -1t-65 -1q-7 19 -7 67zM941 198v-39q0 -39 3 -75q46 -5 75 -18q0 -48 -6 -67q-54 2 -141 2q-39 0 -88 -1t-64 -1q-7 21 -7 67q45 5 80 17q4 29 4 56v245q-45 12 -79 16q-10 32 -4 61q97 34 219 37l12 -12q-4 -133 -4 -288z" />
    <glyph glyph-name="longs_longs_l" unicode="&#x17f;&#x17f;l" horiz-adv-x="1034" 
d="M25 66q41 4 80 16q4 29 4 55v256q-11 3 -71 13q-11 33 -5 66q32 10 76 15q4 110 72.5 177t170.5 67q97 0 181 -26q63 61 148 61q67 0 125 -18q63 15 127 18l12 -12q-4 -133 -4 -288v-307q0 -39 3 -75q46 -5 75 -18q0 -48 -6 -67q-54 2 -144 2q-37 0 -85 -1t-63 -1
q-7 21 -7 67q44 5 79 17q4 29 4 56v505q-53 25 -104 25q-57 0 -67 -16q-29 -49 -29 -162v-332q0 -39 3 -75q46 -5 75 -18q0 -48 -6 -67q-54 2 -141 2q-39 0 -88 -1t-64 -1q-7 21 -7 67q45 5 80 17q4 29 4 56v254q-11 3 -71 13q-11 33 -5 66q32 10 76 15v6q0 63 18 113
q-63 28 -123 28q-54 0 -63 -15q-12 -18 -22 -59.5t-10 -91.5v-311q0 -40 3 -73q42 -4 75 -18q0 -48 -6 -67q-84 2 -141 2q-39 0 -87 -1t-65 -1q-7 19 -7 67z" />
    <glyph glyph-name="gamma_gamma" unicode="&#x3b3;&#x3b3;" horiz-adv-x="1033" 
d="M624 -203q28 135 28 237q0 189 -96 329q-208 -94 -208 -392q0 -86 8 -187q-31 -7 -78 -7q-57 0 -100 20q28 135 28 237q0 187 -93 325q-45 -5 -74 -13q-13 13 -23 37t-11 46q25 26 60.5 47.5t68.5 21.5q47 0 92 -115.5t56 -287.5h4q14 82 28 139t36.5 110t51 85t70 50.5
t95.5 18.5q60 0 105 -112t56 -291h4q50 370 222 399q65 -25 74 -126q-65 -22 -112 -63.5t-73 -96.5t-37.5 -113.5t-11.5 -123.5q0 -86 8 -187q-31 -7 -78 -7q-57 0 -100 20z" />
    <glyph glyph-name="lambda_lambda" unicode="&#x3bb;&#x3bb;" horiz-adv-x="1046" 
d="M638 86q-48 -100 -141 -100q-68 0 -107 103l-85 229q-77 -138 -162 -327q-85 11 -133 81q2 4 96.5 160.5t140.5 243.5q-22 55 -53 81t-87 26q-31 0 -55 -4q-39 60 -32 131q52 20 134 20q57 0 99 -39.5t63 -104.5q77 -235 181 -475q125 214 207 377q-20 63 -55 94t-93 31
q-33 0 -53 -5q-39 59 -32 132q56 20 132 20q56 0 100.5 -41.5t65.5 -108.5q90 -294 164 -485q23 2 75 12q30 -25 33 -83q-60 -68 -125 -68q-50 0 -85 108l-73 228q-53 -95 -120 -236z" />
    <glyph glyph-name=".notdef" horiz-adv-x="624" 
d="M66 0v672h492v-672h-492zM430 86v497q-117 3 -118 3t-118 -3v-497q58 -3 118 -3t118 3z" />
    <glyph glyph-name="uni0000" 
 />
    <glyph glyph-name="uni0000" 
 />
    <glyph glyph-name="uni000D" unicode="&#xd;" 
 />
    <glyph glyph-name="space" unicode=" " horiz-adv-x="205" 
 />
    <glyph glyph-name="exclam" unicode="!" horiz-adv-x="306" 
d="M201 191q-28 -5 -50 -5q-21 0 -41 5q-46 234 -46 380q0 59 7 93q42 8 81 8t85 -8q5 -37 5 -90q0 -131 -41 -383zM72 63q0 30 23.5 50.5t57.5 20.5q33 0 56 -20.5t23 -50.5q0 -31 -23 -54t-56 -23q-34 0 -57.5 23t-23.5 54z" />
    <glyph glyph-name="quotedbl" unicode="&#x22;" horiz-adv-x="416" 
d="M146 515q-39 -17 -84 -11q-26 152 -29 262q51 17 123 15l12 -12q-6 -149 -22 -254zM352 515q-39 -17 -84 -11q-26 152 -29 262q51 17 123 15l12 -12q-6 -149 -22 -254z" />
    <glyph glyph-name="numbersign" unicode="#" horiz-adv-x="579" 
d="M547 291h-99l-19 -109h84q12 -39 0 -91h-100l-18 -101q-52 -5 -92 16l15 85h-107l-18 -102q-51 -5 -92 17l15 85h-86q-9 48 0 91h102l19 109h-86q-14 41 0 91h102l18 100q53 5 92 -18l-15 -82h107l18 100q53 5 92 -18l-15 -82h83q14 -46 0 -91zM246 291l-19 -109h107
l19 109h-107z" />
    <glyph glyph-name="dollar" unicode="$" horiz-adv-x="522" 
d="M38 45q3 93 23 173q34 10 80 -5q4 -58 10 -105q26 -10 59 -13v193l-16 7q-143 58 -143 165q0 73 51 117t125 56v88q41 16 82 0v-86q93 -7 161 -35q-1 -83 -18 -152q-40 -13 -77 3q-4 56 -10 83q-36 8 -56 10v-163l42 -17q131 -52 131 -162q0 -73 -50.5 -129.5
t-134.5 -69.5v-87q-52 -14 -87 0v85q-109 8 -172 44zM351 176q0 43 -54 74v-151q27 6 33 12q21 19 21 65zM181 483q0 -39 46 -66v124q-23 -3 -28 -8q-18 -18 -18 -50z" />
    <glyph glyph-name="percent" unicode="%" horiz-adv-x="732" 
d="M173 601q-16 0 -22 -8q-18 -27 -18 -79q0 -48 12 -79.5t33 -31.5q17 0 22 7q18 27 18 80q0 48 -12 79.5t-33 31.5zM169 320q-74 0 -114.5 50.5t-40.5 124.5q0 73 47 131t121 58t114.5 -51t40.5 -125q0 -72 -47 -130t-121 -58zM554 268q-16 0 -22 -8q-18 -27 -18 -79
q0 -48 12 -79.5t33 -31.5q17 0 22 7q18 27 18 80q0 48 -12 79.5t-33 31.5zM550 -13q-74 0 -114.5 50.5t-40.5 124.5q0 73 47 131t121 58t114.5 -51t40.5 -125q0 -72 -47 -130t-121 -58zM124 29l419 664q42 -11 67 -46l-419 -661q-46 15 -67 43z" />
    <glyph glyph-name="ampersand" unicode="&#x26;" horiz-adv-x="761" 
d="M669 345q-32 -110 -130 -211q66 -53 104 -53t82 16q27 -18 30 -55q-31 -22 -79 -37t-93 -15q-60 0 -144 57q-83 -65 -210 -65q-86 0 -149.5 46t-63.5 130q0 124 142 201q-43 75 -43 128q0 95 66 148t154 53q63 0 106 -37t43 -98q0 -132 -152 -205q58 -77 146 -159
q70 85 78 157q-29 12 -69 17q0 44 8 68q17 0 62 -1.5t75 -1.5q43 0 106 3q6 -18 6 -61q-30 -18 -75 -25zM371 101q-96 86 -169 189q-38 -41 -38 -90q0 -50 38.5 -81t89.5 -31q44 0 79 13zM253 514q0 -43 37 -106q62 51 62 98q0 32 -14 53.5t-36 21.5q-30 0 -39 -11
q-10 -15 -10 -56z" />
    <glyph glyph-name="quotesingle" unicode="'" horiz-adv-x="210" 
d="M146 515q-39 -17 -84 -11q-26 152 -29 262q51 17 123 15l12 -12q-6 -149 -22 -254z" />
    <glyph glyph-name="parenleft" unicode="(" horiz-adv-x="369" 
d="M56 324q0 272 208 548q54 -10 76 -47q-73 -137 -102.5 -259t-29.5 -254q0 -248 132 -495q-31 -35 -79 -43q-205 274 -205 550z" />
    <glyph glyph-name="parenright" unicode=")" horiz-adv-x="369" 
d="M313 322q0 -272 -208 -548q-54 10 -76 47q72 137 102 259t30 253q0 249 -132 496q31 35 79 43q205 -274 205 -550z" />
    <glyph glyph-name="asterisk" unicode="*" horiz-adv-x="403" 
d="M196 562q-53 -99 -79 -130q-47 23 -74 76q66 51 130 75q-103 -6 -152 2q-4 50 29 103q31 -13 70.5 -36.5t59.5 -40.5q-56 79 -75 132q45 31 103 28q11 -85 -1 -151q53 99 79 130q47 -23 74 -76q-66 -51 -130 -75q103 6 152 -2q4 -50 -29 -103q-31 13 -70.5 36.5
t-59.5 40.5q56 -79 75 -132q-45 -31 -103 -28q-11 85 1 151z" />
    <glyph glyph-name="plus" unicode="+" horiz-adv-x="550" 
d="M482 216h-159v-156q-47 -19 -98 0v156h-155q-19 47 0 98h155v158q49 17 98 0v-158h159q17 -49 0 -98z" />
    <glyph glyph-name="comma" unicode="," horiz-adv-x="304" 
d="M59 90q4 36 31.5 58.5t64.5 22.5q43 0 69.5 -25.5t26.5 -66.5q0 -60 -56 -126.5t-125 -96.5q-32 11 -34 37q69 73 69 135q0 45 -46 62z" />
    <glyph glyph-name="hyphen" unicode="-" horiz-adv-x="382" 
d="M317 204l-253 -4q-9 49 2 101l249 5q12 -53 2 -102z" />
    <glyph glyph-name="period" unicode="." horiz-adv-x="304" 
d="M56 81q0 39 27.5 64.5t68.5 25.5t68.5 -25.5t27.5 -64.5q0 -40 -28 -67.5t-68 -27.5t-68 27.5t-28 67.5z" />
    <glyph glyph-name="slash" unicode="/" horiz-adv-x="444" 
d="M421 661l-308 -764q-61 9 -109 40l310 767q64 -10 107 -43z" />
    <glyph glyph-name="zero" unicode="0" horiz-adv-x="601" 
d="M290 549q-18 0 -36 -6t-23 -13q-47 -68 -47 -186q0 -110 34.5 -183t94.5 -73q18 0 35.5 5.5t22.5 13.5q47 66 47 184q0 110 -34.5 184t-93.5 74zM293 -17q-121 0 -187.5 93.5t-66.5 229.5q0 85 31.5 163.5t94.5 131.5t144 53q121 0 187 -93.5t66 -229.5q0 -86 -31 -164
t-94 -131t-144 -53z" />
    <glyph glyph-name="one" unicode="1" horiz-adv-x="386" 
d="M122 94q4 27 4 63v375h-95q-13 33 -9 68q107 44 240 52l12 -12v-462q0 -50 4 -85q50 -4 96 -19q2 -41 -7 -75q-31 3 -169 3q-43 0 -96 -1.5t-73 -1.5q-9 32 -9 76q45 3 102 19z" />
    <glyph glyph-name="two" unicode="2" horiz-adv-x="520" 
d="M246 651q99 0 150.5 -47t51.5 -127q0 -138 -200 -305l-85 -71h206q14 40 31 113q45 4 90 -10q5 -100 -10 -193l-12 -12q-68 2 -258 2h-171q-18 51 -18 117q131 99 203 179t72 144q0 44 -23.5 74t-63.5 30q-32 0 -55 -5q-9 -47 -13 -126q-45 -12 -85 0q-25 94 -25 189
q105 48 215 48z" />
    <glyph glyph-name="three" unicode="3" horiz-adv-x="515" 
d="M39 602q104 49 220 49q90 0 141.5 -42t51.5 -108q0 -86 -94 -142q121 -38 121 -153q0 -86 -74.5 -153t-182.5 -67q-102 0 -188 31q0 102 17 184q31 10 78 5q9 -63 19 -109q21 -5 74 -5q27 0 50.5 6t30.5 13q26 24 26 78q0 38 -31 62t-76 24q-8 0 -20.5 -0.5t-16.5 -0.5
l-11 11q-5 43 15 92q54 0 83.5 28t29.5 63q0 32 -23.5 54.5t-61.5 22.5q-26 0 -58 -4q-9 -43 -11 -98q-42 -10 -89 0q-19 82 -20 159z" />
    <glyph glyph-name="four" unicode="4" horiz-adv-x="527" 
d="M270 80q1 18 1 64v20h-237q-24 45 -21 99l265 379q66 0 128 -26v-359l101 -8q5 -40 -4 -85h-97q0 -60 1 -84q49 -3 79 -12q1 -34 -5 -69q-38 2 -145 2q-36 0 -89 -1t-75 -1q-9 30 -9 69q49 1 107 12zM271 509h-3l-35 -81l-122 -174h160v255z" />
    <glyph glyph-name="five" unicode="5" horiz-adv-x="516" 
d="M229 321q-65 0 -134 -21l-12 12v312l12 12h115q37 0 112.5 0.5t113.5 0.5l12 -11q-1 -49 -12 -87h-225v-131q38 8 74 8q86 0 141.5 -52t55.5 -131q0 -106 -74 -176.5t-183 -70.5q-85 0 -171 30q0 92 16 176q31 10 79 5q10 -68 19 -100q18 -5 63 -5q51 0 75 22
q27 25 27 93q0 49 -28.5 81.5t-75.5 32.5z" />
    <glyph glyph-name="six" unicode="6" horiz-adv-x="526" 
d="M436 582q-128 -25 -188 -85t-64 -154h4q67 62 149 62q71 0 116.5 -52t45.5 -133q0 -105 -71.5 -171t-170.5 -66q-50 0 -89.5 18t-64 47t-40.5 67.5t-22.5 76.5t-6.5 77q0 72 22 135.5t66.5 117.5t120.5 89.5t177 44.5q25 -32 16 -74zM279 301q-44 0 -93 -36
q8 -79 34 -127t68 -48q35 0 51 14q28 30 28 94q0 43 -26.5 73t-61.5 30z" />
    <glyph glyph-name="seven" unicode="7" horiz-adv-x="474" 
d="M89 60q151 248 271 480h-228q-11 -61 -14 -126q-44 -15 -85 0q-15 93 -13 211l12 12q59 -1 223 -1h172q30 -33 37 -86l-245 -562q-89 2 -128 56z" />
    <glyph glyph-name="eight" unicode="8" horiz-adv-x="558" 
d="M369 359v-6q73 -35 111 -72.5t38 -87.5q0 -87 -79 -148.5t-194 -61.5q-93 0 -149 42.5t-56 122.5q0 101 135 167v5q-56 30 -84 63.5t-28 80.5q0 78 74 134t162 56q91 0 140 -41t49 -99q0 -94 -119 -155zM385 167q0 31 -33 57.5t-98 58.5q-86 -45 -86 -110q0 -46 32 -68.5
t75 -22.5q28 0 54.5 7t33.5 14q22 18 22 64zM191 488q0 -48 105 -100q72 45 72 90q0 31 -26.5 53t-68.5 22q-46 0 -61 -13q-21 -18 -21 -52z" />
    <glyph glyph-name="nine" unicode="9" horiz-adv-x="526" 
d="M90 57q245 47 253 239h-4q-68 -63 -151 -63q-70 0 -115.5 52.5t-45.5 133.5q0 105 71.5 171t170.5 66q50 0 89.5 -18t64 -47t40.5 -67.5t22.5 -76.5t6.5 -77q0 -72 -22 -135.5t-66.5 -117.5t-120.5 -89.5t-177 -44.5q-25 32 -16 74zM248 338q43 0 92 36q-8 79 -34 127.5
t-67 48.5q-39 0 -52 -15q-27 -25 -27 -95q0 -44 25.5 -73t62.5 -29z" />
    <glyph glyph-name="colon" unicode=":" horiz-adv-x="304" 
d="M58 75q0 35 27.5 59.5t66.5 24.5t66.5 -24.5t27.5 -59.5q0 -37 -27.5 -63t-66.5 -26q-38 0 -66 26t-28 63zM58 400q0 35 27.5 59.5t66.5 24.5t66.5 -24.5t27.5 -59.5q0 -37 -27.5 -63t-66.5 -26q-38 0 -66 26t-28 63z" />
    <glyph glyph-name="semicolon" unicode=";" horiz-adv-x="304" 
d="M53 90q4 35 30.5 58t60.5 23q46 0 73.5 -25t27.5 -67q0 -60 -56.5 -126t-126.5 -96q-30 10 -32 36q69 73 69 135q0 47 -46 62zM58 400q0 35 27.5 59.5t66.5 24.5t66.5 -24.5t27.5 -59.5q0 -37 -27.5 -63t-66.5 -26q-38 0 -66 26t-28 63z" />
    <glyph glyph-name="less" unicode="&#x3c;" horiz-adv-x="550" 
d="M469 31l-425 201q-11 41 0 87l426 201q36 -32 42 -87l-337 -157l336 -156q-1 -48 -42 -89z" />
    <glyph glyph-name="equal" unicode="=" horiz-adv-x="550" 
d="M482 309h-412q-19 47 0 98h412q17 -49 0 -98zM482 123h-412q-19 47 0 98h412q17 -49 0 -98z" />
    <glyph glyph-name="greater" unicode="&#x3e;" horiz-adv-x="550" 
d="M79 520l425 -201q11 -41 0 -87l-426 -201q-36 32 -42 87l336 157l-335 156q1 48 42 89z" />
    <glyph glyph-name="question" unicode="?" horiz-adv-x="430" 
d="M131 480q-46 -13 -87 -5q-18 77 -18 154q90 56 191 56q102 0 154 -48t52 -126q0 -45 -23 -85.5t-51 -64l-58 -50.5t-40 -44q-6 -11 -6 -64q-45 -24 -118 -13q-17 51 -17 94q0 23 25 48.5t55 45t55 46t25 51.5q0 44 -27 78t-67 34q-14 0 -29 -3q-12 -51 -16 -104zM108 63
q0 30 23.5 50.5t57.5 20.5q33 0 56 -20.5t23 -50.5q0 -31 -23 -54t-56 -23q-34 0 -57.5 23t-23.5 54z" />
    <glyph glyph-name="at" unicode="@" horiz-adv-x="960" 
d="M257 231q0 111 64 187.5t152 76.5q122 0 219 -62v-278q0 -24 2 -68q30 0 59 14t39 32q26 43 26 119q0 138 -87 225t-232 87q-61 0 -129.5 -23t-91.5 -45q-114 -107 -114 -266q0 -141 82.5 -234.5t205.5 -93.5q79 0 161 27q28 -25 24 -63q-96 -61 -226 -61
q-157 0 -267 109t-110 278q0 131 62.5 237t178.5 168t265 62q89 0 164 -30t124 -81t76.5 -117t27.5 -139q0 -137 -83 -221.5t-215 -84.5q-21 0 -40.5 20t-31.5 52q-67 -72 -136 -72q-81 0 -125 69t-44 176zM470 92q28 0 78 50v239q-32 17 -61 17q-43 0 -53 -13
q-15 -18 -25 -54.5t-10 -72.5q0 -67 20 -116.5t51 -49.5z" />
    <glyph glyph-name="A" unicode="A" horiz-adv-x="717" 
d="M482 86l-38 105q-85 5 -149 5h-67l-38 -110l89 -17q1 -37 -6 -70q-41 2 -140 2q-27 0 -66.5 -1t-53.5 -1q-8 31 -8 70q34 4 80 19l205 570q60 17 135 17l214 -587q38 -4 74 -19q1 -37 -6 -70q-37 2 -150 2q-33 0 -87 -1t-75 -1q-8 31 -8 70zM348 545l-91 -264h155
l-58 161l-2 103h-4z" />
    <glyph glyph-name="B" unicode="B" horiz-adv-x="626" 
d="M181 1q-34 0 -86 -1t-71 -1q-8 31 -8 70q39 4 87 19q5 24 5 61v295q0 76 -5 138q-48 15 -87 19q0 39 8 70q19 0 71 -1t86 -1q43 0 109 2.5t89 2.5q78 0 129.5 -44.5t51.5 -111.5q0 -96 -98 -146q71 -19 110 -61.5t39 -93.5q0 -84 -78 -152.5t-193 -68.5q-24 0 -74.5 2.5
t-84.5 2.5zM306 303h-50v-208h46q99 0 120 16q35 28 35 88q0 104 -151 104zM325 577q-3 0 -69 -3v-179h31q62 0 90 26t28 63q0 39 -23 66t-57 27z" />
    <glyph glyph-name="C" unicode="C" horiz-adv-x="600" 
d="M448 568q-33 6 -93 6q-78 0 -105 -21q-9 -7 -23.5 -29t-29 -67t-14.5 -94q0 -120 49.5 -193.5t147.5 -73.5q46 0 82 9q8 62 13 121q45 14 89 7q15 -80 15 -209q-106 -39 -222 -39q-160 0 -245 95t-85 243q0 65 22.5 128.5t64.5 116t110 85t151 32.5q116 0 194 -31
q0 -122 -23 -202q-42 -7 -85 7q-2 45 -13 109z" />
    <glyph glyph-name="D" unicode="D" horiz-adv-x="697" 
d="M181 1q-34 0 -86 -1t-71 -1q-8 31 -8 70q39 4 87 19q5 24 5 61v295q0 76 -5 138q-48 15 -87 19q0 39 8 70q19 0 71 -1t86 -1q33 0 105 2.5t106 2.5q131 0 204.5 -91.5t73.5 -238.5q0 -137 -92 -242.5t-230 -105.5q-23 0 -77.5 2.5t-89.5 2.5zM339 577q-29 0 -83 -2v-480
h84q32 0 66 7.5t46 17.5q62 52 62 186q0 69 -18.5 129t-59.5 101t-97 41z" />
    <glyph glyph-name="E" unicode="E" horiz-adv-x="590" 
d="M181 669h123q173 0 235 2l12 -13q3 -121 -13 -195q-51 -9 -89 0q-5 59 -15 110h-178v-186l178 6l12 -12q-2 -58 -11 -88l-179 5v-201h191q19 52 36 123q42 6 87 -7q0 -85 -11 -201l-12 -13q-62 2 -235 2h-129q-34 0 -87 -1t-72 -1q-8 31 -8 70q39 4 87 19q5 24 5 61v295
q0 75 -5 138q-48 15 -87 19q0 39 8 70q19 0 71 -1t86 -1z" />
    <glyph glyph-name="F" unicode="F" horiz-adv-x="558" 
d="M437 379l12 -12q-2 -58 -11 -88l-182 5v-113q0 -48 4 -83q59 -4 113 -19q2 -39 -7 -70q-47 2 -185 2q-34 0 -86 -1t-71 -1q-8 31 -8 70q39 4 87 19q5 24 5 61v295q0 76 -5 138q-48 15 -87 19q0 39 8 70q19 0 71.5 -1t86.5 -1h123q173 0 235 2l12 -13q3 -127 -13 -207
q-51 -9 -89 0q-5 65 -15 122h-179v-200z" />
    <glyph glyph-name="G" unicode="G" horiz-adv-x="689" 
d="M182 363q0 -123 51 -199.5t149 -76.5q33 0 71 3v8q0 76 -5 138q-57 15 -102 19q0 40 9 70q18 0 70 -1t95 -1q120 0 147 2q7 -33 6 -70q-36 -15 -74 -19q-4 -49 -4 -138v-58q-146 -55 -269 -55q-143 0 -221 95.5t-78 242.5q0 65 23 128.5t65.5 116t112 85t155.5 32.5
q115 0 198 -30q0 -113 -23 -193q-44 -7 -89 7q-3 62 -12 103q-36 6 -85 6q-93 0 -119 -22q-20 -16 -45.5 -68t-25.5 -125z" />
    <glyph glyph-name="H" unicode="H" horiz-adv-x="778" 
d="M519 582q-48 15 -87 19q0 39 8 70q19 0 71 -1t86 -1q115 0 154 2q7 -33 6 -70q-40 -15 -81 -19q-4 -49 -4 -138v-273q0 -48 4 -83q41 -4 81 -19q1 -37 -6 -70q-39 2 -154 2q-34 0 -86 -1t-71 -1q-8 31 -8 70q39 4 87 19q5 24 5 61v145q-112 7 -189 7h-79v-130
q0 -48 4 -83q41 -4 81 -19q1 -37 -6 -70q-39 2 -154 2q-34 0 -86 -1t-71 -1q-8 31 -8 70q39 4 87 19q5 24 5 61v295q0 76 -5 138q-48 15 -87 19q0 39 8 70q19 0 71 -1t86 -1q115 0 154 2q7 -33 6 -70q-40 -15 -81 -19q-4 -49 -4 -138v-49h268v49q0 76 -5 138z" />
    <glyph glyph-name="I" unicode="I" horiz-adv-x="362" 
d="M103 582q-48 15 -87 19q0 39 8 70q19 0 71 -1t86 -1q115 0 154 2q7 -33 6 -70q-40 -15 -81 -19q-4 -49 -4 -138v-273q0 -48 4 -83q41 -4 81 -19q1 -37 -6 -70q-39 2 -154 2q-34 0 -86 -1t-71 -1q-8 31 -8 70q39 4 87 19q5 24 5 61v295q0 76 -5 138z" />
    <glyph glyph-name="J" unicode="J" horiz-adv-x="342" 
d="M246 444v-401q0 -120 -76 -185t-211 -73q-25 31 -19 69q158 62 158 200v390q0 76 -5 138q-48 15 -87 19q0 39 8 70q19 0 71.5 -1t86.5 -1q114 0 153 2q7 -33 6 -70q-40 -15 -81 -19q-4 -49 -4 -138z" />
    <glyph glyph-name="K" unicode="K" horiz-adv-x="712" 
d="M608 582l-179 -184l200 -311q38 -4 74 -19q1 -37 -6 -70q-42 2 -130 2h-66l-177 290l-68 -71v-48q0 -48 4 -83q41 -4 81 -19q1 -37 -6 -70q-39 2 -154 2q-34 0 -86 -1t-71 -1q-8 31 -8 70q39 4 87 19q5 24 5 61v295q0 76 -5 138q-48 15 -87 19q0 39 8 70q19 0 71 -1
t86 -1q115 0 154 2q7 -33 6 -70q-40 -15 -81 -19q-4 -49 -4 -138v-89l214 229l-78 17q0 39 8 70q21 0 68.5 -1t75.5 -1q100 0 134 2q7 -33 6 -70q-38 -15 -76 -19z" />
    <glyph glyph-name="L" unicode="L" horiz-adv-x="577" 
d="M256 444v-347h191q21 72 36 147q41 7 89 -7q0 -115 -11 -225l-12 -13q-62 2 -235 2h-133q-34 0 -86 -1t-71 -1q-8 31 -8 70q39 4 87 19q5 24 5 61v295q0 76 -5 138q-48 15 -87 19q0 39 8 70q19 0 71 -1t86 -1q139 0 186 2q7 -33 6 -70q-53 -15 -113 -19q-4 -49 -4 -138z
" />
    <glyph glyph-name="M" unicode="M" horiz-adv-x="928" 
d="M694 88l-37 373l8 110h-4l-149 -559q-54 -17 -133 -17l-118 466l-9 110h-4l-48 -482l81 -20q1 -37 -6 -70q-39 2 -145 2q-18 0 -58 -1t-59 -1q-8 31 -8 70q39 4 87 19l50 494q-48 15 -87 19q0 39 8 70q17 0 63 -1t77 -1q99 0 156 -3l94 -369l4 -110h4l118 479q57 3 140 3
q112 0 149 2q7 -33 6 -70q-40 -15 -81 -19l48 -494q41 -4 81 -19q1 -37 -6 -70q-38 2 -149 2q-33 0 -82.5 -1t-68.5 -1q-8 31 -8 70z" />
    <glyph glyph-name="N" unicode="N" horiz-adv-x="748" 
d="M652 12q-71 -17 -166 -17l-244 432l-23 110h-4v-366q0 -48 4 -83q41 -4 81 -19q1 -37 -6 -70q-39 2 -135 2q-23 0 -68.5 -1t-66.5 -1q-8 31 -8 70q39 4 87 19q5 24 5 61v295q0 76 -5 138q-48 15 -87 19q0 39 8 70q20 0 69 -1t76 -1q77 0 111 -4l236 -416l25 -110h4v305
q0 76 -5 138q-48 15 -87 19q0 39 8 70q21 0 68 -1t70 -1q94 0 132 2q7 -33 6 -70q-40 -15 -81 -19q-4 -49 -4 -138v-432z" />
    <glyph glyph-name="O" unicode="O" horiz-adv-x="694" 
d="M337 -18q-147 0 -228.5 96t-81.5 245q0 89 39 171.5t116.5 138t174.5 55.5q146 0 228 -96t82 -245q0 -89 -39 -171.5t-116.5 -138t-174.5 -55.5zM365 93q27 0 54.5 9.5t35.5 19.5q56 66 56 185q0 117 -45 193.5t-137 76.5q-27 0 -54.5 -9.5t-35.5 -19.5q-56 -66 -56 -185
q0 -117 45 -193.5t137 -76.5z" />
    <glyph glyph-name="P" unicode="P" horiz-adv-x="601" 
d="M181 669q34 0 101.5 2.5t93.5 2.5q100 0 157 -55t57 -134q0 -98 -83.5 -173.5t-195.5 -75.5q-21 0 -55 2v-67q0 -48 4 -83q59 -4 113 -19q2 -39 -7 -70q-47 2 -185 2q-34 0 -86 -1t-71 -1q-8 31 -8 70q39 4 87 19q5 24 5 61v295q0 76 -5 138q-48 15 -87 19q0 39 8 70
q19 0 71 -1t86 -1zM334 577q-26 0 -78 -2v-237q14 -1 44 -1q33 0 63 7.5t35 12.5q36 31 36 106q0 45 -26.5 79.5t-73.5 34.5z" />
    <glyph glyph-name="Q" unicode="Q" horiz-adv-x="694" 
d="M667 347q0 -117 -68 -220t-179 -134q66 -72 156 -72q34 0 62 4q21 -32 13 -77q-67 -29 -190 -29q-70 0 -197 171q-113 23 -175 113.5t-62 219.5q0 89 39 171.5t116.5 138t174.5 55.5q146 0 228 -96t82 -245zM365 93q27 0 54.5 9.5t35.5 19.5q56 66 56 185
q0 117 -45 193.5t-137 76.5q-27 0 -54.5 -9.5t-35.5 -19.5q-56 -66 -56 -185q0 -117 45 -193.5t137 -76.5z" />
    <glyph glyph-name="R" unicode="R" horiz-adv-x="668" 
d="M453 0l-126 272h-10q-31 0 -61 3v-104q0 -48 4 -83q41 -4 81 -19q1 -37 -6 -70q-39 2 -154 2q-34 0 -86 -1t-71 -1q-8 31 -8 70q39 4 87 19q5 24 5 61v295q0 76 -5 138q-48 15 -87 19q0 39 8 70q19 0 71 -1t86 -1t101 2.5t93 2.5q99 0 156.5 -48.5t57.5 -121.5
q0 -54 -33 -104t-88 -84l113 -229q41 -4 81 -19q1 -37 -6 -70q-44 2 -134 2h-69zM334 577q-52 0 -78 -2v-203q14 -1 44 -1q22 0 44 3.5t34.5 7.5t15.5 6q39 29 39 91q0 38 -26.5 68t-72.5 30z" />
    <glyph glyph-name="S" unicode="S" horiz-adv-x="540" 
d="M21 34q3 106 24 192q40 11 89 -5q4 -65 11 -117q46 -19 107 -19q25 0 48.5 7t29.5 12q25 22 25 72q0 54 -103 95l-77 31q-141 58 -141 180q0 101 72.5 152t171.5 51q115 0 211 -40q-1 -93 -16 -170q-51 -14 -87 5q-3 47 -12 94q-38 13 -99 13q-19 0 -40 -4.5t-25 -7.5
q-23 -18 -23 -57q0 -16 8 -30t26 -25.5t29.5 -17.5t35.5 -17l82 -37q142 -63 142 -175q0 -99 -67.5 -165t-179.5 -66q-151 0 -242 49z" />
    <glyph glyph-name="T" unicode="T" horiz-adv-x="649" 
d="M521 573h-123v-402q0 -48 4 -83q59 -4 113 -19q2 -39 -7 -70q-47 2 -185 2q-40 0 -102.5 -1t-84.5 -1q-10 29 -10 70q52 4 119 19q5 24 5 61v424h-122q-12 -74 -15 -134q-38 -9 -89 0q-17 97 -13 220l12 12q62 -2 235 -2h133q173 0 235 2l12 -12q4 -123 -13 -220
q-51 -9 -89 0q-3 60 -15 134z" />
    <glyph glyph-name="U" unicode="U" horiz-adv-x="712" 
d="M621 444v-167q0 -133 -67 -214t-212 -81q-122 0 -184.5 60t-62.5 192v210q0 76 -5 138q-48 15 -87 19q0 39 8 70q19 0 71 -1t86 -1q115 0 154 2q7 -33 6 -70q-40 -15 -81 -19q-4 -49 -4 -138v-162q0 -199 138 -199q30 0 57 10.5t37 22.5q34 41 34 134v194q0 76 -5 138
q-48 15 -87 19q0 39 8 70q21 0 67.5 -1t71.5 -1q97 0 136 2q7 -33 6 -70q-40 -15 -81 -19q-4 -49 -4 -138z" />
    <glyph glyph-name="V" unicode="V" horiz-adv-x="717" 
d="M532 584l-95 17q0 35 6 70q17 0 62 -1t73 -1q95 0 128 2q6 -35 5 -70q-36 -15 -74 -19l-205 -570q-60 -17 -135 -17l-214 587q-45 15 -80 19q0 39 8 70q19 0 71 -1t86 -1q116 0 155 2q7 -33 6 -70l-89 -17l128 -356l2 -103h4z" />
    <glyph glyph-name="W" unicode="W" horiz-adv-x="998" 
d="M241 -5l-158 587q-45 15 -80 19q0 39 8 70q20 0 71.5 -1t84.5 -1q115 0 153 2q7 -33 6 -70l-89 -17l87 -348l2 -110h4l125 532q58 17 147 17l108 -436v-110h4l104 458l-95 16q0 35 6 68q16 0 59.5 -1t72.5 -1q94 0 126 2q6 -35 5 -70q-36 -15 -74 -19l-143 -570
q-59 -17 -150 -17l-102 381l-8 111h-4l-117 -475q-58 -17 -153 -17z" />
    <glyph glyph-name="X" unicode="X" horiz-adv-x="693" 
d="M205 86l72 -17q1 -37 -6 -70q-39 2 -136 2q-27 0 -68 -1t-56 -1q-8 31 -8 70q39 4 87 19l167 248l-170 246q-46 15 -80 19q0 39 8 70q18 0 71 -1t90 -1q123 0 166 2q7 -33 6 -70l-82 -17l112 -162l103 162l-75 17q0 35 6 70q16 0 59.5 -1t69.5 -1q93 0 124 2q6 -35 5 -70
q-36 -15 -74 -19l-162 -240l177 -254q38 -4 76 -19q1 -37 -6 -70q-41 2 -164 2q-36 0 -91 -1t-75 -1q-8 31 -8 70l88 17l-117 168z" />
    <glyph glyph-name="Y" unicode="Y" horiz-adv-x="674" 
d="M594 582l-183 -336v-75q0 -48 4 -83q59 -4 113 -19q2 -39 -7 -70q-47 2 -185 2q-40 0 -102 -1t-85 -1q-10 29 -10 70q52 4 119 19q5 24 5 61v99l-180 332q-45 15 -80 19q0 40 8 72q21 0 76 -1t91 -1q118 0 159 2q7 -33 6 -70l-84 -17l114 -211l108 211l-90 17q0 35 6 70
q16 0 61 -1t75 -1q98 0 130 2q6 -35 5 -70q-36 -15 -74 -19z" />
    <glyph glyph-name="Z" unicode="Z" horiz-adv-x="590" 
d="M304 1h-269q-18 45 -15 88l327 484h-191q-12 -67 -15 -110q-48 -10 -89 0q-16 79 -13 196l12 12q62 -2 235 -2h221q30 -40 36 -88l-328 -484h224q19 52 36 123q42 6 87 -7q0 -87 -11 -202l-12 -12q-62 2 -235 2z" />
    <glyph glyph-name="bracketleft" unicode="[" horiz-adv-x="394" 
d="M102 839l12 12q172 -3 260 -3q8 -45 0 -90q-57 -8 -141 -10v-854q84 -2 141 -10q6 -45 0 -90q-82 0 -260 -3l-12 12v1036z" />
    <glyph glyph-name="backslash" unicode="\" horiz-adv-x="444" 
d="M332 -103l-309 764q43 33 107 43l310 -767q-47 -31 -108 -40z" />
    <glyph glyph-name="bracketright" unicode="]" horiz-adv-x="394" 
d="M280 851l12 -12v-1036l-12 -12q-178 3 -260 3q-6 45 0 90q57 8 141 10v854q-84 2 -141 10q-8 45 0 90q87 0 260 3z" />
    <glyph glyph-name="asciicircum" unicode="^" horiz-adv-x="508" 
d="M382 372l-131 168l-131 -168q-45 15 -65 55l159 242q40 7 75 7l164 -250q-26 -38 -71 -54z" />
    <glyph glyph-name="underscore" unicode="_" horiz-adv-x="500" 
d="M0 -130v88h500v-88h-500z" />
    <glyph glyph-name="grave" unicode="`" horiz-adv-x="415" 
d="M223 534l-172 183l7 24q53 31 129 29l99 -188q-17 -41 -63 -48z" />
    <glyph glyph-name="a" unicode="a" horiz-adv-x="535" 
d="M29 112q0 38 25.5 72t68.5 58t86.5 40.5t91.5 28.5q-3 100 -61 100q-35 0 -60 -4q-8 -27 -8 -75q-46 -22 -88 -12q-33 47 -33 120q98 57 220 57q22 0 43 -3.5t46 -14t43 -27.5t30.5 -47.5t12.5 -70.5v-175q0 -25 2 -69q28 2 64 11q20 -15 20 -43q-29 -31 -68.5 -51.5
t-77.5 -20.5q-40 0 -67 62q-80 -62 -148 -62q-142 0 -142 126zM237 89q24 0 65 25v106q-92 -11 -107 -23q-19 -14 -19 -50q0 -24 16 -41t45 -17z" />
    <glyph glyph-name="b" unicode="b" horiz-adv-x="571" 
d="M223 466v-14q65 43 136 43q82 0 132 -66.5t50 -178.5q0 -99 -63 -181.5t-156 -82.5q-83 0 -152 47q-49 -40 -85 -53q-33 9 -44 40q38 53 38 119v513q-45 12 -79 16q-10 32 -4 61q97 34 219 37l12 -12q-4 -133 -4 -288zM298 394q-27 0 -75 -23v-251q44 -37 91 -37
q13 0 25.5 5.5t16.5 11.5q38 50 38 124q0 70 -25.5 120t-70.5 50z" />
    <glyph glyph-name="c" unicode="c" horiz-adv-x="473" 
d="M268 398q-45 0 -57 -15q-34 -43 -34 -122q0 -65 29 -117t92 -52q51 0 132 34q22 -20 26 -62q-39 -32 -95 -55t-108 -23q-112 0 -167.5 68.5t-55.5 179.5q0 99 67 180t174 81q94 0 174 -38q-4 -105 -29 -157q-53 -14 -88 4q-2 59 -6 89q-20 5 -54 5z" />
    <glyph glyph-name="d" unicode="d" horiz-adv-x="582" 
d="M30 231q0 110 65.5 187t150.5 77q50 0 99 -19v176q-48 12 -85 16q-10 32 -4 61q100 34 225 37l12 -12q-4 -133 -4 -288v-307q0 -25 2 -69q28 2 64 11q20 -15 20 -43q-29 -31 -68.5 -51.5t-77.5 -20.5q-22 0 -41 21.5t-31 56.5q-73 -78 -149 -78q-86 0 -132 69t-46 176z
M253 92q34 0 92 58v236q-41 12 -76 12q-45 0 -55 -13q-15 -18 -26 -54.5t-11 -72.5q0 -68 21 -117t55 -49z" />
    <glyph glyph-name="e" unicode="e" horiz-adv-x="494" 
d="M30 228q0 102 69 186t169 84q54 0 94 -19t60 -50.5t29.5 -64t9.5 -66.5t-9 -55l-12 -12q-140 2 -228 2h-37q7 -59 37 -100t88 -41q53 0 135 34q22 -20 26 -62q-40 -32 -96.5 -55t-108.5 -23q-113 0 -169.5 67t-56.5 175zM211 390q-25 -39 -34 -83h22q82 0 118 3
q0 95 -68 95q-28 0 -38 -15z" />
    <glyph glyph-name="f" unicode="f" horiz-adv-x="401" 
d="M38 406q-11 33 -5 66q32 10 76 15v6q0 121 67 197t164 76q80 0 156 -38q-3 -102 -29 -157q-54 -14 -88 4q0 42 -5 89q-22 5 -41 5q-40 0 -50 -16q-30 -47 -30 -168l121 -1q2 -50 -4 -91h-117v-234q0 -39 3 -75q68 -4 118 -18q0 -48 -6 -67q-110 2 -184 2q-39 0 -87 -1
t-65 -1q-7 21 -7 67q45 5 80 17q4 29 4 56v254q-11 3 -71 13z" />
    <glyph glyph-name="g" unicode="g" horiz-adv-x="532" 
d="M466 332q0 -77 -59.5 -134t-169.5 -58q-8 -16 -8 -33q0 -15 4 -19q5 -6 104 -6q71 0 118.5 -39t47.5 -105q0 -100 -75 -154t-213 -54q-58 0 -99.5 13.5t-62.5 35.5t-30 44t-9 44q0 78 100 135q-11 13 -11 40q0 45 59 106q-119 31 -119 155q0 75 59.5 133.5t164.5 58.5
q58 0 102 -18q41 48 116 89q41 -25 53 -88q-41 -21 -109 -42q37 -43 37 -104zM263 -31q-61 0 -92 7q-27 -31 -27 -72q0 -33 26 -55t78 -22q76 0 109 21q8 5 14 24.5t6 39.5q0 57 -114 57zM330 315q0 35 -22.5 63t-58.5 28q-34 0 -46 -10q-25 -21 -25 -68q0 -42 21.5 -70.5
t54.5 -28.5q35 0 48 11q10 8 19 30.5t9 44.5z" />
    <glyph glyph-name="h" unicode="h" horiz-adv-x="626" 
d="M393 139v145q0 56 -16 84.5t-63 28.5q-35 0 -77 -13v-225q0 -39 3 -75q41 -5 67 -18q0 -48 -6 -67q-50 2 -133 2q-39 0 -88 -1t-64 -1q-7 21 -7 67q45 5 80 17q4 29 4 56v513q-45 12 -79 16q-10 32 -4 61q97 34 219 37l12 -12q-4 -133 -4 -290q70 34 143 34q63 0 110 -40
t47 -116v-183q0 -39 3 -75q47 -5 75 -18q0 -49 -7 -67q-52 2 -140 2q-32 0 -71.5 -1t-52.5 -1q-5 20 -5 67q30 7 50 17q4 29 4 56z" />
    <glyph glyph-name="i" unicode="i" horiz-adv-x="354" 
d="M257 198v-39q0 -39 3 -75q46 -5 75 -18q0 -48 -6 -67q-54 2 -141 2q-39 0 -88 -1t-64 -1q-7 21 -7 67q45 5 80 17q4 29 4 56v245q-45 12 -79 16q-10 32 -4 61q97 34 219 37l12 -12q-4 -133 -4 -288zM170 556q-29 0 -54.5 21.5t-25.5 50.5q0 36 28 70.5t65 34.5
q31 0 56 -20.5t25 -52.5q0 -38 -28 -71t-66 -33z" />
    <glyph glyph-name="j" unicode="j" horiz-adv-x="321" 
d="M242 185v-172q0 -63 -20 -113.5t-54.5 -82.5t-70.5 -51.5t-78 -31.5q-28 16 -28 51q107 77 107 242v357q-45 12 -79 16q-10 32 -4 61q97 34 219 37l12 -12q-4 -252 -4 -301zM155 556q-29 0 -54.5 21.5t-25.5 50.5q0 36 28 70.5t65 34.5q31 0 56 -20.5t25 -52.5
q0 -38 -28 -71t-66 -33z" />
    <glyph glyph-name="k" unicode="k" horiz-adv-x="630" 
d="M237 466v-174l79 22l82 86l-74 18q0 41 8 67q14 0 69.5 -1t97.5 -1q40 0 98 2q6 -21 6 -67q-51 -16 -85 -20l-107 -117q59 -107 108 -164q19 -22 33 -30.5t36 -8.5q15 0 30 3q16 -28 11 -58q-20 -12 -66 -23.5t-90 -11.5q-24 0 -48 20t-47 58.5t-40 75t-39 89.5l-62 -15
v-57q0 -39 3 -75q46 -5 75 -18q0 -48 -6 -67q-54 2 -141 2q-39 0 -88 -1t-64 -1q-7 21 -7 67q45 5 80 17q4 29 4 56v513q-45 12 -79 16q-10 32 -4 61q97 34 219 37l12 -12q-4 -133 -4 -288z" />
    <glyph glyph-name="l" unicode="l" horiz-adv-x="330" 
d="M237 466v-307q0 -39 3 -75q46 -5 75 -18q0 -48 -6 -67q-54 2 -144 2q-37 0 -85.5 -1t-63.5 -1q-7 21 -7 67q45 5 80 17q4 29 4 56v513q-45 12 -79 16q-10 32 -4 61q97 34 219 37l12 -12q-4 -133 -4 -288z" />
    <glyph glyph-name="m" unicode="m" horiz-adv-x="910" 
d="M395 139v145q0 56 -13 84.5t-50 28.5t-75 -20v-218q0 -39 3 -75q29 -7 49 -18q0 -45 -5 -67q-44 2 -116 2q-39 0 -88 -1t-64 -1q-7 21 -7 67q45 5 80 17q4 29 4 56v245q-36 11 -79 16q-11 31 -4 61q85 30 184 36l16 -8q9 -22 15 -43q69 52 140 52q87 0 129 -63
q75 63 153 63q65 0 109.5 -40t44.5 -116v-183q0 -39 3 -75q47 -5 75 -18q0 -49 -7 -67q-52 2 -140 2q-32 0 -71.5 -1t-52.5 -1q-5 20 -5 67q30 7 50 17q4 29 4 56v145q0 56 -13 84.5t-50 28.5t-78 -22q3 -15 3 -33v-183q0 -39 3 -75q30 -7 49 -18q0 -48 -6 -67q-42 2 -115 2
q-32 0 -71.5 -1t-52.5 -1q-5 20 -5 67q30 7 50 17q4 29 4 56z" />
    <glyph glyph-name="n" unicode="n" horiz-adv-x="646" 
d="M214 497l16 -8q6 -13 17 -48q71 57 153 57q63 0 110 -40t47 -116v-183q0 -39 3 -75q47 -5 75 -18q0 -49 -7 -67q-52 2 -140 2q-32 0 -71.5 -1t-52.5 -1q-5 20 -5 67q30 7 50 17q4 29 4 56v145q0 56 -16 84.5t-63 28.5q-32 0 -77 -25v-213q0 -39 3 -75q39 -5 67 -18
q0 -48 -6 -67q-50 2 -133 2q-39 0 -88 -1t-64 -1q-7 21 -7 67q45 5 80 17q4 29 4 56v245q-36 11 -79 16q-11 33 -4 61q85 30 184 36z" />
    <glyph glyph-name="o" unicode="o" horiz-adv-x="543" 
d="M278 498q116 0 175.5 -68.5t59.5 -179.5q0 -101 -68.5 -182.5t-179.5 -81.5q-115 0 -175 68t-60 180q0 101 68.5 182.5t179.5 81.5zM280 83q39 0 50 15q36 46 36 127q0 41 -9.5 79t-33.5 67.5t-60 29.5q-39 0 -50 -15q-36 -46 -36 -127q0 -41 9.5 -79t33.5 -67.5
t60 -29.5z" />
    <glyph glyph-name="p" unicode="p" horiz-adv-x="590" 
d="M215 489q9 -22 15 -43q71 52 148 52q82 0 132 -66.5t50 -178.5q0 -99 -63 -181.5t-156 -82.5q-51 0 -99 25v-106q0 -39 3 -75q66 -3 118 -18q0 -47 -6 -66q-110 2 -184 2q-39 0 -87 -1t-65 -1q-7 21 -7 66q45 5 80 17q4 29 4 56v496q-36 11 -79 16q-11 33 -4 61
q85 30 184 36zM317 397q-27 0 -75 -23v-251q44 -37 91 -37q13 0 25.5 5.5t16.5 11.5q38 50 38 124q0 70 -25.5 120t-70.5 50z" />
    <glyph glyph-name="q" unicode="q" horiz-adv-x="568" 
d="M345 -112v134q-75 -33 -137 -33q-86 0 -132 69t-46 176q0 110 65.5 187t150.5 77q82 0 152 -46q58 42 88 52q31 -10 41 -39q-38 -53 -38 -140v-417q0 -39 3 -75q46 -5 75 -18q0 -47 -6 -66q-68 2 -141 2q-37 0 -97 -1t-83 -1q-7 21 -7 66q64 5 108 17q4 29 4 56zM264 95
q32 0 81 11v282q-41 12 -76 12q-45 0 -55 -13q-15 -18 -26 -54t-11 -72q0 -69 23 -117.5t64 -48.5z" />
    <glyph glyph-name="r" unicode="r" horiz-adv-x="498" 
d="M215 497l16 -8q14 -34 26 -80q60 86 141 86q51 0 93 -16q0 -123 -20 -190q-47 -18 -91 0q-7 65 -15 98q-6 1 -17 1q-46 0 -90 -73v-156q0 -39 3 -75q73 -5 118 -18q0 -46 -8 -67q-70 2 -182 2q-39 0 -88 -1t-64 -1q-7 21 -7 67q45 5 80 17q4 29 4 56v245q-36 11 -79 16
q-13 33 -4 61q85 30 184 36z" />
    <glyph glyph-name="s" unicode="s" horiz-adv-x="449" 
d="M209 -11q-112 0 -181 29q0 80 20 153q40 12 86 0q1 -35 9 -86q24 -11 69 -11q41 0 54 11t13 36q0 22 -18 35.5t-55 27.5q-40 14 -61 23.5t-48 27.5t-39 43.5t-12 59.5q0 80 58 118.5t136 38.5q109 0 176 -19q0 -74 -20 -143q-47 -12 -85 2q-6 45 -17 74q-17 7 -43 7
q-24 0 -39.5 -3.5t-21 -11t-7 -12.5t-1.5 -14q0 -21 24.5 -37.5t60 -30t71 -30.5t60 -48t24.5 -74q0 -82 -58.5 -124t-154.5 -42z" />
    <glyph glyph-name="t" unicode="t" horiz-adv-x="406" 
d="M89 130v263q-13 3 -72 13q-11 33 -5 66q32 11 79 16l56 137q45 3 86 -7v-133l159 -1q2 -50 -4 -91h-155v-204q0 -102 46 -102t97 19q23 -25 22 -64q-75 -56 -183 -56q-126 0 -126 144z" />
    <glyph glyph-name="u" unicode="u" horiz-adv-x="622" 
d="M89 150v246q-36 16 -78 22q0 43 7 67q15 0 64.5 -1t90.5 -1h50l12 -12q-2 -90 -2 -261q0 -118 59 -118q35 0 89 50v254q-35 16 -73 22q0 43 7 67q15 0 63 -1t88 -1h49l12 -12q-2 -75 -2 -250v-62q0 -25 2 -69q28 2 64 11q20 -15 20 -43q-29 -31 -68.5 -51.5t-77.5 -20.5
q-21 0 -39.5 20t-30.5 52q-70 -72 -155 -72q-70 0 -110.5 42.5t-40.5 121.5z" />
    <glyph glyph-name="v" unicode="v" horiz-adv-x="586" 
d="M514 401l-145 -389q-66 -17 -143 -17l-151 406q-23 11 -67 17q0 39 7 67q13 0 50 -1t61 -1q8 0 60.5 1t100.5 1q8 -29 5 -67l-59 -18l67 -200v-90h4l95 290l-65 18q0 43 9 67q18 0 64 -1t77 -1q24 0 88 2q9 -32 6 -67q-25 -12 -64 -17z" />
    <glyph glyph-name="w" unicode="w" horiz-adv-x="861" 
d="M678 400l-66 18q0 43 9 67q18 0 62.5 -1t75.5 -1q30 0 88 2q9 -32 6 -67q-25 -12 -64 -17l-121 -389q-65 -17 -157 -17l-61 289v90h-5l-82 -362q-65 -17 -156 -17l-135 406q-23 11 -64 17q0 39 7 67q12 0 48 -1t59 -1q17 0 68.5 1t90.5 1q8 -29 5 -67l-64 -18l53 -200
v-90h4l82 362q66 17 177 17l61 -289v-90h4z" />
    <glyph glyph-name="x" unicode="x" horiz-adv-x="597" 
d="M258 400l76 -93l64 93l-45 18q0 41 8 67q13 0 55 -1t77 -1q32 0 82 2q9 -32 6 -67q-25 -12 -64 -17l-126 -163l129 -155q42 -5 67 -17q3 -35 -6 -67q-58 2 -95 2q-48 0 -103.5 -1t-67.5 -1q-9 24 -9 67l45 18l-85 102l-71 -102l56 -18q2 -43 -5 -67q-27 0 -54.5 0.5
t-42.5 1t-24 0.5q-21 0 -60 -1t-50 -1q-7 28 -7 67q44 6 67 17l132 175l-117 143q-22 10 -70 17q0 39 7 67q12 0 49.5 -1t62.5 -1q13 0 31 0.5t51.5 1t70.5 0.5q8 -29 5 -67z" />
    <glyph glyph-name="y" unicode="y" horiz-adv-x="586" 
d="M225 0l-150 401q-23 11 -67 17q0 39 7 67q13 0 50 -1t61 -1q8 0 60.5 1t100.5 1q8 -29 5 -67l-59 -18l67 -200v-90h4l95 290l-65 18q0 43 9 67q18 0 64 -1t77 -1q24 0 88 2q9 -32 6 -67q-25 -12 -64 -17l-141 -392q-46 -128 -94.5 -197.5t-113.5 -69.5q-80 0 -124 22
q-6 43 22 77h15q137 0 177 118l14 41h-44z" />
    <glyph glyph-name="z" unicode="z" horiz-adv-x="521" 
d="M47 473l11 12q59 -2 224 -2h165q27 -44 27 -86l-278 -314h174q16 42 32 109q42 5 86 -4q2 -68 -8 -177l-12 -12q-61 2 -233 2h-183q-21 40 -21 97l266 303h-146q-8 -36 -15 -94q-44 -10 -81 0q-8 63 -8 166z" />
    <glyph glyph-name="braceleft" unicode="{" horiz-adv-x="454" 
d="M301 423q0 -45 -106 -95q106 -40 106 -94v-213q0 -23 6 -58.5t12 -43.5q24 -33 111 -73q13 -47 -31 -76q-106 23 -172 75.5t-66 134.5q0 20 4.5 89.5t4.5 97.5q0 34 -6 40q-45 46 -101 73q-10 36 -10 76q78 42 111 72q6 6 6 43q0 30 -4.5 105.5t-4.5 94.5
q0 79 66.5 129.5t172.5 71.5q31 -24 31 -70q-86 -42 -112 -75q-6 -8 -12 -45t-6 -60v-199z" />
    <glyph glyph-name="bar" unicode="|" horiz-adv-x="309" 
d="M97 -208v1058h115v-1058h-115z" />
    <glyph glyph-name="braceright" unicode="}" horiz-adv-x="454" 
d="M153 219q0 26 27 48.5t78 46.5q-47 18 -76 42.5t-29 51.5v213q0 23 -6 58.5t-12 43.5q-24 33 -111 73q-13 47 31 76q106 -23 172 -75.5t66 -134.5q0 -20 -4.5 -89.5t-4.5 -97.5q0 -34 6 -40q45 -46 101 -73q10 -36 10 -76q-78 -42 -111 -72q-6 -6 -6 -43
q0 -30 4.5 -105.5t4.5 -94.5q0 -79 -66.5 -129.5t-172.5 -71.5q-31 24 -31 70q86 42 112 75q6 8 12 45t6 60v199z" />
    <glyph glyph-name="asciitilde" unicode="~" horiz-adv-x="508" 
d="M345 165q-35 0 -94.5 28t-90.5 28q-42 0 -96 -42q-35 23 -38 62q32 38 74.5 68t72.5 30q35 0 94.5 -28t90.5 -28q42 0 96 42q35 -23 38 -62q-32 -38 -74.5 -68t-72.5 -30z" />
    <glyph glyph-name="uni00A0" unicode="&#xa0;" horiz-adv-x="205" 
 />
    <glyph glyph-name="exclamdown" unicode="&#xa1;" horiz-adv-x="306" 
d="M105 293q28 5 50 5q21 0 41 -5q46 -234 46 -380q0 -59 -7 -93q-42 -8 -81 -8q-46 0 -85 8q-5 37 -5 90q0 131 41 383zM234 421q0 -30 -23.5 -50.5t-57.5 -20.5q-33 0 -56 20.5t-23 50.5q0 31 23 54t56 23q34 0 57.5 -23t23.5 -54z" />
    <glyph glyph-name="cent" unicode="&#xa2;" horiz-adv-x="483" 
d="M236 -79v78q-100 7 -150.5 74.5t-50.5 172.5q0 88 55 163.5t146 92.5v75q33 14 75 0v-71q77 -5 146 -37q-4 -105 -29 -157q-49 -14 -81 4q0 52 -5 89l-12 1q-12 2 -19 3v-305q45 1 124 34q22 -20 26 -62q-64 -54 -150 -72v-83q-43 -12 -75 0zM177 273q0 -106 59 -149v281
q-17 -6 -20 -10q-39 -42 -39 -122z" />
    <glyph glyph-name="sterling" unicode="&#xa3;" horiz-adv-x="527" 
d="M202 1h-176q-16 48 -13 109q52 7 73 48.5t25 124.5h-72q-14 42 0 87h73q7 122 66.5 201.5t145.5 79.5q90 0 169 -27q0 -112 -22 -191q-51 -10 -83 2q-3 51 -12 103q-21 6 -55 6q-16 0 -32 -6.5t-21 -13.5q-19 -33 -23 -154h108q16 -41 0 -87h-110q-12 -113 -88 -168h213
q19 52 33 116q42 5 86 -9q5 -117 -13 -211l-12 -12q-67 2 -260 2z" />
    <glyph glyph-name="currency" unicode="&#xa4;" horiz-adv-x="550" 
d="M345 351q0 30 -20 51t-50 21t-50 -21t-20 -51q0 -31 20 -52t50 -21t50 21t20 52zM275 182q-41 0 -80 23l-70 -53q-28 10 -46 47l52 70q-25 37 -25 82q0 41 23 80l-53 70q10 28 47 46l70 -52q38 25 82 25q41 0 80 -23l70 53q28 -10 46 -47l-52 -70q25 -37 25 -82
q0 -41 -23 -80l53 -70q-10 -28 -47 -46l-70 52q-37 -25 -82 -25z" />
    <glyph glyph-name="yen" unicode="&#xa5;" horiz-adv-x="542" 
d="M83 385h96l-102 163q-31 14 -63 18q0 39 7 71q17 0 60 -0.5t65 -0.5q83 0 119 1q8 -35 5 -69l-60 -16l87 -150l90 150l-62 16q-3 35 3 69q14 0 49 -0.5t51 -0.5q69 0 95 1q5 -26 5 -69q-25 -11 -61 -18l-101 -165h104q11 -29 0 -69h-127v-60h127q11 -29 0 -68h-127v-23
q0 -46 4 -79q62 -5 108 -18q1 -36 -6 -69q-47 2 -175 2q-36 0 -95 -1t-81 -1q-9 26 -9 69q46 4 114 18q5 23 5 56v46h-125q-10 34 0 68h125v60h-125q-10 34 0 69z" />
    <glyph glyph-name="brokenbar" unicode="&#xa6;" horiz-adv-x="305" 
d="M95 -208v457h115v-457h-115zM95 393v457h115v-457h-115z" />
    <glyph glyph-name="section" unicode="&#xa7;" horiz-adv-x="484" 
d="M464 290q0 -89 -98 -165q57 -48 57 -111q0 -78 -62.5 -118t-140.5 -40q-94 0 -172 27q1 95 19 154q45 11 79 -4q2 -47 7 -83q30 -12 76 -12q37 0 48 11q17 16 17 44t-28 51.5t-68.5 41.5t-81 38.5t-68.5 53t-28 73.5q0 89 97 165q-56 46 -56 111q0 78 62.5 118t140.5 40
q94 0 172 -27q-1 -95 -19 -154q-45 -11 -79 4q-2 47 -7 83q-30 12 -76 12q-37 0 -48 -11q-17 -16 -17 -44t28 -51.5t68.5 -41.5t81 -38.5t68.5 -53t28 -73.5zM337 256q0 15 -8 28t-26 25.5t-33.5 21t-44 22t-43.5 21.5q-35 -47 -35 -89q0 -15 8 -28.5t26.5 -26t33 -20.5
t44 -22.5l43.5 -21.5q35 47 35 90z" />
    <glyph glyph-name="dieresis" unicode="&#xa8;" horiz-adv-x="415" 
d="M95 553q-28 0 -49.5 19t-21.5 45q0 35 24 64.5t60 29.5q27 0 49 -19.5t22 -46.5q0 -35 -24.5 -63t-59.5 -29zM306 553q-26 0 -48.5 19t-22.5 45q0 34 25 64t59 30q28 0 49.5 -19.5t21.5 -46.5q0 -36 -24 -63.5t-60 -28.5z" />
    <glyph glyph-name="copyright" unicode="&#xa9;" horiz-adv-x="745" 
d="M413 428q-13 4 -47 4q-30 0 -38 -5q-5 -3 -11 -12t-12.5 -29.5t-6.5 -45.5q0 -56 23 -87.5t63 -31.5q23 0 38 5q3 36 7 61q34 11 74 6q9 -48 9 -134q-58 -25 -135 -25q-97 0 -149 52.5t-52 133.5q0 76 56.5 137.5t155.5 61.5q72 0 115 -20q0 -87 -13 -131q-36 -6 -71 6
q0 5 -6 54zM25 323q0 145 101 246.5t246 101.5t246.5 -101.5t101.5 -246.5t-101.5 -246.5t-246.5 -101.5t-246 101.5t-101 246.5zM111 323q0 -111 75.5 -189.5t185.5 -78.5q111 0 186.5 78t75.5 190q0 111 -76 189.5t-186 78.5t-185.5 -78t-75.5 -190z" />
    <glyph glyph-name="ordfeminine" unicode="&#xaa;" horiz-adv-x="389" 
d="M41 390q0 42 56 74t128 50q-3 49 -33 49t-42 -2q-6 -13 -6 -32q-31 -17 -66 -14q-22 25 -25 73q72 39 168 39q20 0 39.5 -4t41 -14t34.5 -31.5t13 -51.5v-136q24 3 44 7q16 -11 16 -31q-51 -53 -113 -53q-32 0 -53 32q-55 -34 -114 -34q-88 0 -88 79zM193 386q15 0 33 9
v53q-50 -3 -54 -7q-11 -7 -11 -28q0 -11 9 -19t23 -8z" />
    <glyph glyph-name="guillemotleft" unicode="&#xab;" horiz-adv-x="620" 
d="M316 439l-126 -184l131 -180q-20 -39 -66 -56l-213 202q-3 32 7 65l209 200q36 -13 58 -47zM575 439l-126 -184l131 -180q-20 -39 -66 -56l-213 202q-3 32 7 65l209 200q36 -13 58 -47z" />
    <glyph glyph-name="logicalnot" unicode="&#xac;" horiz-adv-x="550" 
d="M491 314v-314q-52 -15 -98 0v216h-343q-18 49 0 98h441z" />
    <glyph glyph-name="uni00AD" unicode="&#xad;" horiz-adv-x="382" 
d="M317 204l-253 -4q-9 49 2 101l249 5q12 -53 2 -102z" />
    <glyph glyph-name="registered" unicode="&#xae;" horiz-adv-x="532" 
d="M85 532q0 -76 52.5 -128.5t128.5 -52.5q75 0 128 52.5t53 128.5q0 75 -53 128t-128 53q-76 0 -128.5 -53t-52.5 -128zM8 532q0 105 76 178.5t182 73.5t182 -74t76 -178q0 -105 -76 -178.5t-182 -73.5t-182 73.5t-76 178.5zM159 662l134 1q37 0 57 -20.5t20 -49.5
q0 -40 -47 -67q8 -17 14 -27t16.5 -19.5t22.5 -9.5q7 0 17 2q11 -17 11 -37q-28 -17 -73 -17q-17 0 -36.5 29.5t-28.5 61.5l-17 2v-38l18 -9q3 -24 -2 -40h-105q-7 15 -5 39l31 8v139l-31 8q-2 28 4 44zM267 609h-17v-51h10q34 0 34 27q0 10 -7.5 17t-19.5 7z" />
    <glyph glyph-name="macron" unicode="&#xaf;" horiz-adv-x="415" 
d="M61 670h292q20 -50 0 -101h-292q-20 53 0 101z" />
    <glyph glyph-name="degree" unicode="&#xb0;" horiz-adv-x="364" 
d="M33 520q0 62 43.5 105.5t105.5 43.5t105.5 -43.5t43.5 -105.5t-43.5 -105.5t-105.5 -43.5t-105.5 43.5t-43.5 105.5zM107 520q0 -32 22 -54.5t53 -22.5t53 22.5t22 54.5t-22 54.5t-53 22.5t-53 -22.5t-22 -54.5z" />
    <glyph glyph-name="plusminus" unicode="&#xb1;" horiz-adv-x="550" 
d="M323 518v-138h149q17 -49 0 -98h-149v-136q-47 -19 -98 0v136h-145q-19 47 0 98h145v138q49 17 98 0zM472 0h-392q-19 47 0 98h392q17 -49 0 -98z" />
    <glyph glyph-name="twosuperior" unicode="&#xb2;" horiz-adv-x="390" 
d="M202 794q61 0 99.5 -34.5t38.5 -74.5q0 -45 -36 -86t-95 -69l-57 -27h185q11 -38 0 -80l-10 -10q-50 2 -188 2h-84q-15 36 -15 94q173 97 173 150q0 22 -9.5 36.5t-26.5 14.5q-11 0 -23 -2q-11 -30 -15 -78q-31 -7 -69 0q-19 50 -20 130q74 34 152 34z" />
    <glyph glyph-name="threesuperior" unicode="&#xb3;" horiz-adv-x="392" 
d="M338 703q0 -51 -59 -76q77 -22 77 -95q0 -48 -49.5 -87t-127.5 -39q-75 0 -138 19q0 80 13 133q30 6 63 3q7 -43 17 -69q11 -3 35 -3q38 0 50 8q14 9 14 28q0 18 -16.5 29t-39.5 11q-13 0 -20 -1l-10 10q-2 38 14 73q28 0 41 9.5t13 22.5q0 14 -12 22.5t-31 8.5
q-17 0 -33 -2q-12 -23 -14 -59q-32 -7 -66 0q-20 42 -20 111q72 34 156 34q59 0 101 -26t42 -65z" />
    <glyph glyph-name="acute" unicode="&#xb4;" horiz-adv-x="415" 
d="M138 574l95 167q61 13 143 13l11 -29l-196 -194q-39 3 -53 43z" />
    <glyph glyph-name="uni00B5" unicode="&#xb5;" horiz-adv-x="634" 
d="M452 130l-4 1q-22 -68 -62 -105t-90 -37q-82 0 -111 113l-5 -1l28 -344q-33 -10 -78 -10q-44 0 -75 10q3 133 3 401q0 233 -5 320q31 10 75 10q42 0 73 -10v-203q0 -65 22 -109t54 -44q39 0 63 55.5t24 142.5v158q33 10 78 10t78 -10q-13 -94 -13 -181q0 -96 19 -172
q43 5 74 13q30 -32 34 -83q-24 -29 -59 -49t-65 -20t-45.5 44t-12.5 100z" />
    <glyph glyph-name="paragraph" unicode="&#xb6;" horiz-adv-x="583" 
d="M307 -84q11 8 21.5 49t10.5 105v115q-43 -8 -90 -8q-40 0 -81.5 15.5t-78 44t-59.5 75t-23 102.5q0 109 89 183.5t210 74.5q21 0 67 -1.5t74 -1.5q90 0 119 2q8 -32 6 -70q-40 -15 -81 -19q-4 -48 -4 -133v-362q0 -89 -45.5 -161t-112 -108.5t-136.5 -36.5q-94 0 -141 34
q1 66 49 123l18 6q45 -47 105 -47q56 0 83 19zM224 449q0 -70 33.5 -118.5t79.5 -48.5h2v304h-24q-39 0 -60 -16q-11 -9 -21 -41.5t-10 -79.5z" />
    <glyph glyph-name="periodcentered" unicode="&#xb7;" horiz-adv-x="300" 
d="M140 151q-29 0 -54.5 21.5t-25.5 50.5q0 36 28 70.5t65 34.5q31 0 56 -20.5t25 -52.5q0 -38 -28 -71t-66 -33z" />
    <glyph glyph-name="cedilla" unicode="&#xb8;" horiz-adv-x="415" 
d="M240 20l-23 -60q50 -1 78.5 -22t28.5 -57q0 -58 -56.5 -104t-136.5 -61q-25 27 -21 61q92 36 92 81q0 18 -14.5 30t-41.5 10l-12 12l49 110h57z" />
    <glyph glyph-name="onesuperior" unicode="&#xb9;" horiz-adv-x="340" 
d="M110 481q3 19 3 40v191h-65q-10 23 -7 54q90 28 185 30l10 -11v-252q0 -18 2 -52q36 -3 66 -12q0 -32 -5 -56q-21 2 -127 2q-36 0 -75 -1t-52 -1q-5 24 -5 57q31 1 70 11z" />
    <glyph glyph-name="ordmasculine" unicode="&#xba;" horiz-adv-x="379" 
d="M215 627q82 0 124.5 -42t42.5 -111q0 -61 -48.5 -111t-128.5 -50q-82 0 -125 41.5t-43 110.5q0 62 49 112t129 50zM213 385q20 0 27 8q18 25 18 68q0 35 -13.5 64t-38.5 29q-20 0 -25 -8q-19 -29 -19 -68q0 -35 13 -64t38 -29z" />
    <glyph glyph-name="guillemotright" unicode="&#xbb;" horiz-adv-x="620" 
d="M45 65l126 184l-131 180q20 39 66 56l213 -202q3 -32 -7 -65l-209 -200q-36 13 -58 47zM304 65l126 184l-131 180q20 39 66 56l213 -202q3 -32 -7 -65l-209 -200q-36 13 -58 47z" />
    <glyph glyph-name="onequarter" unicode="&#xbc;" horiz-adv-x="920" 
d="M135 389q3 20 3 40v191h-65q-10 23 -7 54q90 28 185 30l10 -11v-252q0 -18 2 -52q36 -3 66 -12q0 -32 -5 -56q-21 2 -127 2q-36 0 -75 -1t-52 -1q-5 24 -5 57q31 1 70 11zM213 29l419 664q42 -11 67 -46l-419 -661q-46 15 -67 43zM728 17l-10 10v89h-141q-21 29 -18 72
l163 213q61 0 114 -21v-194l63 -5q3 -34 -4 -65h-59v-85q-46 -14 -108 -14zM718 289l-76 -105h76v105z" />
    <glyph glyph-name="onehalf" unicode="&#xbd;" horiz-adv-x="920" 
d="M135 389q3 20 3 40v191h-65q-10 23 -7 54q90 28 185 30l10 -11v-252q0 -18 2 -52q36 -3 66 -12q0 -32 -5 -56q-21 2 -127 2q-36 0 -75 -1t-52 -1q-5 24 -5 57q31 1 70 11zM213 29l419 664q42 -11 67 -46l-419 -661q-46 15 -67 43zM732 404q61 0 99.5 -34.5t38.5 -74.5
q0 -45 -36 -86t-95 -69l-57 -27h185q11 -38 0 -80l-10 -10q-50 2 -188 2h-84q-15 36 -15 94q173 97 173 150q0 22 -9.5 36.5t-26.5 14.5q-11 0 -23 -2q-11 -30 -15 -78q-31 -7 -69 0q-19 50 -20 130q74 34 152 34z" />
    <glyph glyph-name="threequarters" unicode="&#xbe;" horiz-adv-x="920" 
d="M337 611q0 -51 -59 -76q77 -22 77 -95q0 -48 -49.5 -87t-127.5 -39q-75 0 -138 19q0 80 13 133q30 6 63 3q7 -43 17 -69q11 -3 35 -3q38 0 50 8q14 9 14 28q0 18 -16.5 29t-39.5 11q-13 0 -20 -1l-10 10q-2 38 14 73q28 0 41 9.5t13 22.5q0 14 -12 22.5t-31 8.5
q-17 0 -33 -2q-12 -23 -14 -59q-32 -7 -66 0q-20 42 -20 111q72 34 156 34q59 0 101 -26t42 -65zM213 29l419 664q42 -11 67 -46l-419 -661q-46 15 -67 43zM728 17l-10 10v89h-141q-21 29 -18 72l163 213q61 0 114 -21v-194l63 -5q3 -34 -4 -65h-59v-85q-46 -14 -108 -14z
M718 289l-76 -105h76v105z" />
    <glyph glyph-name="questiondown" unicode="&#xbf;" horiz-adv-x="430" 
d="M299 4q46 13 87 5q17 -72 17 -162q-28 -19 -82.5 -33.5t-107.5 -14.5q-102 0 -154 48t-52 126q0 44 21.5 81.5t47.5 58l56.5 44t40.5 38.5q12 16 12 86q45 24 118 13q17 -51 17 -95q0 -20 -25 -43.5t-55 -42.5t-55 -47.5t-25 -56.5q0 -44 27 -78t67 -34q14 0 29 3
q12 51 16 104zM322 421q0 -30 -23.5 -50.5t-57.5 -20.5q-33 0 -56 20.5t-23 50.5q0 31 23 54t56 23q34 0 57.5 -23t23.5 -54z" />
    <glyph glyph-name="Agrave" unicode="&#xc0;" horiz-adv-x="717" 
d="M482 86l-38 105q-85 5 -149 5h-67l-38 -110l89 -17q1 -37 -6 -70q-41 2 -140 2q-27 0 -66.5 -1t-53.5 -1q-8 31 -8 70q34 4 80 19l205 570q60 17 135 17l214 -587q38 -4 74 -19q1 -37 -6 -70q-37 2 -150 2q-33 0 -87 -1t-75 -1q-8 31 -8 70zM348 545l-91 -264h155
l-58 161l-2 103h-4zM262 932l192 -144q0 -44 -36 -64l-228 95l-6 25q17 60 78 88z" />
    <glyph glyph-name="Aacute" unicode="&#xc1;" horiz-adv-x="717" 
d="M482 86l-38 105q-85 5 -149 5h-67l-38 -110l89 -17q1 -37 -6 -70q-41 2 -140 2q-27 0 -66.5 -1t-53.5 -1q-8 31 -8 70q34 4 80 19l205 570q60 17 135 17l214 -587q38 -4 74 -19q1 -37 -6 -70q-37 2 -150 2q-33 0 -87 -1t-75 -1q-8 31 -8 70zM348 545l-91 -264h155
l-58 161l-2 103h-4zM264 786l200 137q60 -31 74 -95l-7 -25l-233 -82q-27 25 -34 65z" />
    <glyph glyph-name="Acircumflex" unicode="&#xc2;" horiz-adv-x="717" 
d="M482 86l-38 105q-85 5 -149 5h-67l-38 -110l89 -17q1 -37 -6 -70q-41 2 -140 2q-27 0 -66.5 -1t-53.5 -1q-8 31 -8 70q34 4 80 19l205 570q60 17 135 17l214 -587q38 -4 74 -19q1 -37 -6 -70q-37 2 -150 2q-33 0 -87 -1t-75 -1q-8 31 -8 70zM348 545l-91 -264h155
l-58 161l-2 103h-4zM495 714l-135 80l-133 -80q-34 21 -44 56l137 130q35 7 79 7l144 -133q-15 -38 -48 -60z" />
    <glyph glyph-name="uni00C3" unicode="&#xc3;" horiz-adv-x="717" 
d="M482 86l-38 105q-85 5 -149 5h-67l-38 -110l89 -17q1 -37 -6 -70q-41 2 -140 2q-27 0 -66.5 -1t-53.5 -1q-8 31 -8 70q34 4 80 19l205 570q60 17 135 17l214 -587q38 -4 74 -19q1 -37 -6 -70q-37 2 -150 2q-33 0 -87 -1t-75 -1q-8 31 -8 70zM348 545l-91 -264h155
l-58 161l-2 103h-4zM232 744q-37 13 -47 45q24 44 59 71t67 27q25 0 65 -26t55 -26q25 0 64 41q34 -12 48 -43q-25 -44 -60.5 -72t-68.5 -28q-24 0 -65 26t-53 26q-25 0 -64 -41z" />
    <glyph glyph-name="Adieresis" unicode="&#xc4;" horiz-adv-x="717" 
d="M482 86l-38 105q-85 5 -149 5h-67l-38 -110l89 -17q1 -37 -6 -70q-41 2 -140 2q-27 0 -66.5 -1t-53.5 -1q-8 31 -8 70q34 4 80 19l205 570q60 17 135 17l214 -587q38 -4 74 -19q1 -37 -6 -70q-37 2 -150 2q-33 0 -87 -1t-75 -1q-8 31 -8 70zM348 545l-91 -264h155
l-58 161l-2 103h-4zM253 738q-27 0 -48.5 18t-21.5 44q0 34 24 63t58 29q26 0 46.5 -18.5t20.5 -45.5q0 -34 -23 -61.5t-56 -28.5zM463 738q-25 0 -46.5 18.5t-21.5 43.5q0 34 23.5 63t56.5 29q28 0 49 -18.5t21 -45.5q0 -35 -23.5 -62t-58.5 -28z" />
    <glyph glyph-name="Aring" unicode="&#xc5;" horiz-adv-x="717" 
d="M482 86l-38 105q-85 5 -149 5h-67l-38 -110l89 -17q1 -37 -6 -70q-41 2 -140 2q-27 0 -66.5 -1t-53.5 -1q-8 31 -8 70q34 4 80 19l205 570q60 17 135 17l214 -587q38 -4 74 -19q1 -37 -6 -70q-37 2 -150 2q-33 0 -87 -1t-75 -1q-8 31 -8 70zM348 545l-91 -264h155
l-58 161l-2 103h-4zM365 782q13 0 29 8q10 10 10 29q0 16 -12.5 29t-28.5 13q-17 0 -29 -8q-10 -7 -10 -28q0 -16 12.5 -29.5t28.5 -13.5zM358 708q-118 0 -118 112q0 42 40 78.5t90 36.5q118 0 118 -112q0 -42 -40 -78.5t-90 -36.5z" />
    <glyph glyph-name="AE" unicode="&#xc6;" horiz-adv-x="915" 
d="M189 86l89 -17q1 -37 -6 -70q-41 2 -140 2q-27 0 -66.5 -1t-53.5 -1q-8 31 -8 70q35 4 80 19l215 489l-87 24q0 39 8 70q21 0 63 -1t64 -1h282q173 0 235 2l12 -13q3 -121 -13 -195q-51 -9 -89 0q-5 59 -15 110h-178v-206l178 3l12 -12q-2 -52 -11 -82l-179 3v-182h191
q19 52 36 123q42 6 87 -7q0 -85 -11 -201l-12 -13q-62 2 -235 2h-129q-34 0 -87 -1t-72 -1q-8 31 -8 70q39 4 87 19q5 24 5 61v131h-159zM402 573l-91 -207h122v207h-31z" />
    <glyph glyph-name="Ccedilla" unicode="&#xc7;" horiz-adv-x="600" 
d="M448 568q-33 6 -93 6q-78 0 -105 -21q-9 -7 -23.5 -29t-29 -67t-14.5 -94q0 -120 49.5 -193.5t147.5 -73.5q46 0 82 9q8 62 13 121q45 14 89 7q15 -80 15 -209q-104 -38 -213 -39l-9 -25q50 -1 78.5 -22t28.5 -57q0 -58 -56.5 -104t-136.5 -61q-25 27 -21 61q92 36 92 81
q0 18 -14.5 30t-41.5 10l-12 12l34 78q-92 10 -156.5 57.5t-94.5 118.5t-30 159q0 65 22.5 128.5t64.5 116t110 85t151 32.5q116 0 194 -31q0 -122 -23 -202q-42 -7 -85 7q-2 45 -13 109z" />
    <glyph glyph-name="Egrave" unicode="&#xc8;" horiz-adv-x="590" 
d="M181 669h123q173 0 235 2l12 -13q3 -121 -13 -195q-51 -9 -89 0q-5 59 -15 110h-178v-186l178 6l12 -12q-2 -58 -11 -88l-179 5v-201h191q19 52 36 123q42 6 87 -7q0 -85 -11 -201l-12 -13q-62 2 -235 2h-129q-34 0 -87 -1t-72 -1q-8 31 -8 70q39 4 87 19q5 24 5 61v295
q0 75 -5 138q-48 15 -87 19q0 39 8 70q19 0 71 -1t86 -1zM210 932l192 -144q0 -44 -36 -64l-228 95l-6 25q17 60 78 88z" />
    <glyph glyph-name="Eacute" unicode="&#xc9;" horiz-adv-x="590" 
d="M181 669h123q173 0 235 2l12 -13q3 -121 -13 -195q-51 -9 -89 0q-5 59 -15 110h-178v-186l178 6l12 -12q-2 -58 -11 -88l-179 5v-201h191q19 52 36 123q42 6 87 -7q0 -85 -11 -201l-12 -13q-62 2 -235 2h-129q-34 0 -87 -1t-72 -1q-8 31 -8 70q39 4 87 19q5 24 5 61v295
q0 75 -5 138q-48 15 -87 19q0 39 8 70q19 0 71 -1t86 -1zM212 786l200 137q60 -31 74 -95l-7 -25l-233 -82q-27 25 -34 65z" />
    <glyph glyph-name="Ecircumflex" unicode="&#xca;" horiz-adv-x="590" 
d="M181 669h123q173 0 235 2l12 -13q3 -121 -13 -195q-51 -9 -89 0q-5 59 -15 110h-178v-186l178 6l12 -12q-2 -58 -11 -88l-179 5v-201h191q19 52 36 123q42 6 87 -7q0 -85 -11 -201l-12 -13q-62 2 -235 2h-129q-34 0 -87 -1t-72 -1q-8 31 -8 70q39 4 87 19q5 24 5 61v295
q0 75 -5 138q-48 15 -87 19q0 39 8 70q19 0 71 -1t86 -1zM443 714l-135 80l-133 -80q-34 21 -44 56l137 130q35 7 79 7l144 -133q-15 -38 -48 -60z" />
    <glyph glyph-name="Edieresis" unicode="&#xcb;" horiz-adv-x="590" 
d="M181 669h123q173 0 235 2l12 -13q3 -121 -13 -195q-51 -9 -89 0q-5 59 -15 110h-178v-186l178 6l12 -12q-2 -58 -11 -88l-179 5v-201h191q19 52 36 123q42 6 87 -7q0 -85 -11 -201l-12 -13q-62 2 -235 2h-129q-34 0 -87 -1t-72 -1q-8 31 -8 70q39 4 87 19q5 24 5 61v295
q0 75 -5 138q-48 15 -87 19q0 39 8 70q19 0 71 -1t86 -1zM201 738q-27 0 -48.5 18t-21.5 44q0 34 24 63t58 29q26 0 46.5 -18.5t20.5 -45.5q0 -34 -23 -61.5t-56 -28.5zM411 738q-25 0 -46.5 18.5t-21.5 43.5q0 34 23.5 63t56.5 29q28 0 49 -18.5t21 -45.5q0 -35 -23.5 -62
t-58.5 -28z" />
    <glyph glyph-name="Igrave" unicode="&#xcc;" horiz-adv-x="362" 
d="M103 582q-48 15 -87 19q0 39 8 70q19 0 71 -1t86 -1q115 0 154 2q7 -33 6 -70q-40 -15 -81 -19q-4 -49 -4 -138v-273q0 -48 4 -83q41 -4 81 -19q1 -37 -6 -70q-39 2 -154 2q-34 0 -86 -1t-71 -1q-8 31 -8 70q39 4 87 19q5 24 5 61v295q0 76 -5 138zM80 932l192 -144
q0 -44 -36 -64l-228 95l-6 25q17 60 78 88z" />
    <glyph glyph-name="Iacute" unicode="&#xcd;" horiz-adv-x="362" 
d="M103 582q-48 15 -87 19q0 39 8 70q19 0 71 -1t86 -1q115 0 154 2q7 -33 6 -70q-40 -15 -81 -19q-4 -49 -4 -138v-273q0 -48 4 -83q41 -4 81 -19q1 -37 -6 -70q-39 2 -154 2q-34 0 -86 -1t-71 -1q-8 31 -8 70q39 4 87 19q5 24 5 61v295q0 76 -5 138zM82 786l200 137
q60 -31 74 -95l-7 -25l-233 -82q-27 25 -34 65z" />
    <glyph glyph-name="Icircumflex" unicode="&#xce;" horiz-adv-x="362" 
d="M103 582q-48 15 -87 19q0 39 8 70q19 0 71 -1t86 -1q115 0 154 2q7 -33 6 -70q-40 -15 -81 -19q-4 -49 -4 -138v-273q0 -48 4 -83q41 -4 81 -19q1 -37 -6 -70q-39 2 -154 2q-34 0 -86 -1t-71 -1q-8 31 -8 70q39 4 87 19q5 24 5 61v295q0 76 -5 138zM313 714l-135 80
l-133 -80q-34 21 -44 56l137 130q35 7 79 7l144 -133q-15 -38 -48 -60z" />
    <glyph glyph-name="Idieresis" unicode="&#xcf;" horiz-adv-x="362" 
d="M103 582q-48 15 -87 19q0 39 8 70q19 0 71 -1t86 -1q115 0 154 2q7 -33 6 -70q-40 -15 -81 -19q-4 -49 -4 -138v-273q0 -48 4 -83q41 -4 81 -19q1 -37 -6 -70q-39 2 -154 2q-34 0 -86 -1t-71 -1q-8 31 -8 70q39 4 87 19q5 24 5 61v295q0 76 -5 138zM71 738
q-27 0 -48.5 18t-21.5 44q0 34 24 63t58 29q26 0 46.5 -18.5t20.5 -45.5q0 -34 -23 -61.5t-56 -28.5zM281 738q-25 0 -46.5 18.5t-21.5 43.5q0 34 23.5 63t56.5 29q28 0 49 -18.5t21 -45.5q0 -35 -23.5 -62t-58.5 -28z" />
    <glyph glyph-name="Eth" unicode="&#xd0;" horiz-adv-x="699" 
d="M183 1q-34 0 -86 -1t-71 -1q-8 31 -8 70q39 4 87 19q5 24 5 61v151h-84q-14 42 0 82h84v62q0 76 -5 138q-48 15 -87 19q0 39 8 70q19 0 71 -1t86 -1q33 0 105 2.5t106 2.5q131 0 204.5 -91.5t73.5 -238.5q0 -137 -92 -242.5t-230 -105.5q-23 0 -77.5 2.5t-89.5 2.5z
M365 300h-107v-205h84q32 0 66 7.5t46 17.5q62 52 62 186q0 69 -18.5 129t-59.5 101t-97 41q-29 0 -83 -2v-193h107q13 -41 0 -82z" />
    <glyph glyph-name="Ntilde" unicode="&#xd1;" horiz-adv-x="748" 
d="M652 12q-71 -17 -166 -17l-244 432l-23 110h-4v-366q0 -48 4 -83q41 -4 81 -19q1 -37 -6 -70q-39 2 -135 2q-23 0 -68.5 -1t-66.5 -1q-8 31 -8 70q39 4 87 19q5 24 5 61v295q0 76 -5 138q-48 15 -87 19q0 39 8 70q20 0 69 -1t76 -1q77 0 111 -4l236 -416l25 -110h4v305
q0 76 -5 138q-48 15 -87 19q0 39 8 70q21 0 68 -1t70 -1q94 0 132 2q7 -33 6 -70q-40 -15 -81 -19q-4 -49 -4 -138v-432zM259 744q-37 13 -47 45q24 44 59 71t67 27q25 0 65 -26t55 -26q25 0 64 41q34 -12 48 -43q-25 -44 -60.5 -72t-68.5 -28q-25 0 -65 26t-53 26
q-25 0 -64 -41z" />
    <glyph glyph-name="Ograve" unicode="&#xd2;" horiz-adv-x="694" 
d="M337 -18q-147 0 -228.5 96t-81.5 245q0 89 39 171.5t116.5 138t174.5 55.5q146 0 228 -96t82 -245q0 -89 -39 -171.5t-116.5 -138t-174.5 -55.5zM365 93q27 0 54.5 9.5t35.5 19.5q56 66 56 185q0 117 -45 193.5t-137 76.5q-27 0 -54.5 -9.5t-35.5 -19.5q-56 -66 -56 -185
q0 -117 45 -193.5t137 -76.5zM247 932l192 -144q0 -44 -36 -64l-228 95l-6 25q17 60 78 88z" />
    <glyph glyph-name="Oacute" unicode="&#xd3;" horiz-adv-x="694" 
d="M337 -18q-147 0 -228.5 96t-81.5 245q0 89 39 171.5t116.5 138t174.5 55.5q146 0 228 -96t82 -245q0 -89 -39 -171.5t-116.5 -138t-174.5 -55.5zM365 93q27 0 54.5 9.5t35.5 19.5q56 66 56 185q0 117 -45 193.5t-137 76.5q-27 0 -54.5 -9.5t-35.5 -19.5q-56 -66 -56 -185
q0 -117 45 -193.5t137 -76.5zM249 786l200 137q60 -31 74 -95l-7 -25l-233 -82q-27 25 -34 65z" />
    <glyph glyph-name="Ocircumflex" unicode="&#xd4;" horiz-adv-x="694" 
d="M337 -18q-147 0 -228.5 96t-81.5 245q0 89 39 171.5t116.5 138t174.5 55.5q146 0 228 -96t82 -245q0 -89 -39 -171.5t-116.5 -138t-174.5 -55.5zM365 93q27 0 54.5 9.5t35.5 19.5q56 66 56 185q0 117 -45 193.5t-137 76.5q-27 0 -54.5 -9.5t-35.5 -19.5q-56 -66 -56 -185
q0 -117 45 -193.5t137 -76.5zM480 714l-135 80l-133 -80q-34 21 -44 56l137 130q35 7 79 7l144 -133q-15 -38 -48 -60z" />
    <glyph glyph-name="uni00D5" unicode="&#xd5;" horiz-adv-x="694" 
d="M337 -18q-147 0 -228.5 96t-81.5 245q0 89 39 171.5t116.5 138t174.5 55.5q146 0 228 -96t82 -245q0 -89 -39 -171.5t-116.5 -138t-174.5 -55.5zM365 93q27 0 54.5 9.5t35.5 19.5q56 66 56 185q0 117 -45 193.5t-137 76.5q-27 0 -54.5 -9.5t-35.5 -19.5q-56 -66 -56 -185
q0 -117 45 -193.5t137 -76.5zM217 744q-37 13 -47 45q24 44 59 71t67 27q25 0 65 -26t55 -26q25 0 64 41q34 -12 48 -43q-25 -44 -60.5 -72t-68.5 -28q-25 0 -65 26t-53 26q-25 0 -64 -41z" />
    <glyph glyph-name="Odieresis" unicode="&#xd6;" horiz-adv-x="694" 
d="M337 -18q-147 0 -228.5 96t-81.5 245q0 89 39 171.5t116.5 138t174.5 55.5q146 0 228 -96t82 -245q0 -89 -39 -171.5t-116.5 -138t-174.5 -55.5zM365 93q27 0 54.5 9.5t35.5 19.5q56 66 56 185q0 117 -45 193.5t-137 76.5q-27 0 -54.5 -9.5t-35.5 -19.5q-56 -66 -56 -185
q0 -117 45 -193.5t137 -76.5zM238 738q-27 0 -48.5 18t-21.5 44q0 34 24 63t58 29q26 0 46.5 -18.5t20.5 -45.5q0 -34 -23 -61.5t-56 -28.5zM448 738q-25 0 -46.5 18.5t-21.5 43.5q0 34 23.5 63t56.5 29q28 0 49 -18.5t21 -45.5q0 -35 -23.5 -62t-58.5 -28z" />
    <glyph glyph-name="multiply" unicode="&#xd7;" horiz-adv-x="550" 
d="M153 454l121 -122l122 122q39 -25 69 -68l-122 -122l121 -121q-28 -42 -69 -68l-121 120l-120 -120q-38 23 -68 69l120 120l-121 121q27 43 68 69z" />
    <glyph glyph-name="Oslash" unicode="&#xd8;" horiz-adv-x="694" 
d="M96 -35l44 82q-113 93 -113 276q0 89 39 171.5t116.5 138t174.5 55.5q67 0 125 -24l45 82q47 -3 73 -36l-46 -88q113 -93 113 -275q0 -89 -39 -171.5t-116.5 -138t-174.5 -55.5q-69 0 -128 24l-45 -82q-45 9 -68 41zM365 93q27 0 54.5 9.5t35.5 19.5q56 66 56 185
q0 107 -37 178l-198 -366q37 -26 89 -26zM183 363q0 -109 36 -178l197 367q-37 25 -87 25q-27 0 -54.5 -9.5t-35.5 -19.5q-56 -66 -56 -185z" />
    <glyph glyph-name="Ugrave" unicode="&#xd9;" horiz-adv-x="712" 
d="M621 444v-167q0 -133 -67 -214t-212 -81q-122 0 -184.5 60t-62.5 192v210q0 76 -5 138q-48 15 -87 19q0 39 8 70q19 0 71 -1t86 -1q115 0 154 2q7 -33 6 -70q-40 -15 -81 -19q-4 -49 -4 -138v-162q0 -199 138 -199q30 0 57 10.5t37 22.5q34 41 34 134v194q0 76 -5 138
q-48 15 -87 19q0 39 8 70q21 0 67.5 -1t71.5 -1q97 0 136 2q7 -33 6 -70q-40 -15 -81 -19q-4 -49 -4 -138zM270 932l192 -144q0 -44 -36 -64l-228 95l-6 25q17 60 78 88z" />
    <glyph glyph-name="Uacute" unicode="&#xda;" horiz-adv-x="712" 
d="M621 444v-167q0 -133 -67 -214t-212 -81q-122 0 -184.5 60t-62.5 192v210q0 76 -5 138q-48 15 -87 19q0 39 8 70q19 0 71 -1t86 -1q115 0 154 2q7 -33 6 -70q-40 -15 -81 -19q-4 -49 -4 -138v-162q0 -199 138 -199q30 0 57 10.5t37 22.5q34 41 34 134v194q0 76 -5 138
q-48 15 -87 19q0 39 8 70q21 0 67.5 -1t71.5 -1q97 0 136 2q7 -33 6 -70q-40 -15 -81 -19q-4 -49 -4 -138zM272 786l200 137q60 -31 74 -95l-7 -25l-233 -82q-27 25 -34 65z" />
    <glyph glyph-name="Ucircumflex" unicode="&#xdb;" horiz-adv-x="712" 
d="M621 444v-167q0 -133 -67 -214t-212 -81q-122 0 -184.5 60t-62.5 192v210q0 76 -5 138q-48 15 -87 19q0 39 8 70q19 0 71 -1t86 -1q115 0 154 2q7 -33 6 -70q-40 -15 -81 -19q-4 -49 -4 -138v-162q0 -199 138 -199q30 0 57 10.5t37 22.5q34 41 34 134v194q0 76 -5 138
q-48 15 -87 19q0 39 8 70q21 0 67.5 -1t71.5 -1q97 0 136 2q7 -33 6 -70q-40 -15 -81 -19q-4 -49 -4 -138zM503 714l-135 80l-133 -80q-34 21 -44 56l137 130q35 7 79 7l144 -133q-15 -38 -48 -60z" />
    <glyph glyph-name="Udieresis" unicode="&#xdc;" horiz-adv-x="712" 
d="M621 444v-167q0 -133 -67 -214t-212 -81q-122 0 -184.5 60t-62.5 192v210q0 76 -5 138q-48 15 -87 19q0 39 8 70q19 0 71 -1t86 -1q115 0 154 2q7 -33 6 -70q-40 -15 -81 -19q-4 -49 -4 -138v-162q0 -199 138 -199q30 0 57 10.5t37 22.5q34 41 34 134v194q0 76 -5 138
q-48 15 -87 19q0 39 8 70q21 0 67.5 -1t71.5 -1q97 0 136 2q7 -33 6 -70q-40 -15 -81 -19q-4 -49 -4 -138zM261 738q-27 0 -48.5 18t-21.5 44q0 34 24 63t58 29q26 0 46.5 -18.5t20.5 -45.5q0 -34 -23 -61.5t-56 -28.5zM471 738q-25 0 -46.5 18.5t-21.5 43.5q0 34 23.5 63
t56.5 29q28 0 49 -18.5t21 -45.5q0 -35 -23.5 -62t-58.5 -28z" />
    <glyph glyph-name="Yacute" unicode="&#xdd;" horiz-adv-x="674" 
d="M594 582l-183 -336v-75q0 -48 4 -83q59 -4 113 -19q2 -39 -7 -70q-47 2 -185 2q-40 0 -102 -1t-85 -1q-10 29 -10 70q52 4 119 19q5 24 5 61v99l-180 332q-45 15 -80 19q0 40 8 72q21 0 76 -1t91 -1q118 0 159 2q7 -33 6 -70l-84 -17l114 -211l108 211l-90 17q0 35 6 70
q16 0 61 -1t75 -1q98 0 130 2q6 -35 5 -70q-36 -15 -74 -19zM265 786l200 137q60 -31 74 -95l-7 -25l-233 -82q-27 25 -34 65z" />
    <glyph glyph-name="Thorn" unicode="&#xde;" horiz-adv-x="591" 
d="M588 361q0 -78 -75 -151t-164 -73q-48 0 -93 9v-68q62 -4 117 -19q2 -39 -7 -70q-47 2 -185 2q-34 0 -86 -1t-71 -1q-8 31 -8 70q39 4 87 19q5 24 5 61v315q0 76 -5 138q-48 15 -87 19q0 39 8 70q19 0 71 -1t86 -1q139 0 186 2q7 -33 6 -70q-51 -14 -117 -20v-61
q70 9 138 9q100 0 147 -50t47 -128zM339 443q-48 0 -83 -5v-199q34 -2 60 -2q29 0 56 6.5t33 11.5q35 33 35 81q0 42 -25 74.5t-76 32.5z" />
    <glyph glyph-name="germandbls" unicode="&#xdf;" horiz-adv-x="695" 
d="M261 11l-12 -12q-22 2 -57 2q-37 0 -88 -1t-68 -1q-7 21 -7 67q45 5 80 17q4 29 4 56v254q-11 3 -71 13q-11 33 -5 66q32 10 76 15v6q0 122 68.5 197.5t171.5 75.5q108 0 169 -48t61 -134q0 -29 -16 -60t-35 -52.5t-35 -48t-16 -48.5q0 -21 21 -37.5t51 -30t60 -30.5
t51 -48t21 -74q0 -82 -56.5 -124t-148.5 -42q-108 0 -175 29q0 80 20 153q40 12 86 0q1 -35 9 -86q22 -11 62 -11q36 0 48 11t12 36q0 22 -15 35.5t-47 27.5q-35 15 -51 23.5t-40 27t-34 43.5t-10 60q0 45 27 90.5t54 77t27 42.5q0 52 -32.5 86.5t-79.5 34.5q-44 0 -54 -16
q-30 -47 -30 -162v-192q0 -155 4 -288z" />
    <glyph glyph-name="agrave" unicode="&#xe0;" horiz-adv-x="535" 
d="M29 112q0 38 25.5 72t68.5 58t86.5 40.5t91.5 28.5q-3 100 -61 100q-35 0 -60 -4q-8 -27 -8 -75q-46 -22 -88 -12q-33 47 -33 120q98 57 220 57q22 0 43 -3.5t46 -14t43 -27.5t30.5 -47.5t12.5 -70.5v-175q0 -25 2 -69q28 2 64 11q20 -15 20 -43q-29 -31 -68.5 -51.5
t-77.5 -20.5q-40 0 -67 62q-80 -62 -148 -62q-142 0 -142 126zM237 89q24 0 65 25v106q-92 -11 -107 -23q-19 -14 -19 -50q0 -24 16 -41t45 -17zM258 534l-172 183l7 24q53 31 129 29l99 -188q-17 -41 -63 -48z" />
    <glyph glyph-name="aacute" unicode="&#xe1;" horiz-adv-x="535" 
d="M29 112q0 38 25.5 72t68.5 58t86.5 40.5t91.5 28.5q-3 100 -61 100q-35 0 -60 -4q-8 -27 -8 -75q-46 -22 -88 -12q-33 47 -33 120q98 57 220 57q22 0 43 -3.5t46 -14t43 -27.5t30.5 -47.5t12.5 -70.5v-175q0 -25 2 -69q28 2 64 11q20 -15 20 -43q-29 -31 -68.5 -51.5
t-77.5 -20.5q-40 0 -67 62q-80 -62 -148 -62q-142 0 -142 126zM237 89q24 0 65 25v106q-92 -11 -107 -23q-19 -14 -19 -50q0 -24 16 -41t45 -17zM173 574l95 167q61 13 143 13l11 -29l-196 -194q-39 3 -53 43z" />
    <glyph glyph-name="acircumflex" unicode="&#xe2;" horiz-adv-x="535" 
d="M29 112q0 38 25.5 72t68.5 58t86.5 40.5t91.5 28.5q-3 100 -61 100q-35 0 -60 -4q-8 -27 -8 -75q-46 -22 -88 -12q-33 47 -33 120q98 57 220 57q22 0 43 -3.5t46 -14t43 -27.5t30.5 -47.5t12.5 -70.5v-175q0 -25 2 -69q28 2 64 11q20 -15 20 -43q-29 -31 -68.5 -51.5
t-77.5 -20.5q-40 0 -67 62q-80 -62 -148 -62q-142 0 -142 126zM237 89q24 0 65 25v106q-92 -11 -107 -23q-19 -14 -19 -50q0 -24 16 -41t45 -17zM346 528l-110 100l-104 -100q-36 9 -51 40l110 172q45 10 90 9l118 -177q-19 -30 -53 -44z" />
    <glyph glyph-name="uni00E3" unicode="&#xe3;" horiz-adv-x="535" 
d="M29 112q0 38 25.5 72t68.5 58t86.5 40.5t91.5 28.5q-3 100 -61 100q-35 0 -60 -4q-8 -27 -8 -75q-46 -22 -88 -12q-33 47 -33 120q98 57 220 57q22 0 43 -3.5t46 -14t43 -27.5t30.5 -47.5t12.5 -70.5v-175q0 -25 2 -69q28 2 64 11q20 -15 20 -43q-29 -31 -68.5 -51.5
t-77.5 -20.5q-40 0 -67 62q-80 -62 -148 -62q-142 0 -142 126zM237 89q24 0 65 25v106q-92 -11 -107 -23q-19 -14 -19 -50q0 -24 16 -41t45 -17zM106 565q-37 12 -49 46q24 45 60.5 73t69.5 28q26 0 67.5 -26.5t56.5 -26.5q26 0 66 42q34 -11 50 -44q-26 -46 -62.5 -74.5
t-70.5 -28.5q-26 0 -67.5 26.5t-54.5 26.5q-26 0 -66 -42z" />
    <glyph glyph-name="adieresis" unicode="&#xe4;" horiz-adv-x="535" 
d="M29 112q0 38 25.5 72t68.5 58t86.5 40.5t91.5 28.5q-3 100 -61 100q-35 0 -60 -4q-8 -27 -8 -75q-46 -22 -88 -12q-33 47 -33 120q98 57 220 57q22 0 43 -3.5t46 -14t43 -27.5t30.5 -47.5t12.5 -70.5v-175q0 -25 2 -69q28 2 64 11q20 -15 20 -43q-29 -31 -68.5 -51.5
t-77.5 -20.5q-40 0 -67 62q-80 -62 -148 -62q-142 0 -142 126zM237 89q24 0 65 25v106q-92 -11 -107 -23q-19 -14 -19 -50q0 -24 16 -41t45 -17zM130 553q-28 0 -49.5 19t-21.5 45q0 35 24 64.5t60 29.5q27 0 49 -19.5t22 -46.5q0 -35 -24.5 -63t-59.5 -29zM341 553
q-26 0 -48.5 19t-22.5 45q0 34 25 64t59 30q28 0 49.5 -19.5t21.5 -46.5q0 -36 -24 -63.5t-60 -28.5z" />
    <glyph glyph-name="aring" unicode="&#xe5;" horiz-adv-x="535" 
d="M29 112q0 38 25.5 72t68.5 58t86.5 40.5t91.5 28.5q-3 100 -61 100q-35 0 -60 -4q-8 -27 -8 -75q-46 -22 -88 -12q-33 47 -33 120q98 57 220 57q22 0 43 -3.5t46 -14t43 -27.5t30.5 -47.5t12.5 -70.5v-175q0 -25 2 -69q28 2 64 11q20 -15 20 -43q-29 -31 -68.5 -51.5
t-77.5 -20.5q-40 0 -67 62q-80 -62 -148 -62q-142 0 -142 126zM237 89q24 0 65 25v106q-92 -11 -107 -23q-19 -14 -19 -50q0 -24 16 -41t45 -17zM243 608q16 0 30 7q9 5 9 31q0 17 -12 30t-29 13q-19 0 -30 -7q-10 -8 -10 -30q0 -17 12.5 -30.5t29.5 -13.5zM236 531
q-56 0 -87 29t-31 87q0 44 40 81.5t90 37.5q118 0 118 -116q0 -43 -40 -81t-90 -38z" />
    <glyph glyph-name="ae" unicode="&#xe6;" horiz-adv-x="767" 
d="M29 112q0 38 25.5 72t68.5 58t86.5 40.5t91.5 28.5q-3 100 -61 100q-35 0 -60 -4q-8 -27 -8 -75q-46 -22 -88 -12q-33 47 -33 120q98 57 220 57q33 0 69 -14.5t60 -43.5q66 59 141 59q54 0 94 -19t60 -50.5t29.5 -64t9.5 -66.5t-9 -55l-12 -12q-112 2 -183 2h-82
q7 -59 37 -100t88 -41q53 0 135 34q22 -20 26 -62q-40 -32 -96.5 -55t-108.5 -23q-126 0 -184 85q-91 -85 -174 -85q-142 0 -142 126zM318 126q-15 47 -15 94q-91 -11 -108 -23q-19 -16 -19 -50q0 -24 16 -41t45 -17q31 0 81 37zM522 405q-26 0 -45.5 -27t-26.5 -71h70
q22 0 70 3q0 95 -68 95z" />
    <glyph glyph-name="ccedilla" unicode="&#xe7;" horiz-adv-x="473" 
d="M268 398q-45 0 -57 -15q-34 -43 -34 -122q0 -65 29 -117t92 -52q51 0 132 34q22 -20 26 -62q-74 -61 -170 -75l-11 -29q50 -1 78.5 -22t28.5 -57q0 -58 -56.5 -104t-136.5 -61q-25 27 -21 61q92 36 92 81q0 18 -14.5 30t-41.5 10l-12 12l34 78q-98 9 -147 75.5t-49 170.5
q0 99 67 180t174 81q94 0 174 -38q-4 -105 -29 -157q-53 -14 -88 4q-2 59 -6 89q-20 5 -54 5z" />
    <glyph glyph-name="egrave" unicode="&#xe8;" horiz-adv-x="494" 
d="M30 228q0 102 69 186t169 84q54 0 94 -19t60 -50.5t29.5 -64t9.5 -66.5t-9 -55l-12 -12q-140 2 -228 2h-37q7 -59 37 -100t88 -41q53 0 135 34q22 -20 26 -62q-40 -32 -96.5 -55t-108.5 -23q-113 0 -169.5 67t-56.5 175zM211 390q-25 -39 -34 -83h22q82 0 118 3
q0 95 -68 95q-28 0 -38 -15zM279 534l-172 183l7 24q53 31 129 29l99 -188q-17 -41 -63 -48z" />
    <glyph glyph-name="eacute" unicode="&#xe9;" horiz-adv-x="494" 
d="M30 228q0 102 69 186t169 84q54 0 94 -19t60 -50.5t29.5 -64t9.5 -66.5t-9 -55l-12 -12q-140 2 -228 2h-37q7 -59 37 -100t88 -41q53 0 135 34q22 -20 26 -62q-40 -32 -96.5 -55t-108.5 -23q-113 0 -169.5 67t-56.5 175zM211 390q-25 -39 -34 -83h22q82 0 118 3
q0 95 -68 95q-28 0 -38 -15zM194 574l95 167q61 13 143 13l11 -29l-196 -194q-39 3 -53 43z" />
    <glyph glyph-name="ecircumflex" unicode="&#xea;" horiz-adv-x="494" 
d="M30 228q0 102 69 186t169 84q54 0 94 -19t60 -50.5t29.5 -64t9.5 -66.5t-9 -55l-12 -12q-140 2 -228 2h-37q7 -59 37 -100t88 -41q53 0 135 34q22 -20 26 -62q-40 -32 -96.5 -55t-108.5 -23q-113 0 -169.5 67t-56.5 175zM211 390q-25 -39 -34 -83h22q82 0 118 3
q0 95 -68 95q-28 0 -38 -15zM367 528l-110 100l-104 -100q-36 9 -51 40l110 172q45 10 90 9l118 -177q-19 -30 -53 -44z" />
    <glyph glyph-name="edieresis" unicode="&#xeb;" horiz-adv-x="494" 
d="M30 228q0 102 69 186t169 84q54 0 94 -19t60 -50.5t29.5 -64t9.5 -66.5t-9 -55l-12 -12q-140 2 -228 2h-37q7 -59 37 -100t88 -41q53 0 135 34q22 -20 26 -62q-40 -32 -96.5 -55t-108.5 -23q-113 0 -169.5 67t-56.5 175zM211 390q-25 -39 -34 -83h22q82 0 118 3
q0 95 -68 95q-28 0 -38 -15zM151 553q-28 0 -49.5 19t-21.5 45q0 35 24 64.5t60 29.5q27 0 49 -19.5t22 -46.5q0 -35 -24.5 -63t-59.5 -29zM362 553q-26 0 -48.5 19t-22.5 45q0 34 25 64t59 30q28 0 49.5 -19.5t21.5 -46.5q0 -36 -24 -63.5t-60 -28.5z" />
    <glyph glyph-name="igrave" unicode="&#xec;" horiz-adv-x="354" 
d="M193 537l-172 183l7 24q53 31 129 29l99 -188q-17 -41 -63 -48zM257 198v-39q0 -39 3 -75q46 -5 75 -18q0 -48 -6 -67q-54 2 -141 2q-39 0 -88 -1t-64 -1q-7 21 -7 67q45 5 80 17q4 29 4 56v245q-45 12 -79 16q-10 32 -4 61q97 34 219 37l12 -12q-4 -133 -4 -288z" />
    <glyph glyph-name="iacute" unicode="&#xed;" horiz-adv-x="354" 
d="M108 583l95 167q61 13 143 13l11 -29l-196 -194q-39 3 -53 43zM257 198v-39q0 -39 3 -75q46 -5 75 -18q0 -48 -6 -67q-54 2 -141 2q-39 0 -88 -1t-64 -1q-7 21 -7 67q45 5 80 17q4 29 4 56v245q-45 12 -79 16q-10 32 -4 61q97 34 219 37l12 -12q-4 -133 -4 -288z" />
    <glyph glyph-name="icircumflex" unicode="&#xee;" horiz-adv-x="354" 
d="M257 198v-39q0 -39 3 -75q46 -5 75 -18q0 -48 -6 -67q-54 2 -141 2q-39 0 -88 -1t-64 -1q-7 21 -7 67q45 5 80 17q4 29 4 56v245q-45 12 -79 16q-10 32 -4 61q97 34 219 37l12 -12q-4 -133 -4 -288zM281 538l-111 103l-103 -103q-35 8 -51 40l110 172q45 10 90 9
l118 -177q-19 -30 -53 -44z" />
    <glyph glyph-name="idieresis" unicode="&#xef;" horiz-adv-x="354" 
d="M76 555q-25 0 -45.5 18.5t-20.5 43.5q0 34 22.5 63t56.5 29q24 0 45 -19.5t21 -44.5q0 -34 -23.5 -61.5t-55.5 -28.5zM263 555q-24 0 -45 18.5t-21 43.5q0 34 23.5 63t55.5 29q26 0 46 -19t20 -45q0 -35 -22.5 -62t-56.5 -28zM257 198v-39q0 -39 3 -75q46 -5 75 -18
q0 -48 -6 -67q-54 2 -141 2q-39 0 -88 -1t-64 -1q-7 21 -7 67q45 5 80 17q4 29 4 56v245q-45 12 -79 16q-10 32 -4 61q97 34 219 37l12 -12q-4 -133 -4 -288z" />
    <glyph glyph-name="eth" unicode="&#xf0;" horiz-adv-x="549" 
d="M259 497q50 0 92 -39q-21 79 -68 140l-117 -78q-39 29 -46 82l110 56q-31 29 -73 64q6 38 39 54q60 -32 115 -71l113 77q38 -30 45 -82l-95 -49q141 -136 141 -348q0 -138 -68.5 -227.5t-186.5 -89.5q-110 0 -170 69.5t-60 173.5q0 109 70.5 188.5t158.5 79.5zM265 401
q-40 0 -52 -15q-37 -46 -37 -126q0 -66 26 -121.5t76 -55.5q40 0 52 15q31 40 36 137q-3 78 -32.5 122t-68.5 44z" />
    <glyph glyph-name="ntilde" unicode="&#xf1;" horiz-adv-x="646" 
d="M214 497l16 -8q6 -13 17 -48q71 57 153 57q63 0 110 -40t47 -116v-183q0 -39 3 -75q47 -5 75 -18q0 -49 -7 -67q-52 2 -140 2q-32 0 -71.5 -1t-52.5 -1q-5 20 -5 67q30 7 50 17q4 29 4 56v145q0 56 -16 84.5t-63 28.5q-32 0 -77 -25v-213q0 -39 3 -75q39 -5 67 -18
q0 -48 -6 -67q-50 2 -133 2q-39 0 -88 -1t-64 -1q-7 21 -7 67q45 5 80 17q4 29 4 56v245q-36 11 -79 16q-11 33 -4 61q85 30 184 36zM191 565q-37 12 -49 46q24 45 60.5 73t69.5 28q26 0 67.5 -26.5t56.5 -26.5q26 0 66 42q34 -11 50 -44q-26 -46 -62.5 -74.5t-70.5 -28.5
q-26 0 -67.5 26.5t-54.5 26.5q-26 0 -66 -42z" />
    <glyph glyph-name="ograve" unicode="&#xf2;" horiz-adv-x="543" 
d="M278 498q116 0 175.5 -68.5t59.5 -179.5q0 -101 -68.5 -182.5t-179.5 -81.5q-115 0 -175 68t-60 180q0 101 68.5 182.5t179.5 81.5zM280 83q39 0 50 15q36 46 36 127q0 41 -9.5 79t-33.5 67.5t-60 29.5q-39 0 -50 -15q-36 -46 -36 -127q0 -41 9.5 -79t33.5 -67.5
t60 -29.5zM281 534l-172 183l7 24q53 31 129 29l99 -188q-17 -41 -63 -48z" />
    <glyph glyph-name="oacute" unicode="&#xf3;" horiz-adv-x="543" 
d="M278 498q116 0 175.5 -68.5t59.5 -179.5q0 -101 -68.5 -182.5t-179.5 -81.5q-115 0 -175 68t-60 180q0 101 68.5 182.5t179.5 81.5zM280 83q39 0 50 15q36 46 36 127q0 41 -9.5 79t-33.5 67.5t-60 29.5q-39 0 -50 -15q-36 -46 -36 -127q0 -41 9.5 -79t33.5 -67.5
t60 -29.5zM196 574l95 167q61 13 143 13l11 -29l-196 -194q-39 3 -53 43z" />
    <glyph glyph-name="ocircumflex" unicode="&#xf4;" horiz-adv-x="543" 
d="M278 498q116 0 175.5 -68.5t59.5 -179.5q0 -101 -68.5 -182.5t-179.5 -81.5q-115 0 -175 68t-60 180q0 101 68.5 182.5t179.5 81.5zM280 83q39 0 50 15q36 46 36 127q0 41 -9.5 79t-33.5 67.5t-60 29.5q-39 0 -50 -15q-36 -46 -36 -127q0 -41 9.5 -79t33.5 -67.5
t60 -29.5zM380 528l-110 100l-104 -100q-36 9 -51 40l110 172q45 10 90 9l118 -177q-19 -30 -53 -44z" />
    <glyph glyph-name="uni00F5" unicode="&#xf5;" horiz-adv-x="543" 
d="M278 498q116 0 175.5 -68.5t59.5 -179.5q0 -101 -68.5 -182.5t-179.5 -81.5q-115 0 -175 68t-60 180q0 101 68.5 182.5t179.5 81.5zM280 83q39 0 50 15q36 46 36 127q0 41 -9.5 79t-33.5 67.5t-60 29.5q-39 0 -50 -15q-36 -46 -36 -127q0 -41 9.5 -79t33.5 -67.5
t60 -29.5zM137 565q-37 12 -49 46q24 45 60.5 73t69.5 28q26 0 67.5 -26.5t56.5 -26.5q26 0 66 42q34 -11 50 -44q-26 -46 -62.5 -74.5t-70.5 -28.5q-26 0 -67.5 26.5t-54.5 26.5q-26 0 -66 -42z" />
    <glyph glyph-name="odieresis" unicode="&#xf6;" horiz-adv-x="543" 
d="M278 498q116 0 175.5 -68.5t59.5 -179.5q0 -101 -68.5 -182.5t-179.5 -81.5q-115 0 -175 68t-60 180q0 101 68.5 182.5t179.5 81.5zM280 83q39 0 50 15q36 46 36 127q0 41 -9.5 79t-33.5 67.5t-60 29.5q-39 0 -50 -15q-36 -46 -36 -127q0 -41 9.5 -79t33.5 -67.5
t60 -29.5zM164 553q-28 0 -49.5 19t-21.5 45q0 35 24 64.5t60 29.5q27 0 49 -19.5t22 -46.5q0 -35 -24.5 -63t-59.5 -29zM375 553q-26 0 -48.5 19t-22.5 45q0 34 25 64t59 30q28 0 49.5 -19.5t21.5 -46.5q0 -36 -24 -63.5t-60 -28.5z" />
    <glyph glyph-name="divide" unicode="&#xf7;" horiz-adv-x="550" 
d="M205 104q0 27 21 45.5t50 18.5t49 -18.5t20 -45.5q0 -28 -20.5 -48.5t-48.5 -20.5q-29 0 -50 20.5t-21 48.5zM205 428q0 26 21 44.5t50 18.5t49 -18.5t20 -44.5q0 -29 -20 -49.5t-49 -20.5t-50 20.5t-21 49.5zM482 216h-412q-19 47 0 98h412q17 -49 0 -98z" />
    <glyph glyph-name="oslash" unicode="&#xf8;" horiz-adv-x="543" 
d="M86 -40l33 67q-89 65 -89 207q0 101 68.5 182.5t179.5 81.5q37 0 71 -8l35 69q45 -7 68 -31l-33 -69q94 -64 94 -209q0 -101 -68.5 -182.5t-179.5 -81.5q-40 0 -73 9l-34 -71q-45 6 -72 36zM280 83q86 0 86 142q0 50 -15 95l-111 -227q17 -10 40 -10zM177 259
q0 -48 13 -90l110 222q-18 10 -37 10q-86 0 -86 -142z" />
    <glyph glyph-name="ugrave" unicode="&#xf9;" horiz-adv-x="622" 
d="M89 150v246q-36 16 -78 22q0 43 7 67q15 0 64.5 -1t90.5 -1h50l12 -12q-2 -90 -2 -261q0 -118 59 -118q35 0 89 50v254q-35 16 -73 22q0 43 7 67q15 0 63 -1t88 -1h49l12 -12q-2 -75 -2 -250v-62q0 -25 2 -69q28 2 64 11q20 -15 20 -43q-29 -31 -68.5 -51.5t-77.5 -20.5
q-21 0 -39.5 20t-30.5 52q-70 -72 -155 -72q-70 0 -110.5 42.5t-40.5 121.5zM300 534l-172 183l7 24q53 31 129 29l99 -188q-17 -41 -63 -48z" />
    <glyph glyph-name="uacute" unicode="&#xfa;" horiz-adv-x="622" 
d="M89 150v246q-36 16 -78 22q0 43 7 67q15 0 64.5 -1t90.5 -1h50l12 -12q-2 -90 -2 -261q0 -118 59 -118q35 0 89 50v254q-35 16 -73 22q0 43 7 67q15 0 63 -1t88 -1h49l12 -12q-2 -75 -2 -250v-62q0 -25 2 -69q28 2 64 11q20 -15 20 -43q-29 -31 -68.5 -51.5t-77.5 -20.5
q-21 0 -39.5 20t-30.5 52q-70 -72 -155 -72q-70 0 -110.5 42.5t-40.5 121.5zM215 574l95 167q61 13 143 13l11 -29l-196 -194q-39 3 -53 43z" />
    <glyph glyph-name="ucircumflex" unicode="&#xfb;" horiz-adv-x="622" 
d="M89 150v246q-36 16 -78 22q0 43 7 67q15 0 64.5 -1t90.5 -1h50l12 -12q-2 -90 -2 -261q0 -118 59 -118q35 0 89 50v254q-35 16 -73 22q0 43 7 67q15 0 63 -1t88 -1h49l12 -12q-2 -75 -2 -250v-62q0 -25 2 -69q28 2 64 11q20 -15 20 -43q-29 -31 -68.5 -51.5t-77.5 -20.5
q-21 0 -39.5 20t-30.5 52q-70 -72 -155 -72q-70 0 -110.5 42.5t-40.5 121.5zM397 528l-110 100l-104 -100q-36 9 -51 40l110 172q45 10 90 9l118 -177q-19 -30 -53 -44z" />
    <glyph glyph-name="udieresis" unicode="&#xfc;" horiz-adv-x="622" 
d="M89 150v246q-36 16 -78 22q0 43 7 67q15 0 64.5 -1t90.5 -1h50l12 -12q-2 -90 -2 -261q0 -118 59 -118q35 0 89 50v254q-35 16 -73 22q0 43 7 67q15 0 63 -1t88 -1h49l12 -12q-2 -75 -2 -250v-62q0 -25 2 -69q28 2 64 11q20 -15 20 -43q-29 -31 -68.5 -51.5t-77.5 -20.5
q-21 0 -39.5 20t-30.5 52q-70 -72 -155 -72q-70 0 -110.5 42.5t-40.5 121.5zM172 553q-28 0 -49.5 19t-21.5 45q0 35 24 64.5t60 29.5q27 0 49 -19.5t22 -46.5q0 -35 -24.5 -63t-59.5 -29zM383 553q-26 0 -48.5 19t-22.5 45q0 34 25 64t59 30q28 0 49.5 -19.5t21.5 -46.5
q0 -36 -24 -63.5t-60 -28.5z" />
    <glyph glyph-name="yacute" unicode="&#xfd;" horiz-adv-x="586" 
d="M225 0l-150 401q-23 11 -67 17q0 39 7 67q13 0 50 -1t61 -1q8 0 60.5 1t100.5 1q8 -29 5 -67l-59 -18l67 -200v-90h4l95 290l-65 18q0 43 9 67q18 0 64 -1t77 -1q24 0 88 2q9 -32 6 -67q-25 -12 -64 -17l-141 -392q-46 -128 -94.5 -197.5t-113.5 -69.5q-80 0 -124 22
q-6 43 22 77h15q137 0 177 118l14 41h-44zM236 574l95 167q61 13 143 13l11 -29l-196 -194q-39 3 -53 43z" />
    <glyph glyph-name="thorn" unicode="&#xfe;" horiz-adv-x="569" 
d="M221 466v-14q65 43 136 43q82 0 132 -66.5t50 -177.5q0 -98 -63.5 -180t-155.5 -82q-51 0 -99 25v-106q0 -39 3 -75q66 -3 118 -18q0 -47 -6 -66q-110 2 -184 2q-39 0 -87 -1t-65 -1q-7 21 -7 66q45 5 80 17q4 29 4 56v764q-45 12 -79 16q-10 32 -4 61q97 34 219 37
l12 -12q-4 -133 -4 -288zM296 394q-31 0 -75 -23v-248q46 -37 91 -37q13 0 25.5 5.5t16.5 11.5q38 50 38 123q0 69 -25.5 118.5t-70.5 49.5z" />
    <glyph glyph-name="ydieresis" unicode="&#xff;" horiz-adv-x="586" 
d="M225 0l-150 401q-23 11 -67 17q0 39 7 67q13 0 50 -1t61 -1q8 0 60.5 1t100.5 1q8 -29 5 -67l-59 -18l67 -200v-90h4l95 290l-65 18q0 43 9 67q18 0 64 -1t77 -1q24 0 88 2q9 -32 6 -67q-25 -12 -64 -17l-141 -392q-46 -128 -94.5 -197.5t-113.5 -69.5q-80 0 -124 22
q-6 43 22 77h15q137 0 177 118l14 41h-44zM193 553q-28 0 -49.5 19t-21.5 45q0 35 24 64.5t60 29.5q27 0 49 -19.5t22 -46.5q0 -35 -24.5 -63t-59.5 -29zM404 553q-26 0 -48.5 19t-22.5 45q0 34 25 64t59 30q28 0 49.5 -19.5t21.5 -46.5q0 -36 -24 -63.5t-60 -28.5z" />
    <glyph glyph-name="Amacron" unicode="&#x100;" horiz-adv-x="717" 
d="M482 86l-38 105q-85 5 -149 5h-67l-38 -110l89 -17q1 -37 -6 -70q-41 2 -140 2q-27 0 -66.5 -1t-53.5 -1q-8 31 -8 70q34 4 80 19l205 570q60 17 135 17l214 -587q38 -4 74 -19q1 -37 -6 -70q-37 2 -150 2q-33 0 -87 -1t-75 -1q-8 31 -8 70zM348 545l-91 -264h155
l-58 161l-2 103h-4zM213 836h302q21 -48 0 -97h-302q-20 51 0 97z" />
    <glyph glyph-name="amacron" unicode="&#x101;" horiz-adv-x="535" 
d="M29 112q0 38 25.5 72t68.5 58t86.5 40.5t91.5 28.5q-3 100 -61 100q-35 0 -60 -4q-8 -27 -8 -75q-46 -22 -88 -12q-33 47 -33 120q98 57 220 57q22 0 43 -3.5t46 -14t43 -27.5t30.5 -47.5t12.5 -70.5v-175q0 -25 2 -69q28 2 64 11q20 -15 20 -43q-29 -31 -68.5 -51.5
t-77.5 -20.5q-40 0 -67 62q-80 -62 -148 -62q-142 0 -142 126zM237 89q24 0 65 25v106q-92 -11 -107 -23q-19 -14 -19 -50q0 -24 16 -41t45 -17zM96 670h292q20 -50 0 -101h-292q-20 53 0 101z" />
    <glyph glyph-name="Abreve" unicode="&#x102;" horiz-adv-x="717" 
d="M482 86l-38 105q-85 5 -149 5h-67l-38 -110l89 -17q1 -37 -6 -70q-41 2 -140 2q-27 0 -66.5 -1t-53.5 -1q-8 31 -8 70q34 4 80 19l205 570q60 17 135 17l214 -587q38 -4 74 -19q1 -37 -6 -70q-37 2 -150 2q-33 0 -87 -1t-75 -1q-8 31 -8 70zM348 545l-91 -264h155
l-58 161l-2 103h-4zM357 730q-59 0 -102 33.5t-62 81.5q11 26 47 40q60 -58 125 -58q67 0 127 58q34 -12 43 -38q-19 -47 -70 -82t-108 -35z" />
    <glyph glyph-name="abreve" unicode="&#x103;" horiz-adv-x="535" 
d="M29 112q0 38 25.5 72t68.5 58t86.5 40.5t91.5 28.5q-3 100 -61 100q-35 0 -60 -4q-8 -27 -8 -75q-46 -22 -88 -12q-33 47 -33 120q98 57 220 57q22 0 43 -3.5t46 -14t43 -27.5t30.5 -47.5t12.5 -70.5v-175q0 -25 2 -69q28 2 64 11q20 -15 20 -43q-29 -31 -68.5 -51.5
t-77.5 -20.5q-40 0 -67 62q-80 -62 -148 -62q-142 0 -142 126zM237 89q24 0 65 25v106q-92 -11 -107 -23q-19 -14 -19 -50q0 -24 16 -41t45 -17zM235 555q-63 0 -103.5 37t-57.5 93q10 27 42 36q58 -64 128 -64q71 0 126 63q27 -4 40 -33q-16 -53 -64 -92.5t-111 -39.5z" />
    <glyph glyph-name="Aogonek" unicode="&#x104;" horiz-adv-x="717" 
d="M295 196h-67l-38 -110l89 -17q1 -37 -6 -70q-41 2 -140 2q-27 0 -66.5 -1t-53.5 -1q-8 31 -8 70q34 4 80 19l205 570q60 17 135 17l214 -587q38 -4 74 -19q1 -37 -6 -70q-9 1 -32 1q-52 -22 -83.5 -52.5t-31.5 -53.5q0 -15 10.5 -25.5t25.5 -10.5q20 0 53 9
q21 -24 21 -61q-64 -35 -125 -35q-43 0 -72.5 23.5t-29.5 60.5q0 44 40 81.5t103 60.5v4h-29q-33 0 -87 -1t-75 -1q-8 31 -8 70l95 17l-38 105q-85 5 -149 5zM348 545l-91 -264h155l-58 161l-2 103h-4z" />
    <glyph glyph-name="aogonek" unicode="&#x105;" horiz-adv-x="535" 
d="M347 5q-19 21 -28 43q-80 -62 -148 -62q-142 0 -142 126q0 38 25.5 72t68.5 58t86.5 40.5t91.5 28.5q-3 100 -61 100q-35 0 -60 -4q-8 -27 -8 -75q-46 -22 -88 -12q-33 47 -33 120q98 57 220 57q22 0 43 -3.5t46 -14t43 -27.5t30.5 -47.5t12.5 -70.5v-175q0 -25 2 -69
q28 2 64 11q20 -15 20 -43q-171 -86 -171 -151q0 -22 10 -35.5t27 -13.5q18 0 52 9q21 -24 21 -61q-64 -35 -125 -35q-43 0 -72.5 28.5t-29.5 70.5q0 74 103 135zM237 89q24 0 65 25v106q-92 -11 -107 -23q-19 -14 -19 -50q0 -24 16 -41t45 -17z" />
    <glyph glyph-name="Cacute" unicode="&#x106;" horiz-adv-x="600" 
d="M448 568q-33 6 -93 6q-78 0 -105 -21q-9 -7 -23.5 -29t-29 -67t-14.5 -94q0 -120 49.5 -193.5t147.5 -73.5q46 0 82 9q8 62 13 121q45 14 89 7q15 -80 15 -209q-106 -39 -222 -39q-160 0 -245 95t-85 243q0 65 22.5 128.5t64.5 116t110 85t151 32.5q116 0 194 -31
q0 -122 -23 -202q-42 -7 -85 7q-2 45 -13 109zM260 786l200 137q60 -31 74 -95l-7 -25l-233 -82q-27 25 -34 65z" />
    <glyph glyph-name="cacute" unicode="&#x107;" horiz-adv-x="473" 
d="M268 398q-45 0 -57 -15q-34 -43 -34 -122q0 -65 29 -117t92 -52q51 0 132 34q22 -20 26 -62q-39 -32 -95 -55t-108 -23q-112 0 -167.5 68.5t-55.5 179.5q0 99 67 180t174 81q94 0 174 -38q-4 -105 -29 -157q-53 -14 -88 4q-2 59 -6 89q-20 5 -54 5zM191 574l95 167
q61 13 143 13l11 -29l-196 -194q-39 3 -53 43z" />
    <glyph glyph-name="Ccircumflex" unicode="&#x108;" horiz-adv-x="600" 
d="M448 568q-33 6 -93 6q-78 0 -105 -21q-9 -7 -23.5 -29t-29 -67t-14.5 -94q0 -120 49.5 -193.5t147.5 -73.5q46 0 82 9q8 62 13 121q45 14 89 7q15 -80 15 -209q-106 -39 -222 -39q-160 0 -245 95t-85 243q0 65 22.5 128.5t64.5 116t110 85t151 32.5q116 0 194 -31
q0 -122 -23 -202q-42 -7 -85 7q-2 45 -13 109zM491 714l-135 80l-133 -80q-34 21 -44 56l137 130q35 7 79 7l144 -133q-15 -38 -48 -60z" />
    <glyph glyph-name="ccircumflex" unicode="&#x109;" horiz-adv-x="473" 
d="M268 398q-45 0 -57 -15q-34 -43 -34 -122q0 -65 29 -117t92 -52q51 0 132 34q22 -20 26 -62q-39 -32 -95 -55t-108 -23q-112 0 -167.5 68.5t-55.5 179.5q0 99 67 180t174 81q94 0 174 -38q-4 -105 -29 -157q-53 -14 -88 4q-2 59 -6 89q-20 5 -54 5zM374 528l-110 100
l-104 -100q-36 9 -51 40l110 172q45 10 90 9l118 -177q-19 -30 -53 -44z" />
    <glyph glyph-name="Cdotaccent" unicode="&#x10a;" horiz-adv-x="600" 
d="M448 568q-33 6 -93 6q-78 0 -105 -21q-9 -7 -23.5 -29t-29 -67t-14.5 -94q0 -120 49.5 -193.5t147.5 -73.5q46 0 82 9q8 62 13 121q45 14 89 7q15 -80 15 -209q-106 -39 -222 -39q-160 0 -245 95t-85 243q0 65 22.5 128.5t64.5 116t110 85t151 32.5q116 0 194 -31
q0 -122 -23 -202q-42 -7 -85 7q-2 45 -13 109zM353 733q-28 0 -52.5 20.5t-24.5 48.5q0 36 27 69t63 33q30 0 54 -20t24 -50q0 -37 -27 -69t-64 -32z" />
    <glyph glyph-name="cdotaccent" unicode="&#x10b;" horiz-adv-x="473" 
d="M268 398q-45 0 -57 -15q-34 -43 -34 -122q0 -65 29 -117t92 -52q51 0 132 34q22 -20 26 -62q-39 -32 -95 -55t-108 -23q-112 0 -167.5 68.5t-55.5 179.5q0 99 67 180t174 81q94 0 174 -38q-4 -105 -29 -157q-53 -14 -88 4q-2 59 -6 89q-20 5 -54 5zM268 556
q-29 0 -54.5 21.5t-25.5 50.5q0 36 28 70.5t65 34.5q31 0 56 -20.5t25 -52.5q0 -38 -28 -71t-66 -33z" />
    <glyph glyph-name="Ccaron" unicode="&#x10c;" horiz-adv-x="600" 
d="M448 568q-33 6 -93 6q-78 0 -105 -21q-9 -7 -23.5 -29t-29 -67t-14.5 -94q0 -120 49.5 -193.5t147.5 -73.5q46 0 82 9q8 62 13 121q45 14 89 7q15 -80 15 -209q-106 -39 -222 -39q-160 0 -245 95t-85 243q0 65 22.5 128.5t64.5 116t110 85t151 32.5q116 0 194 -31
q0 -122 -23 -202q-42 -7 -85 7q-2 45 -13 109zM181 854q15 38 48 60l135 -80l133 80q34 -21 44 -56l-137 -130q-35 -7 -79 -7z" />
    <glyph glyph-name="ccaron" unicode="&#x10d;" horiz-adv-x="473" 
d="M268 398q-45 0 -57 -15q-34 -43 -34 -122q0 -65 29 -117t92 -52q51 0 132 34q22 -20 26 -62q-39 -32 -95 -55t-108 -23q-112 0 -167.5 68.5t-55.5 179.5q0 99 67 180t174 81q94 0 174 -38q-4 -105 -29 -157q-53 -14 -88 4q-2 59 -6 89q-20 5 -54 5zM113 719q19 30 53 44
l110 -100l104 100q35 -8 51 -40l-110 -172q-45 -11 -90 -9z" />
    <glyph glyph-name="Dcaron" unicode="&#x10e;" horiz-adv-x="697" 
d="M181 1q-34 0 -86 -1t-71 -1q-8 31 -8 70q39 4 87 19q5 24 5 61v295q0 76 -5 138q-48 15 -87 19q0 39 8 70q19 0 71 -1t86 -1q33 0 105 2.5t106 2.5q131 0 204.5 -91.5t73.5 -238.5q0 -137 -92 -242.5t-230 -105.5q-23 0 -77.5 2.5t-89.5 2.5zM339 577q-29 0 -83 -2v-480
h84q32 0 66 7.5t46 17.5q62 52 62 186q0 69 -18.5 129t-59.5 101t-97 41zM139 854q15 38 48 60l135 -80l133 80q34 -21 44 -56l-137 -130q-35 -7 -79 -7z" />
    <glyph glyph-name="dcaron" unicode="&#x10f;" horiz-adv-x="690" 
d="M30 231q0 110 65.5 187t150.5 77q50 0 99 -19v176q-48 12 -85 16q-10 32 -4 61q100 34 225 37l12 -12q-4 -133 -4 -288v-307q0 -25 2 -69q28 2 64 11q20 -15 20 -43q-29 -31 -68.5 -51.5t-77.5 -20.5q-22 0 -41 21.5t-31 56.5q-73 -78 -149 -78q-86 0 -132 69t-46 176z
M253 92q34 0 92 58v236q-41 12 -76 12q-45 0 -55 -13q-15 -18 -26 -54.5t-11 -72.5q0 -68 21 -117t55 -49zM539 754l12 12q79 8 119 -22l-58 -225q-42 -5 -76 6z" />
    <glyph glyph-name="Dcroat" unicode="&#x110;" horiz-adv-x="699" 
d="M183 1q-34 0 -86 -1t-71 -1q-8 31 -8 70q39 4 87 19q5 24 5 61v151h-84q-14 42 0 82h84v62q0 76 -5 138q-48 15 -87 19q0 39 8 70q19 0 71 -1t86 -1q33 0 105 2.5t106 2.5q131 0 204.5 -91.5t73.5 -238.5q0 -137 -92 -242.5t-230 -105.5q-23 0 -77.5 2.5t-89.5 2.5z
M365 300h-107v-205h84q32 0 66 7.5t46 17.5q62 52 62 186q0 69 -18.5 129t-59.5 101t-97 41q-29 0 -83 -2v-193h107q13 -41 0 -82z" />
    <glyph glyph-name="dcroat" unicode="&#x111;" horiz-adv-x="584" 
d="M555 541h-66v-75v-307q0 -25 2 -69q28 2 64 11q20 -15 20 -43q-29 -31 -68.5 -51.5t-77.5 -20.5q-22 0 -41 21.5t-31 56.5q-73 -78 -149 -78q-86 0 -132 67.5t-46 172.5q0 108 65.5 182.5t150.5 74.5q50 0 99 -19v77h-159q-13 37 0 68h159v45q-34 9 -85 14q-10 32 -4 61
q100 34 225 37l12 -12q-2 -53 -4 -145h66q12 -34 0 -68zM253 92q34 0 92 58v224q-41 12 -76 12q-45 0 -55 -13q-15 -18 -26 -52.5t-11 -68.5q0 -65 21 -112.5t55 -47.5z" />
    <glyph glyph-name="Emacron" unicode="&#x112;" horiz-adv-x="590" 
d="M181 669h123q173 0 235 2l12 -13q3 -121 -13 -195q-51 -9 -89 0q-5 59 -15 110h-178v-186l178 6l12 -12q-2 -58 -11 -88l-179 5v-201h191q19 52 36 123q42 6 87 -7q0 -85 -11 -201l-12 -13q-62 2 -235 2h-129q-34 0 -87 -1t-72 -1q-8 31 -8 70q39 4 87 19q5 24 5 61v295
q0 75 -5 138q-48 15 -87 19q0 39 8 70q19 0 71 -1t86 -1zM161 836h302q21 -48 0 -97h-302q-20 51 0 97z" />
    <glyph glyph-name="emacron" unicode="&#x113;" horiz-adv-x="494" 
d="M30 228q0 102 69 186t169 84q54 0 94 -19t60 -50.5t29.5 -64t9.5 -66.5t-9 -55l-12 -12q-140 2 -228 2h-37q7 -59 37 -100t88 -41q53 0 135 34q22 -20 26 -62q-40 -32 -96.5 -55t-108.5 -23q-113 0 -169.5 67t-56.5 175zM211 390q-25 -39 -34 -83h22q82 0 118 3
q0 95 -68 95q-28 0 -38 -15zM117 670h292q20 -50 0 -101h-292q-20 53 0 101z" />
    <glyph glyph-name="Ebreve" unicode="&#x114;" horiz-adv-x="590" 
d="M181 669h123q173 0 235 2l12 -13q3 -121 -13 -195q-51 -9 -89 0q-5 59 -15 110h-178v-186l178 6l12 -12q-2 -58 -11 -88l-179 5v-201h191q19 52 36 123q42 6 87 -7q0 -85 -11 -201l-12 -13q-62 2 -235 2h-129q-34 0 -87 -1t-72 -1q-8 31 -8 70q39 4 87 19q5 24 5 61v295
q0 75 -5 138q-48 15 -87 19q0 39 8 70q19 0 71 -1t86 -1zM305 730q-59 0 -102 33.5t-62 81.5q11 26 47 40q60 -58 125 -58q67 0 127 58q34 -12 43 -38q-19 -47 -70 -82t-108 -35z" />
    <glyph glyph-name="ebreve" unicode="&#x115;" horiz-adv-x="494" 
d="M30 228q0 102 69 186t169 84q54 0 94 -19t60 -50.5t29.5 -64t9.5 -66.5t-9 -55l-12 -12q-140 2 -228 2h-37q7 -59 37 -100t88 -41q53 0 135 34q22 -20 26 -62q-40 -32 -96.5 -55t-108.5 -23q-113 0 -169.5 67t-56.5 175zM211 390q-25 -39 -34 -83h22q82 0 118 3
q0 95 -68 95q-28 0 -38 -15zM256 555q-63 0 -103.5 37t-57.5 93q10 27 42 36q58 -64 128 -64q71 0 126 63q27 -4 40 -33q-16 -53 -64 -92.5t-111 -39.5z" />
    <glyph glyph-name="Edotaccent" unicode="&#x116;" horiz-adv-x="590" 
d="M181 669h123q173 0 235 2l12 -13q3 -121 -13 -195q-51 -9 -89 0q-5 59 -15 110h-178v-186l178 6l12 -12q-2 -58 -11 -88l-179 5v-201h191q19 52 36 123q42 6 87 -7q0 -85 -11 -201l-12 -13q-62 2 -235 2h-129q-34 0 -87 -1t-72 -1q-8 31 -8 70q39 4 87 19q5 24 5 61v295
q0 75 -5 138q-48 15 -87 19q0 39 8 70q19 0 71 -1t86 -1zM305 733q-28 0 -52.5 20.5t-24.5 48.5q0 36 27 69t63 33q30 0 54 -20t24 -50q0 -37 -27 -69t-64 -32z" />
    <glyph glyph-name="edotaccent" unicode="&#x117;" horiz-adv-x="494" 
d="M30 228q0 102 69 186t169 84q54 0 94 -19t60 -50.5t29.5 -64t9.5 -66.5t-9 -55l-12 -12q-140 2 -228 2h-37q7 -59 37 -100t88 -41q53 0 135 34q22 -20 26 -62q-40 -32 -96.5 -55t-108.5 -23q-113 0 -169.5 67t-56.5 175zM211 390q-25 -39 -34 -83h22q82 0 118 3
q0 95 -68 95q-28 0 -38 -15zM256 556q-29 0 -54.5 21.5t-25.5 50.5q0 36 28 70.5t65 34.5q31 0 56 -20.5t25 -52.5q0 -38 -28 -71t-66 -33z" />
    <glyph glyph-name="Eogonek" unicode="&#x118;" horiz-adv-x="590" 
d="M434 390l12 -12q-2 -52 -11 -82l-179 3v-202h191q19 52 36 123q42 6 87 -7q0 -85 -11 -201l-12 -13q-53 -22 -85.5 -52t-32.5 -53q0 -15 10.5 -25.5t25.5 -10.5q20 0 53 9q21 -24 21 -61q-64 -35 -125 -35q-43 0 -72.5 23.5t-29.5 60.5q0 44 40.5 81.5t102.5 59.5v5h-272
q-34 0 -87 -1t-72 -1q-8 31 -8 70q39 4 87 19q5 24 5 61v295q0 75 -5 138q-48 15 -87 19q0 39 8 70q19 0 71 -1t86 -1h123q173 0 235 2l12 -13q3 -121 -13 -195q-51 -9 -89 0q-5 59 -15 110h-178v-186z" />
    <glyph glyph-name="eogonek" unicode="&#x119;" horiz-adv-x="494" 
d="M30 228q0 102 69 186t169 84q54 0 94 -19t60 -50.5t29.5 -64t9.5 -66.5t-9 -55l-12 -12q-140 2 -228 2h-37q7 -59 37 -100t88 -41q53 0 135 34q22 -20 26 -62l-16 -12q-64 -51 -94.5 -86t-30.5 -63q0 -19 10 -32t25 -13q19 0 53 9q22 -25 22 -61q-66 -35 -126 -35
q-42 0 -72 28t-30 66q0 39 28.5 70.5t77.5 50.5l-2 6q-26 -6 -50 -6q-113 0 -169.5 67t-56.5 175zM211 390q-25 -39 -34 -83h22q82 0 118 3q0 95 -68 95q-28 0 -38 -15z" />
    <glyph glyph-name="Ecaron" unicode="&#x11a;" horiz-adv-x="590" 
d="M181 669h123q173 0 235 2l12 -13q3 -121 -13 -195q-51 -9 -89 0q-5 59 -15 110h-178v-186l178 6l12 -12q-2 -58 -11 -88l-179 5v-201h191q19 52 36 123q42 6 87 -7q0 -85 -11 -201l-12 -13q-62 2 -235 2h-129q-34 0 -87 -1t-72 -1q-8 31 -8 70q39 4 87 19q5 24 5 61v295
q0 75 -5 138q-48 15 -87 19q0 39 8 70q19 0 71 -1t86 -1zM133 854q15 38 48 60l135 -80l133 80q34 -21 44 -56l-137 -130q-35 -7 -79 -7z" />
    <glyph glyph-name="ecaron" unicode="&#x11b;" horiz-adv-x="494" 
d="M30 228q0 102 69 186t169 84q54 0 94 -19t60 -50.5t29.5 -64t9.5 -66.5t-9 -55l-12 -12q-140 2 -228 2h-37q7 -59 37 -100t88 -41q53 0 135 34q22 -20 26 -62q-40 -32 -96.5 -55t-108.5 -23q-113 0 -169.5 67t-56.5 175zM211 390q-25 -39 -34 -83h22q82 0 118 3
q0 95 -68 95q-28 0 -38 -15zM106 719q19 30 53 44l110 -100l104 100q35 -8 51 -40l-110 -172q-45 -11 -90 -9z" />
    <glyph glyph-name="Gcircumflex" unicode="&#x11c;" horiz-adv-x="689" 
d="M182 363q0 -123 51 -199.5t149 -76.5q33 0 71 3v8q0 76 -5 138q-57 15 -102 19q0 40 9 70q18 0 70 -1t95 -1q120 0 147 2q7 -33 6 -70q-36 -15 -74 -19q-4 -49 -4 -138v-58q-146 -55 -269 -55q-143 0 -221 95.5t-78 242.5q0 65 23 128.5t65.5 116t112 85t155.5 32.5
q115 0 198 -30q0 -113 -23 -193q-44 -7 -89 7q-3 62 -12 103q-36 6 -85 6q-93 0 -119 -22q-20 -16 -45.5 -68t-25.5 -125zM496 714l-135 80l-133 -80q-34 21 -44 56l137 130q35 7 79 7l144 -133q-15 -38 -48 -60z" />
    <glyph glyph-name="gcircumflex" unicode="&#x11d;" horiz-adv-x="532" 
d="M466 332q0 -77 -59.5 -134t-169.5 -58q-8 -16 -8 -33q0 -15 4 -19q5 -6 104 -6q71 0 118.5 -39t47.5 -105q0 -100 -75 -154t-213 -54q-58 0 -99.5 13.5t-62.5 35.5t-30 44t-9 44q0 78 100 135q-11 13 -11 40q0 45 59 106q-119 31 -119 155q0 75 59.5 133.5t164.5 58.5
q58 0 102 -18q41 48 116 89q41 -25 53 -88q-41 -21 -109 -42q37 -43 37 -104zM263 -31q-61 0 -92 7q-27 -31 -27 -72q0 -33 26 -55t78 -22q76 0 109 21q8 5 14 24.5t6 39.5q0 57 -114 57zM330 315q0 35 -22.5 63t-58.5 28q-34 0 -46 -10q-25 -21 -25 -68q0 -42 21.5 -70.5
t54.5 -28.5q35 0 48 11q10 8 19 30.5t9 44.5zM348 528l-110 100l-104 -100q-36 9 -51 40l110 172q45 10 90 9l118 -177q-19 -30 -53 -44z" />
    <glyph glyph-name="Gbreve" unicode="&#x11e;" horiz-adv-x="689" 
d="M182 363q0 -123 51 -199.5t149 -76.5q33 0 71 3v8q0 76 -5 138q-57 15 -102 19q0 40 9 70q18 0 70 -1t95 -1q120 0 147 2q7 -33 6 -70q-36 -15 -74 -19q-4 -49 -4 -138v-58q-146 -55 -269 -55q-143 0 -221 95.5t-78 242.5q0 65 23 128.5t65.5 116t112 85t155.5 32.5
q115 0 198 -30q0 -113 -23 -193q-44 -7 -89 7q-3 62 -12 103q-36 6 -85 6q-93 0 -119 -22q-20 -16 -45.5 -68t-25.5 -125zM366 730q-59 0 -102 33.5t-62 81.5q11 26 47 40q60 -58 125 -58q67 0 127 58q34 -12 43 -38q-19 -47 -70 -82t-108 -35z" />
    <glyph glyph-name="gbreve" unicode="&#x11f;" horiz-adv-x="532" 
d="M466 332q0 -77 -59.5 -134t-169.5 -58q-8 -16 -8 -33q0 -15 4 -19q5 -6 104 -6q71 0 118.5 -39t47.5 -105q0 -100 -75 -154t-213 -54q-58 0 -99.5 13.5t-62.5 35.5t-30 44t-9 44q0 78 100 135q-11 13 -11 40q0 45 59 106q-119 31 -119 155q0 75 59.5 133.5t164.5 58.5
q58 0 102 -18q41 48 116 89q41 -25 53 -88q-41 -21 -109 -42q37 -43 37 -104zM263 -31q-61 0 -92 7q-27 -31 -27 -72q0 -33 26 -55t78 -22q76 0 109 21q8 5 14 24.5t6 39.5q0 57 -114 57zM330 315q0 35 -22.5 63t-58.5 28q-34 0 -46 -10q-25 -21 -25 -68q0 -42 21.5 -70.5
t54.5 -28.5q35 0 48 11q10 8 19 30.5t9 44.5zM252 555q-63 0 -103.5 37t-57.5 93q10 27 42 36q58 -64 128 -64q71 0 126 63q27 -4 40 -33q-16 -53 -64 -92.5t-111 -39.5z" />
    <glyph glyph-name="Gdotaccent" unicode="&#x120;" horiz-adv-x="689" 
d="M182 363q0 -123 51 -199.5t149 -76.5q33 0 71 3v8q0 76 -5 138q-57 15 -102 19q0 40 9 70q18 0 70 -1t95 -1q120 0 147 2q7 -33 6 -70q-36 -15 -74 -19q-4 -49 -4 -138v-58q-146 -55 -269 -55q-143 0 -221 95.5t-78 242.5q0 65 23 128.5t65.5 116t112 85t155.5 32.5
q115 0 198 -30q0 -113 -23 -193q-44 -7 -89 7q-3 62 -12 103q-36 6 -85 6q-93 0 -119 -22q-20 -16 -45.5 -68t-25.5 -125zM366 733q-28 0 -52.5 20.5t-24.5 48.5q0 36 27 69t63 33q30 0 54 -20t24 -50q0 -37 -27 -69t-64 -32z" />
    <glyph glyph-name="gdotaccent" unicode="&#x121;" horiz-adv-x="532" 
d="M466 332q0 -77 -59.5 -134t-169.5 -58q-8 -16 -8 -33q0 -15 4 -19q5 -6 104 -6q71 0 118.5 -39t47.5 -105q0 -100 -75 -154t-213 -54q-58 0 -99.5 13.5t-62.5 35.5t-30 44t-9 44q0 78 100 135q-11 13 -11 40q0 45 59 106q-119 31 -119 155q0 75 59.5 133.5t164.5 58.5
q58 0 102 -18q41 48 116 89q41 -25 53 -88q-41 -21 -109 -42q37 -43 37 -104zM263 -31q-61 0 -92 7q-27 -31 -27 -72q0 -33 26 -55t78 -22q76 0 109 21q8 5 14 24.5t6 39.5q0 57 -114 57zM330 315q0 35 -22.5 63t-58.5 28q-34 0 -46 -10q-25 -21 -25 -68q0 -42 21.5 -70.5
t54.5 -28.5q35 0 48 11q10 8 19 30.5t9 44.5zM255 556q-29 0 -54.5 21.5t-25.5 50.5q0 36 28 70.5t65 34.5q31 0 56 -20.5t25 -52.5q0 -38 -28 -71t-66 -33z" />
    <glyph glyph-name="uni0122" unicode="&#x122;" horiz-adv-x="689" 
d="M182 363q0 -123 51 -199.5t149 -76.5q33 0 71 3v8q0 76 -5 138q-57 15 -102 19q0 40 9 70q18 0 70 -1t95 -1q120 0 147 2q7 -33 6 -70q-36 -15 -74 -19q-4 -49 -4 -138v-58q-146 -55 -269 -55q-143 0 -221 95.5t-78 242.5q0 65 23 128.5t65.5 116t112 85t155.5 32.5
q115 0 198 -30q0 -113 -23 -193q-44 -7 -89 7q-3 62 -12 103q-36 6 -85 6q-93 0 -119 -22q-20 -16 -45.5 -68t-25.5 -125zM284 -92q31 38 93 46q56 -46 56 -105q0 -44 -31.5 -87.5t-93.5 -78.5q-27 13 -33 40q44 45 44 100q0 37 -35 85z" />
    <glyph glyph-name="uni0123" unicode="&#x123;" horiz-adv-x="532" 
d="M466 332q0 -77 -59.5 -134t-169.5 -58q-8 -16 -8 -33q0 -15 4 -19q5 -6 104 -6q71 0 118.5 -39t47.5 -105q0 -100 -75 -154t-213 -54q-58 0 -99.5 13.5t-62.5 35.5t-30 44t-9 44q0 78 100 135q-11 13 -11 40q0 45 59 106q-119 31 -119 155q0 75 59.5 133.5t164.5 58.5
q58 0 102 -18q41 48 116 89q41 -25 53 -88q-41 -21 -109 -42q37 -43 37 -104zM263 -31q-61 0 -92 7q-27 -31 -27 -72q0 -33 26 -55t78 -22q76 0 109 21q8 5 14 24.5t6 39.5q0 57 -114 57zM330 315q0 35 -22.5 63t-58.5 28q-34 0 -46 -10q-25 -21 -25 -68q0 -42 21.5 -70.5
t54.5 -28.5q35 0 48 11q10 8 19 30.5t9 44.5zM314 603q-29 -41 -93 -51q-56 47 -56 102q0 89 125 160q27 -13 33 -40q-44 -42 -44 -92q0 -34 35 -79z" />
    <glyph glyph-name="Hcircumflex" unicode="&#x124;" horiz-adv-x="778" 
d="M519 582q-48 15 -87 19q0 39 8 70q19 0 71 -1t86 -1q115 0 154 2q7 -33 6 -70q-40 -15 -81 -19q-4 -49 -4 -138v-273q0 -48 4 -83q41 -4 81 -19q1 -37 -6 -70q-39 2 -154 2q-34 0 -86 -1t-71 -1q-8 31 -8 70q39 4 87 19q5 24 5 61v145q-112 7 -189 7h-79v-130
q0 -48 4 -83q41 -4 81 -19q1 -37 -6 -70q-39 2 -154 2q-34 0 -86 -1t-71 -1q-8 31 -8 70q39 4 87 19q5 24 5 61v295q0 76 -5 138q-48 15 -87 19q0 39 8 70q19 0 71 -1t86 -1q115 0 154 2q7 -33 6 -70q-40 -15 -81 -19q-4 -49 -4 -138v-49h268v49q0 76 -5 138zM522 714
l-135 80l-133 -80q-34 21 -44 56l137 130q35 7 79 7l144 -133q-15 -38 -48 -60z" />
    <glyph glyph-name="hcircumflex" unicode="&#x125;" horiz-adv-x="626" 
d="M393 139v145q0 56 -16 84.5t-63 28.5q-35 0 -77 -13v-225q0 -39 3 -75q41 -5 67 -18q0 -48 -6 -67q-50 2 -133 2q-39 0 -88 -1t-64 -1q-7 21 -7 67q45 5 80 17q4 29 4 56v513q-45 12 -79 16q-10 32 -4 61q97 34 219 37l12 -12q-4 -133 -4 -290q70 34 143 34q63 0 110 -40
t47 -116v-183q0 -39 3 -75q47 -5 75 -18q0 -49 -7 -67q-52 2 -140 2q-32 0 -71.5 -1t-52.5 -1q-5 20 -5 67q30 7 50 17q4 29 4 56zM287 794l-135 80l-133 -80q-34 21 -44 56l137 130q35 7 79 7l144 -133q-15 -38 -48 -60z" />
    <glyph glyph-name="Hbar" unicode="&#x126;" horiz-adv-x="782" 
d="M521 582q-48 15 -87 19q0 39 8 70q19 0 71 -1t86 -1q115 0 154 2q7 -33 6 -70q-40 -15 -81 -19q-2 -21 -4 -61h76q13 -41 0 -82h-76v-268q0 -48 4 -83q41 -4 81 -19q1 -37 -6 -70q-39 2 -154 2q-34 0 -86 -1t-71 -1q-8 31 -8 70q39 4 87 19q5 24 5 61v133q-112 7 -189 7
h-79v-118q0 -48 4 -83q41 -4 81 -19q1 -37 -6 -70q-39 2 -154 2q-34 0 -86 -1t-71 -1q-8 31 -8 70q39 4 87 19q5 24 5 61v290h-83q-14 42 0 82h82l-4 61q-48 15 -87 19q0 39 8 70q19 0 71 -1t86 -1q115 0 154 2q7 -33 6 -70q-40 -15 -81 -19q-2 -21 -4 -61h267zM258 439v-59
h268v59h-268z" />
    <glyph glyph-name="hbar" unicode="&#x127;" horiz-adv-x="628" 
d="M395 139v136q0 54 -16 80.5t-63 26.5q-32 0 -77 -12v-211q0 -39 3 -75q41 -5 67 -18q0 -48 -6 -67q-50 2 -133 2q-39 0 -88 -1t-64 -1q-7 21 -7 67q45 5 80 17q4 29 4 56v401h-83q-13 37 0 68h83v44q-45 12 -79 16q-10 32 -4 61q97 34 219 37l12 -12q-2 -54 -4 -146h142
q12 -34 0 -68h-142v-76v-15q70 34 143 34q63 0 110 -39t47 -113v-172q0 -39 3 -75q47 -5 75 -18q0 -49 -7 -67q-52 2 -140 2q-32 0 -71.5 -1t-52.5 -1q-5 20 -5 67q30 7 50 17q4 29 4 56z" />
    <glyph glyph-name="uni0128" unicode="&#x128;" horiz-adv-x="362" 
d="M103 582q-48 15 -87 19q0 39 8 70q19 0 71 -1t86 -1q115 0 154 2q7 -33 6 -70q-40 -15 -81 -19q-4 -49 -4 -138v-273q0 -48 4 -83q41 -4 81 -19q1 -37 -6 -70q-39 2 -154 2q-34 0 -86 -1t-71 -1q-8 31 -8 70q39 4 87 19q5 24 5 61v295q0 76 -5 138zM50 744q-37 13 -47 45
q24 44 59 71t67 27q25 0 65 -26t55 -26q25 0 64 41q34 -12 48 -43q-25 -44 -60.5 -72t-68.5 -28q-24 0 -65 26t-53 26q-25 0 -64 -41z" />
    <glyph glyph-name="uni0129" unicode="&#x129;" horiz-adv-x="354" 
d="M257 198v-39q0 -39 3 -75q46 -5 75 -18q0 -48 -6 -67q-54 2 -141 2q-39 0 -88 -1t-64 -1q-7 21 -7 67q45 5 80 17q4 29 4 56v245q-45 12 -79 16q-10 32 -4 61q97 34 219 37l12 -12q-4 -133 -4 -288zM42 566q-37 12 -49 46q25 45 59.5 72.5t67.5 27.5q26 0 64.5 -26
t53.5 -26q23 0 63 42q34 -11 50 -44q-26 -46 -61 -74t-69 -28q-26 0 -64.5 26t-51.5 26q-23 0 -63 -42z" />
    <glyph glyph-name="Imacron" unicode="&#x12a;" horiz-adv-x="362" 
d="M103 582q-48 15 -87 19q0 39 8 70q19 0 71 -1t86 -1q115 0 154 2q7 -33 6 -70q-40 -15 -81 -19q-4 -49 -4 -138v-273q0 -48 4 -83q41 -4 81 -19q1 -37 -6 -70q-39 2 -154 2q-34 0 -86 -1t-71 -1q-8 31 -8 70q39 4 87 19q5 24 5 61v295q0 76 -5 138zM31 836h302
q21 -48 0 -97h-302q-20 51 0 97z" />
    <glyph glyph-name="imacron" unicode="&#x12b;" horiz-adv-x="354" 
d="M257 198v-39q0 -39 3 -75q46 -5 75 -18q0 -48 -6 -67q-54 2 -141 2q-39 0 -88 -1t-64 -1q-7 21 -7 67q45 5 80 17q4 29 4 56v245q-45 12 -79 16q-10 32 -4 61q97 34 219 37l12 -12q-4 -133 -4 -288zM26 670h292q20 -50 0 -101h-292q-20 53 0 101z" />
    <glyph glyph-name="Ibreve" unicode="&#x12c;" horiz-adv-x="362" 
d="M103 582q-48 15 -87 19q0 39 8 70q19 0 71 -1t86 -1q115 0 154 2q7 -33 6 -70q-40 -15 -81 -19q-4 -49 -4 -138v-273q0 -48 4 -83q41 -4 81 -19q1 -37 -6 -70q-39 2 -154 2q-34 0 -86 -1t-71 -1q-8 31 -8 70q39 4 87 19q5 24 5 61v295q0 76 -5 138zM175 730
q-59 0 -102 33.5t-62 81.5q11 26 47 40q60 -58 125 -58q67 0 127 58q34 -12 43 -38q-19 -47 -70 -82t-108 -35z" />
    <glyph glyph-name="ibreve" unicode="&#x12d;" horiz-adv-x="354" 
d="M257 198v-39q0 -39 3 -75q46 -5 75 -18q0 -48 -6 -67q-54 2 -141 2q-39 0 -88 -1t-64 -1q-7 21 -7 67q45 5 80 17q4 29 4 56v245q-45 12 -79 16q-10 32 -4 61q97 34 219 37l12 -12q-4 -133 -4 -288zM165 540q-63 0 -103.5 37t-57.5 93q10 27 42 36q58 -64 128 -64
q71 0 126 63q27 -4 40 -33q-16 -53 -64 -92.5t-111 -39.5z" />
    <glyph glyph-name="Iogonek" unicode="&#x12e;" horiz-adv-x="362" 
d="M103 582q-48 15 -87 19q0 39 8 70q19 0 71 -1t86 -1q115 0 154 2q7 -33 6 -70q-40 -15 -81 -19q-4 -49 -4 -138v-273q0 -48 4 -83q41 -4 81 -19q1 -37 -6 -70l-57 2q-52 -24 -82 -53.5t-30 -53.5q0 -15 10.5 -25.5t25.5 -10.5q20 0 53 9q21 -24 21 -61q-64 -35 -125 -35
q-43 0 -72.5 23.5t-29.5 60.5q0 45 38.5 82t100.5 60v4q-34 0 -89.5 -1t-74.5 -1q-8 31 -8 70q39 4 87 19q5 24 5 61v295q0 76 -5 138z" />
    <glyph glyph-name="iogonek" unicode="&#x12f;" horiz-adv-x="354" 
d="M257 198v-39q0 -39 3 -75q46 -5 75 -18q0 -48 -6 -67q-13 1 -61 1q-95 -39 -95 -98q0 -18 10 -31t26 -13q18 0 52 9q21 -24 21 -61q-64 -35 -125 -35q-43 0 -72.5 28.5t-29.5 69.5q0 40 32.5 74t86.5 54v4q-34 0 -79 -1t-59 -1q-7 21 -7 67q45 5 80 17q4 29 4 56v245
q-45 12 -79 16q-10 32 -4 61q97 34 219 37l12 -12q-4 -133 -4 -288zM170 556q-29 0 -54.5 21.5t-25.5 50.5q0 36 28 70.5t65 34.5q31 0 56 -20.5t25 -52.5q0 -38 -28 -71t-66 -33z" />
    <glyph glyph-name="Idotaccent" unicode="&#x130;" horiz-adv-x="362" 
d="M103 582q-48 15 -87 19q0 39 8 70q19 0 71 -1t86 -1q115 0 154 2q7 -33 6 -70q-40 -15 -81 -19q-4 -49 -4 -138v-273q0 -48 4 -83q41 -4 81 -19q1 -37 -6 -70q-39 2 -154 2q-34 0 -86 -1t-71 -1q-8 31 -8 70q39 4 87 19q5 24 5 61v295q0 76 -5 138zM175 733
q-28 0 -52.5 20.5t-24.5 48.5q0 36 27 69t63 33q30 0 54 -20t24 -50q0 -37 -27 -69t-64 -32z" />
    <glyph glyph-name="dotlessi" unicode="&#x131;" horiz-adv-x="354" 
d="M257 198v-39q0 -39 3 -75q46 -5 75 -18q0 -48 -6 -67q-54 2 -141 2q-39 0 -88 -1t-64 -1q-7 21 -7 67q45 5 80 17q4 29 4 56v245q-45 12 -79 16q-10 32 -4 61q97 34 219 37l12 -12q-4 -133 -4 -288z" />
    <glyph glyph-name="IJ" unicode="&#x132;" horiz-adv-x="704" 
d="M103 582q-48 15 -87 19q0 39 8 70q19 0 71 -1t86 -1q115 0 154 2q7 -33 6 -70q-40 -15 -81 -19q-4 -49 -4 -138v-273q0 -48 4 -83q41 -4 81 -19q1 -37 -6 -70q-39 2 -154 2q-34 0 -86 -1t-71 -1q-8 31 -8 70q39 4 87 19q5 24 5 61v295q0 76 -5 138zM608 444v-401
q0 -120 -76 -185t-211 -73q-25 31 -19 69q158 62 158 200v390q0 76 -5 138q-48 15 -87 19q0 39 8 70q19 0 71.5 -1t86.5 -1q114 0 153 2q7 -33 6 -70q-40 -15 -81 -19q-4 -49 -4 -138z" />
    <glyph glyph-name="ij" unicode="&#x133;" horiz-adv-x="675" 
d="M253 198v-39q0 -39 3 -75q46 -5 75 -18q0 -48 -6 -67q-54 2 -141 2q-39 0 -88 -1t-64 -1q-7 21 -7 67q45 5 80 17q4 29 4 56v245q-45 12 -79 16q-10 32 -4 61q97 34 219 37l12 -12q-4 -133 -4 -288zM166 556q-29 0 -54.5 21.5t-25.5 50.5q0 36 28 70.5t65 34.5
q31 0 56 -20.5t25 -52.5q0 -38 -28 -71t-66 -33zM596 185v-172q0 -63 -20 -113.5t-54.5 -82.5t-70.5 -51.5t-78 -31.5q-28 16 -28 51q107 77 107 242v357q-45 12 -79 16q-10 32 -4 61q97 34 219 37l12 -12q-4 -252 -4 -301zM509 556q-29 0 -54.5 21.5t-25.5 50.5
q0 36 28 70.5t65 34.5q31 0 56 -20.5t25 -52.5q0 -38 -28 -71t-66 -33z" />
    <glyph glyph-name="Jcircumflex" unicode="&#x134;" horiz-adv-x="342" 
d="M246 444v-401q0 -120 -76 -185t-211 -73q-25 31 -19 69q158 62 158 200v390q0 76 -5 138q-48 15 -87 19q0 39 8 70q19 0 71.5 -1t86.5 -1q114 0 153 2q7 -33 6 -70q-40 -15 -81 -19q-4 -49 -4 -138zM303 714l-135 80l-133 -80q-34 21 -44 56l137 130q35 7 79 7l144 -133
q-15 -38 -48 -60z" />
    <glyph glyph-name="jcircumflex" unicode="&#x135;" horiz-adv-x="321" 
d="M242 185v-172q0 -63 -20 -113.5t-54.5 -82.5t-70.5 -51.5t-78 -31.5q-28 16 -28 51q107 77 107 242v357q-45 12 -79 16q-10 32 -4 61q97 34 219 37l12 -12q-4 -252 -4 -301zM261 528l-110 100l-104 -100q-36 9 -51 40l110 172q45 10 90 9l118 -177q-19 -30 -53 -44z" />
    <glyph glyph-name="uni0136" unicode="&#x136;" horiz-adv-x="712" 
d="M608 582l-179 -184l200 -311q38 -4 74 -19q1 -37 -6 -70q-42 2 -130 2h-66l-177 290l-68 -71v-48q0 -48 4 -83q41 -4 81 -19q1 -37 -6 -70q-39 2 -154 2q-34 0 -86 -1t-71 -1q-8 31 -8 70q39 4 87 19q5 24 5 61v295q0 76 -5 138q-48 15 -87 19q0 39 8 70q19 0 71 -1
t86 -1q115 0 154 2q7 -33 6 -70q-40 -15 -81 -19q-4 -49 -4 -138v-89l214 229l-78 17q0 39 8 70q21 0 68.5 -1t75.5 -1q100 0 134 2q7 -33 6 -70q-38 -15 -76 -19zM318 -92q31 38 93 46q56 -46 56 -105q0 -44 -31.5 -87.5t-93.5 -78.5q-27 13 -33 40q44 45 44 100
q0 37 -35 85z" />
    <glyph glyph-name="uni0137" unicode="&#x137;" horiz-adv-x="630" 
d="M237 466v-174l79 22l82 86l-74 18q0 41 8 67q14 0 69.5 -1t97.5 -1q40 0 98 2q6 -21 6 -67q-51 -16 -85 -20l-107 -117q59 -107 108 -164q19 -22 33 -30.5t36 -8.5q15 0 30 3q16 -28 11 -58q-20 -12 -66 -23.5t-90 -11.5q-24 0 -48 20t-47 58.5t-40 75t-39 89.5l-62 -15
v-57q0 -39 3 -75q46 -5 75 -18q0 -48 -6 -67q-54 2 -141 2q-39 0 -88 -1t-64 -1q-7 21 -7 67q45 5 80 17q4 29 4 56v513q-45 12 -79 16q-10 32 -4 61q97 34 219 37l12 -12q-4 -133 -4 -288zM279 -92q31 38 93 46q56 -46 56 -105q0 -44 -31.5 -87.5t-93.5 -78.5
q-27 13 -33 40q44 45 44 100q0 37 -35 85z" />
    <glyph glyph-name="kgreenlandic" unicode="&#x138;" horiz-adv-x="650" 
d="M257 198v-39q0 -39 3 -75q46 -5 75 -18q0 -48 -6 -67q-54 2 -141 2q-39 0 -88 -1t-64 -1q-7 21 -7 67q45 5 80 17q4 29 4 56v245q-45 12 -79 16q-10 32 -4 61q97 34 219 37l12 -12q-4 -138 -4 -194l79 22l82 86l-74 18q0 41 8 67q14 0 69.5 -1t97.5 -1q40 0 98 2
q6 -21 6 -67q-51 -16 -85 -20l-107 -117q59 -107 108 -164q19 -22 33 -30.5t36 -8.5q15 0 30 3q16 -28 11 -58q-20 -12 -66 -23.5t-90 -11.5q-24 0 -48 20t-47 58.5t-40 75t-39 89.5l-62 -15v-18z" />
    <glyph glyph-name="Lacute" unicode="&#x139;" horiz-adv-x="577" 
d="M256 444v-347h191q21 72 36 147q41 7 89 -7q0 -115 -11 -225l-12 -13q-62 2 -235 2h-133q-34 0 -86 -1t-71 -1q-8 31 -8 70q39 4 87 19q5 24 5 61v295q0 76 -5 138q-48 15 -87 19q0 39 8 70q19 0 71 -1t86 -1q139 0 186 2q7 -33 6 -70q-53 -15 -113 -19q-4 -49 -4 -138z
M90 786l200 137q60 -31 74 -95l-7 -25l-233 -82q-27 25 -34 65z" />
    <glyph glyph-name="lacute" unicode="&#x13a;" horiz-adv-x="330" 
d="M237 466v-307q0 -39 3 -75q46 -5 75 -18q0 -48 -6 -67q-54 2 -144 2q-37 0 -85.5 -1t-63.5 -1q-7 21 -7 67q45 5 80 17q4 29 4 56v513q-45 12 -79 16q-10 32 -4 61q97 34 219 37l12 -12q-4 -133 -4 -288zM51 866l200 137q60 -31 74 -95l-7 -25l-233 -82q-27 25 -34 65z
" />
    <glyph glyph-name="uni013B" unicode="&#x13b;" horiz-adv-x="577" 
d="M256 444v-347h191q21 72 36 147q41 7 89 -7q0 -115 -11 -225l-12 -13q-62 2 -235 2h-133q-34 0 -86 -1t-71 -1q-8 31 -8 70q39 4 87 19q5 24 5 61v295q0 76 -5 138q-48 15 -87 19q0 39 8 70q19 0 71 -1t86 -1q139 0 186 2q7 -33 6 -70q-53 -15 -113 -19q-4 -49 -4 -138z
M240 -92q31 38 93 46q56 -46 56 -105q0 -44 -31.5 -87.5t-93.5 -78.5q-27 13 -33 40q44 45 44 100q0 37 -35 85z" />
    <glyph glyph-name="uni013C" unicode="&#x13c;" horiz-adv-x="330" 
d="M237 466v-307q0 -39 3 -75q46 -5 75 -18q0 -48 -6 -67q-54 2 -144 2q-37 0 -85.5 -1t-63.5 -1q-7 21 -7 67q45 5 80 17q4 29 4 56v513q-45 12 -79 16q-10 32 -4 61q97 34 219 37l12 -12q-4 -133 -4 -288zM90 -92q31 38 93 46q56 -46 56 -105q0 -44 -31.5 -87.5
t-93.5 -78.5q-27 13 -33 40q44 45 44 100q0 37 -35 85z" />
    <glyph glyph-name="Lcaron" unicode="&#x13d;" horiz-adv-x="577" 
d="M256 444v-347h191q21 72 36 147q41 7 89 -7q0 -115 -11 -225l-12 -13q-62 2 -235 2h-133q-34 0 -86 -1t-71 -1q-8 31 -8 70q39 4 87 19q5 24 5 61v295q0 76 -5 138q-48 15 -87 19q0 39 8 70q19 0 71 -1t86 -1q139 0 186 2q7 -33 6 -70q-53 -15 -113 -19q-4 -49 -4 -138z
M417 691l12 12q79 8 119 -22l-58 -225q-42 -5 -76 6z" />
    <glyph glyph-name="lcaron" unicode="&#x13e;" horiz-adv-x="438" 
d="M237 466v-307q0 -39 3 -75q46 -5 75 -18q0 -48 -6 -67q-54 2 -144 2q-37 0 -85.5 -1t-63.5 -1q-7 21 -7 67q45 5 80 17q4 29 4 56v513q-45 12 -79 16q-10 32 -4 61q97 34 219 37l12 -12q-4 -133 -4 -288zM287 754l12 12q79 8 119 -22l-58 -225q-42 -5 -76 6z" />
    <glyph glyph-name="Ldot" unicode="&#x13f;" horiz-adv-x="577" 
d="M256 444v-347h191q21 72 36 147q41 7 89 -7q0 -115 -11 -225l-12 -13q-62 2 -235 2h-133q-34 0 -86 -1t-71 -1q-8 31 -8 70q39 4 87 19q5 24 5 61v295q0 76 -5 138q-48 15 -87 19q0 39 8 70q19 0 71 -1t86 -1q139 0 186 2q7 -33 6 -70q-53 -15 -113 -19q-4 -49 -4 -138z
M463 301q-29 0 -54.5 21.5t-25.5 50.5q0 36 28 70.5t65 34.5q31 0 56 -20.5t25 -52.5q0 -38 -28 -71t-66 -33z" />
    <glyph glyph-name="ldot" unicode="&#x140;" horiz-adv-x="412" 
d="M237 466v-307q0 -39 3 -75q46 -5 75 -18q0 -48 -6 -67q-54 2 -144 2q-37 0 -85.5 -1t-63.5 -1q-7 21 -7 67q45 5 80 17q4 29 4 56v513q-45 12 -79 16q-10 32 -4 61q97 34 219 37l12 -12q-4 -133 -4 -288zM364 226q-29 0 -54.5 21.5t-25.5 50.5q0 36 28 70.5t65 34.5
q31 0 56 -20.5t25 -52.5q0 -38 -28 -71t-66 -33z" />
    <glyph glyph-name="Lslash" unicode="&#x141;" horiz-adv-x="594" 
d="M266 444v-19l121 83q37 -28 46 -79l-167 -98v-234h191q21 72 36 147q41 7 89 -7q0 -115 -11 -225l-12 -13q-62 2 -235 2h-133q-34 0 -86 -1t-71 -1q-8 31 -8 70q39 4 87 19q5 24 5 61v87l-66 -45q-37 28 -46 79l112 61v113q0 76 -5 138q-48 15 -87 19q0 39 8 70
q19 0 71 -1t86 -1q139 0 186 2q7 -33 6 -70q-53 -15 -113 -19q-4 -49 -4 -138z" />
    <glyph glyph-name="lslash" unicode="&#x142;" horiz-adv-x="370" 
d="M271 754q-4 -116 -4 -248l63 45q39 -29 48 -81l-111 -62v-249q0 -39 3 -75q46 -5 75 -18q0 -48 -6 -67q-54 2 -144 2q-37 0 -85.5 -1t-63.5 -1q-7 21 -7 67q45 5 80 17q4 29 4 56v176l-80 -56q-39 29 -48 81l128 70v242q-45 12 -79 16q-10 32 -4 61q97 34 219 37z" />
    <glyph glyph-name="Nacute" unicode="&#x143;" horiz-adv-x="748" 
d="M652 12q-71 -17 -166 -17l-244 432l-23 110h-4v-366q0 -48 4 -83q41 -4 81 -19q1 -37 -6 -70q-39 2 -135 2q-23 0 -68.5 -1t-66.5 -1q-8 31 -8 70q39 4 87 19q5 24 5 61v295q0 76 -5 138q-48 15 -87 19q0 39 8 70q20 0 69 -1t76 -1q77 0 111 -4l236 -416l25 -110h4v305
q0 76 -5 138q-48 15 -87 19q0 39 8 70q21 0 68 -1t70 -1q94 0 132 2q7 -33 6 -70q-40 -15 -81 -19q-4 -49 -4 -138v-432zM291 786l200 137q60 -31 74 -95l-7 -25l-233 -82q-27 25 -34 65z" />
    <glyph glyph-name="nacute" unicode="&#x144;" horiz-adv-x="646" 
d="M214 497l16 -8q6 -13 17 -48q71 57 153 57q63 0 110 -40t47 -116v-183q0 -39 3 -75q47 -5 75 -18q0 -49 -7 -67q-52 2 -140 2q-32 0 -71.5 -1t-52.5 -1q-5 20 -5 67q30 7 50 17q4 29 4 56v145q0 56 -16 84.5t-63 28.5q-32 0 -77 -25v-213q0 -39 3 -75q39 -5 67 -18
q0 -48 -6 -67q-50 2 -133 2q-39 0 -88 -1t-64 -1q-7 21 -7 67q45 5 80 17q4 29 4 56v245q-36 11 -79 16q-11 33 -4 61q85 30 184 36zM258 574l95 167q61 13 143 13l11 -29l-196 -194q-39 3 -53 43z" />
    <glyph glyph-name="uni0145" unicode="&#x145;" horiz-adv-x="748" 
d="M652 12q-71 -17 -166 -17l-244 432l-23 110h-4v-366q0 -48 4 -83q41 -4 81 -19q1 -37 -6 -70q-39 2 -135 2q-23 0 -68.5 -1t-66.5 -1q-8 31 -8 70q39 4 87 19q5 24 5 61v295q0 76 -5 138q-48 15 -87 19q0 39 8 70q20 0 69 -1t76 -1q77 0 111 -4l236 -416l25 -110h4v305
q0 76 -5 138q-48 15 -87 19q0 39 8 70q21 0 68 -1t70 -1q94 0 132 2q7 -33 6 -70q-40 -15 -81 -19q-4 -49 -4 -138v-432zM307 -92q31 38 93 46q56 -46 56 -105q0 -44 -31.5 -87.5t-93.5 -78.5q-27 13 -33 40q44 45 44 100q0 37 -35 85z" />
    <glyph glyph-name="uni0146" unicode="&#x146;" horiz-adv-x="646" 
d="M214 497l16 -8q6 -13 17 -48q71 57 153 57q63 0 110 -40t47 -116v-183q0 -39 3 -75q47 -5 75 -18q0 -49 -7 -67q-52 2 -140 2q-32 0 -71.5 -1t-52.5 -1q-5 20 -5 67q30 7 50 17q4 29 4 56v145q0 56 -16 84.5t-63 28.5q-32 0 -77 -25v-213q0 -39 3 -75q39 -5 67 -18
q0 -48 -6 -67q-50 2 -133 2q-39 0 -88 -1t-64 -1q-7 21 -7 67q45 5 80 17q4 29 4 56v245q-36 11 -79 16q-11 33 -4 61q85 30 184 36zM257 -92q31 38 93 46q56 -46 56 -105q0 -44 -31.5 -87.5t-93.5 -78.5q-27 13 -33 40q44 45 44 100q0 37 -35 85z" />
    <glyph glyph-name="Ncaron" unicode="&#x147;" horiz-adv-x="748" 
d="M652 12q-71 -17 -166 -17l-244 432l-23 110h-4v-366q0 -48 4 -83q41 -4 81 -19q1 -37 -6 -70q-39 2 -135 2q-23 0 -68.5 -1t-66.5 -1q-8 31 -8 70q39 4 87 19q5 24 5 61v295q0 76 -5 138q-48 15 -87 19q0 39 8 70q20 0 69 -1t76 -1q77 0 111 -4l236 -416l25 -110h4v305
q0 76 -5 138q-48 15 -87 19q0 39 8 70q21 0 68 -1t70 -1q94 0 132 2q7 -33 6 -70q-40 -15 -81 -19q-4 -49 -4 -138v-432zM212 854q15 38 48 60l135 -80l133 80q34 -21 44 -56l-137 -130q-35 -7 -79 -7z" />
    <glyph glyph-name="ncaron" unicode="&#x148;" horiz-adv-x="646" 
d="M214 497l16 -8q6 -13 17 -48q71 57 153 57q63 0 110 -40t47 -116v-183q0 -39 3 -75q47 -5 75 -18q0 -49 -7 -67q-52 2 -140 2q-32 0 -71.5 -1t-52.5 -1q-5 20 -5 67q30 7 50 17q4 29 4 56v145q0 56 -16 84.5t-63 28.5q-32 0 -77 -25v-213q0 -39 3 -75q39 -5 67 -18
q0 -48 -6 -67q-50 2 -133 2q-39 0 -88 -1t-64 -1q-7 21 -7 67q45 5 80 17q4 29 4 56v245q-36 11 -79 16q-11 33 -4 61q85 30 184 36zM170 719q19 30 53 44l110 -100l104 100q35 -8 51 -40l-110 -172q-45 -11 -90 -9z" />
    <glyph glyph-name="napostrophe" unicode="&#x149;" horiz-adv-x="646" 
d="M-14 679q3 29 28 49t56 20q35 0 57 -21.5t22 -56.5q0 -47 -45 -97.5t-102 -75.5q-24 10 -30 31q56 61 56 101q0 38 -42 50zM214 497l16 -8q6 -13 17 -48q71 57 153 57q63 0 110 -40t47 -116v-183q0 -39 3 -75q47 -5 75 -18q0 -49 -7 -67q-52 2 -140 2q-32 0 -71.5 -1
t-52.5 -1q-5 20 -5 67q30 7 50 17q4 29 4 56v145q0 56 -16 84.5t-63 28.5q-32 0 -77 -25v-213q0 -39 3 -75q39 -5 67 -18q0 -48 -6 -67q-50 2 -133 2q-39 0 -88 -1t-64 -1q-7 21 -7 67q45 5 80 17q4 29 4 56v245q-36 11 -79 16q-11 33 -4 61q85 30 184 36z" />
    <glyph glyph-name="Eng" unicode="&#x14a;" horiz-adv-x="748" 
d="M525 -126q17 15 20 126h-59l-244 427l-23 110h-4v-366q0 -48 4 -83q41 -4 81 -19q1 -37 -6 -70q-39 2 -135 2q-23 0 -68.5 -1t-66.5 -1q-8 31 -8 70q39 4 87 19q5 24 5 61v295q0 76 -5 138q-48 15 -87 19q0 39 8 70q20 0 69 -1t76 -1q77 0 111 -4l236 -416l25 -110h4v305
q0 76 -5 138q-48 15 -87 19q0 39 8 70q21 0 68 -1t70 -1q94 0 132 2q7 -33 6 -70q-40 -15 -81 -19q-4 -49 -4 -138v-399q0 -137 -59 -221.5t-144 -84.5q-60 0 -99 18q0 67 37 117l13 6q33 -23 72 -23q32 0 53 17z" />
    <glyph glyph-name="eng" unicode="&#x14b;" horiz-adv-x="628" 
d="M214 497l16 -8q6 -13 17 -48q71 57 153 57q63 0 110 -40t47 -116v-280q0 -76 -35 -151t-94 -123.5t-122 -48.5q-39 0 -84 16q3 72 37 111l10 6q29 -16 59 -16q44 0 60 16q9 9 17 52.5t8 109.5v250q0 56 -16 84.5t-63 28.5q-32 0 -77 -25v-213q0 -39 3 -75q39 -5 67 -18
q0 -48 -6 -67q-50 2 -133 2q-39 0 -88 -1t-64 -1q-7 21 -7 67q45 5 80 17q4 29 4 56v245q-36 11 -79 16q-11 33 -4 61q85 30 184 36z" />
    <glyph glyph-name="Omacron" unicode="&#x14c;" horiz-adv-x="694" 
d="M337 -18q-147 0 -228.5 96t-81.5 245q0 89 39 171.5t116.5 138t174.5 55.5q146 0 228 -96t82 -245q0 -89 -39 -171.5t-116.5 -138t-174.5 -55.5zM365 93q27 0 54.5 9.5t35.5 19.5q56 66 56 185q0 117 -45 193.5t-137 76.5q-27 0 -54.5 -9.5t-35.5 -19.5q-56 -66 -56 -185
q0 -117 45 -193.5t137 -76.5zM198 836h302q21 -48 0 -97h-302q-20 51 0 97z" />
    <glyph glyph-name="omacron" unicode="&#x14d;" horiz-adv-x="543" 
d="M278 498q116 0 175.5 -68.5t59.5 -179.5q0 -101 -68.5 -182.5t-179.5 -81.5q-115 0 -175 68t-60 180q0 101 68.5 182.5t179.5 81.5zM280 83q39 0 50 15q36 46 36 127q0 41 -9.5 79t-33.5 67.5t-60 29.5q-39 0 -50 -15q-36 -46 -36 -127q0 -41 9.5 -79t33.5 -67.5
t60 -29.5zM127 670h292q20 -50 0 -101h-292q-20 53 0 101z" />
    <glyph glyph-name="Obreve" unicode="&#x14e;" horiz-adv-x="694" 
d="M337 -18q-147 0 -228.5 96t-81.5 245q0 89 39 171.5t116.5 138t174.5 55.5q146 0 228 -96t82 -245q0 -89 -39 -171.5t-116.5 -138t-174.5 -55.5zM365 93q27 0 54.5 9.5t35.5 19.5q56 66 56 185q0 117 -45 193.5t-137 76.5q-27 0 -54.5 -9.5t-35.5 -19.5q-56 -66 -56 -185
q0 -117 45 -193.5t137 -76.5zM342 730q-59 0 -102 33.5t-62 81.5q11 26 47 40q60 -58 125 -58q67 0 127 58q34 -12 43 -38q-19 -47 -70 -82t-108 -35z" />
    <glyph glyph-name="obreve" unicode="&#x14f;" horiz-adv-x="543" 
d="M278 498q116 0 175.5 -68.5t59.5 -179.5q0 -101 -68.5 -182.5t-179.5 -81.5q-115 0 -175 68t-60 180q0 101 68.5 182.5t179.5 81.5zM280 83q39 0 50 15q36 46 36 127q0 41 -9.5 79t-33.5 67.5t-60 29.5q-39 0 -50 -15q-36 -46 -36 -127q0 -41 9.5 -79t33.5 -67.5
t60 -29.5zM266 555q-63 0 -103.5 37t-57.5 93q10 27 42 36q58 -64 128 -64q71 0 126 63q27 -4 40 -33q-16 -53 -64 -92.5t-111 -39.5z" />
    <glyph glyph-name="Ohungarumlaut" unicode="&#x150;" horiz-adv-x="694" 
d="M337 -18q-147 0 -228.5 96t-81.5 245q0 89 39 171.5t116.5 138t174.5 55.5q146 0 228 -96t82 -245q0 -89 -39 -171.5t-116.5 -138t-174.5 -55.5zM365 93q27 0 54.5 9.5t35.5 19.5q56 66 56 185q0 117 -45 193.5t-137 76.5q-27 0 -54.5 -9.5t-35.5 -19.5q-56 -66 -56 -185
q0 -117 45 -193.5t137 -76.5zM415 931l8 -22l-132 -184q-37 6 -53 31l65 158q50 17 112 17zM581 931l8 -22l-142 -184q-37 6 -53 31l75 158q50 17 112 17z" />
    <glyph glyph-name="ohungarumlaut" unicode="&#x151;" horiz-adv-x="543" 
d="M278 498q116 0 175.5 -68.5t59.5 -179.5q0 -101 -68.5 -182.5t-179.5 -81.5q-115 0 -175 68t-60 180q0 101 68.5 182.5t179.5 81.5zM280 83q39 0 50 15q36 46 36 127q0 41 -9.5 79t-33.5 67.5t-60 29.5q-39 0 -50 -15q-36 -46 -36 -127q0 -41 9.5 -79t33.5 -67.5
t60 -29.5zM468 765l8 -22l-121 -191q-42 3 -57 22l59 169q48 22 111 22zM307 765l8 -22l-111 -191q-42 3 -57 22l49 169q48 22 111 22z" />
    <glyph glyph-name="OE" unicode="&#x152;" horiz-adv-x="917" 
d="M761 390l12 -12q-2 -52 -11 -82l-179 3v-202h191q19 52 36 123q42 6 87 -7q0 -85 -11 -201l-12 -13q-82 2 -286 2h-107q-87 -13 -147 -13q-145 0 -226 94t-81 241q0 87 38.5 168t115 136t172.5 55q60 0 138 -13h140q173 0 235 2l12 -13q3 -121 -13 -195q-51 -9 -89 0
q-5 59 -15 110h-178v-186zM384 99q33 0 51 2v468q-44 2 -66 2q-33 0 -67.5 -8.5t-46.5 -19.5q-72 -68 -72 -183q0 -112 50 -186.5t151 -74.5z" />
    <glyph glyph-name="oe" unicode="&#x153;" horiz-adv-x="830" 
d="M278 498q105 0 170 -73q70 73 156 73q54 0 94 -19t60 -50.5t29.5 -64t9.5 -66.5t-9 -55l-12 -12q-112 2 -183 2h-82q7 -59 37 -100t88 -41q53 0 135 34q22 -20 26 -62q-40 -32 -96.5 -55t-108.5 -23q-103 0 -166 71q-71 -71 -161 -71q-115 0 -175 68t-60 180
q0 101 68.5 182.5t179.5 81.5zM366 228q-1 66 -26.5 119.5t-76.5 53.5q-86 0 -86 -142q0 -41 9.5 -79t33.5 -67.5t60 -29.5q84 0 86 135v10zM585 405q-26 0 -45.5 -27t-26.5 -71h70q22 0 70 3q0 95 -68 95z" />
    <glyph glyph-name="Racute" unicode="&#x154;" horiz-adv-x="668" 
d="M453 0l-126 272h-10q-31 0 -61 3v-104q0 -48 4 -83q41 -4 81 -19q1 -37 -6 -70q-39 2 -154 2q-34 0 -86 -1t-71 -1q-8 31 -8 70q39 4 87 19q5 24 5 61v295q0 76 -5 138q-48 15 -87 19q0 39 8 70q19 0 71 -1t86 -1t101 2.5t93 2.5q99 0 156.5 -48.5t57.5 -121.5
q0 -54 -33 -104t-88 -84l113 -229q41 -4 81 -19q1 -37 -6 -70q-44 2 -134 2h-69zM334 577q-52 0 -78 -2v-203q14 -1 44 -1q22 0 44 3.5t34.5 7.5t15.5 6q39 29 39 91q0 38 -26.5 68t-72.5 30zM216 786l200 137q60 -31 74 -95l-7 -25l-233 -82q-27 25 -34 65z" />
    <glyph glyph-name="racute" unicode="&#x155;" horiz-adv-x="498" 
d="M215 497l16 -8q14 -34 26 -80q60 86 141 86q51 0 93 -16q0 -123 -20 -190q-47 -18 -91 0q-7 65 -15 98q-6 1 -17 1q-46 0 -90 -73v-156q0 -39 3 -75q73 -5 118 -18q0 -46 -8 -67q-70 2 -182 2q-39 0 -88 -1t-64 -1q-7 21 -7 67q45 5 80 17q4 29 4 56v245q-36 11 -79 16
q-13 33 -4 61q85 30 184 36zM209 574l95 167q61 13 143 13l11 -29l-196 -194q-39 3 -53 43z" />
    <glyph glyph-name="uni0156" unicode="&#x156;" horiz-adv-x="668" 
d="M453 0l-126 272h-10q-31 0 -61 3v-104q0 -48 4 -83q41 -4 81 -19q1 -37 -6 -70q-39 2 -154 2q-34 0 -86 -1t-71 -1q-8 31 -8 70q39 4 87 19q5 24 5 61v295q0 76 -5 138q-48 15 -87 19q0 39 8 70q19 0 71 -1t86 -1t101 2.5t93 2.5q99 0 156.5 -48.5t57.5 -121.5
q0 -54 -33 -104t-88 -84l113 -229q41 -4 81 -19q1 -37 -6 -70q-44 2 -134 2h-69zM334 577q-52 0 -78 -2v-203q14 -1 44 -1q22 0 44 3.5t34.5 7.5t15.5 6q39 29 39 91q0 38 -26.5 68t-72.5 30zM304 -92q31 38 93 46q56 -46 56 -105q0 -44 -31.5 -87.5t-93.5 -78.5
q-27 13 -33 40q44 45 44 100q0 37 -35 85z" />
    <glyph glyph-name="uni0157" unicode="&#x157;" horiz-adv-x="498" 
d="M215 497l16 -8q14 -34 26 -80q60 86 141 86q51 0 93 -16q0 -123 -20 -190q-47 -18 -91 0q-7 65 -15 98q-6 1 -17 1q-46 0 -90 -73v-156q0 -39 3 -75q73 -5 118 -18q0 -46 -8 -67q-70 2 -182 2q-39 0 -88 -1t-64 -1q-7 21 -7 67q45 5 80 17q4 29 4 56v245q-36 11 -79 16
q-13 33 -4 61q85 30 184 36zM114 -92q31 38 93 46q56 -46 56 -105q0 -44 -31.5 -87.5t-93.5 -78.5q-27 13 -33 40q44 45 44 100q0 37 -35 85z" />
    <glyph glyph-name="Rcaron" unicode="&#x158;" horiz-adv-x="668" 
d="M453 0l-126 272h-10q-31 0 -61 3v-104q0 -48 4 -83q41 -4 81 -19q1 -37 -6 -70q-39 2 -154 2q-34 0 -86 -1t-71 -1q-8 31 -8 70q39 4 87 19q5 24 5 61v295q0 76 -5 138q-48 15 -87 19q0 39 8 70q19 0 71 -1t86 -1t101 2.5t93 2.5q99 0 156.5 -48.5t57.5 -121.5
q0 -54 -33 -104t-88 -84l113 -229q41 -4 81 -19q1 -37 -6 -70q-44 2 -134 2h-69zM334 577q-52 0 -78 -2v-203q14 -1 44 -1q22 0 44 3.5t34.5 7.5t15.5 6q39 29 39 91q0 38 -26.5 68t-72.5 30zM137 854q15 38 48 60l135 -80l133 80q34 -21 44 -56l-137 -130q-35 -7 -79 -7z
" />
    <glyph glyph-name="rcaron" unicode="&#x159;" horiz-adv-x="498" 
d="M215 497l16 -8q14 -34 26 -80q60 86 141 86q51 0 93 -16q0 -123 -20 -190q-47 -18 -91 0q-7 65 -15 98q-6 1 -17 1q-46 0 -90 -73v-156q0 -39 3 -75q73 -5 118 -18q0 -46 -8 -67q-70 2 -182 2q-39 0 -88 -1t-64 -1q-7 21 -7 67q45 5 80 17q4 29 4 56v245q-36 11 -79 16
q-13 33 -4 61q85 30 184 36zM121 719q19 30 53 44l110 -100l104 100q35 -8 51 -40l-110 -172q-45 -11 -90 -9z" />
    <glyph glyph-name="Sacute" unicode="&#x15a;" horiz-adv-x="540" 
d="M21 34q3 106 24 192q40 11 89 -5q4 -65 11 -117q46 -19 107 -19q25 0 48.5 7t29.5 12q25 22 25 72q0 54 -103 95l-77 31q-141 58 -141 180q0 101 72.5 152t171.5 51q115 0 211 -40q-1 -93 -16 -170q-51 -14 -87 5q-3 47 -12 94q-38 13 -99 13q-19 0 -40 -4.5t-25 -7.5
q-23 -18 -23 -57q0 -16 8 -30t26 -25.5t29.5 -17.5t35.5 -17l82 -37q142 -63 142 -175q0 -99 -67.5 -165t-179.5 -66q-151 0 -242 49zM178 786l200 137q60 -31 74 -95l-7 -25l-233 -82q-27 25 -34 65z" />
    <glyph glyph-name="sacute" unicode="&#x15b;" horiz-adv-x="449" 
d="M209 -11q-112 0 -181 29q0 80 20 153q40 12 86 0q1 -35 9 -86q24 -11 69 -11q41 0 54 11t13 36q0 22 -18 35.5t-55 27.5q-40 14 -61 23.5t-48 27.5t-39 43.5t-12 59.5q0 80 58 118.5t136 38.5q109 0 176 -19q0 -74 -20 -143q-47 -12 -85 2q-6 45 -17 74q-17 7 -43 7
q-24 0 -39.5 -3.5t-21 -11t-7 -12.5t-1.5 -14q0 -21 24.5 -37.5t60 -30t71 -30.5t60 -48t24.5 -74q0 -82 -58.5 -124t-154.5 -42zM148 574l95 167q61 13 143 13l11 -29l-196 -194q-39 3 -53 43z" />
    <glyph glyph-name="Scircumflex" unicode="&#x15c;" horiz-adv-x="540" 
d="M21 34q3 106 24 192q40 11 89 -5q4 -65 11 -117q46 -19 107 -19q25 0 48.5 7t29.5 12q25 22 25 72q0 54 -103 95l-77 31q-141 58 -141 180q0 101 72.5 152t171.5 51q115 0 211 -40q-1 -93 -16 -170q-51 -14 -87 5q-3 47 -12 94q-38 13 -99 13q-19 0 -40 -4.5t-25 -7.5
q-23 -18 -23 -57q0 -16 8 -30t26 -25.5t29.5 -17.5t35.5 -17l82 -37q142 -63 142 -175q0 -99 -67.5 -165t-179.5 -66q-151 0 -242 49zM409 714l-135 80l-133 -80q-34 21 -44 56l137 130q35 7 79 7l144 -133q-15 -38 -48 -60z" />
    <glyph glyph-name="scircumflex" unicode="&#x15d;" horiz-adv-x="449" 
d="M209 -11q-112 0 -181 29q0 80 20 153q40 12 86 0q1 -35 9 -86q24 -11 69 -11q41 0 54 11t13 36q0 22 -18 35.5t-55 27.5q-40 14 -61 23.5t-48 27.5t-39 43.5t-12 59.5q0 80 58 118.5t136 38.5q109 0 176 -19q0 -74 -20 -143q-47 -12 -85 2q-6 45 -17 74q-17 7 -43 7
q-24 0 -39.5 -3.5t-21 -11t-7 -12.5t-1.5 -14q0 -21 24.5 -37.5t60 -30t71 -30.5t60 -48t24.5 -74q0 -82 -58.5 -124t-154.5 -42zM333 528l-110 100l-104 -100q-36 9 -51 40l110 172q45 10 90 9l118 -177q-19 -30 -53 -44z" />
    <glyph glyph-name="uni015E" unicode="&#x15e;" horiz-adv-x="540" 
d="M21 34q3 106 24 192q40 11 89 -5q4 -65 11 -117q46 -19 107 -19q25 0 48.5 7t29.5 12q25 22 25 72q0 54 -103 95l-77 31q-141 58 -141 180q0 101 72.5 152t171.5 51q115 0 211 -40q-1 -93 -16 -170q-51 -14 -87 5q-3 47 -12 94q-38 13 -99 13q-19 0 -40 -4.5t-25 -7.5
q-23 -18 -23 -57q0 -16 8 -30t26 -25.5t29.5 -17.5t35.5 -17l82 -37q142 -63 142 -175q0 -97 -65 -162.5t-174 -68.5l-9 -25q50 -1 78.5 -22t28.5 -57q0 -58 -56.5 -104t-136.5 -61q-25 27 -21 61q92 36 92 81q0 18 -14.5 30t-41.5 10l-12 12l34 77q-123 10 -192 47z" />
    <glyph glyph-name="uni015F" unicode="&#x15f;" horiz-adv-x="449" 
d="M422 155q0 -79 -53.5 -120.5t-143.5 -44.5l-11 -30q50 -1 78.5 -22t28.5 -57q0 -58 -56.5 -104t-136.5 -61q-25 27 -21 61q92 36 92 81q0 18 -14.5 30t-41.5 10l-12 12l35 80q-85 6 -138 28q0 80 20 153q40 12 86 0q1 -35 9 -86q24 -11 69 -11q41 0 54 11t13 36
q0 22 -18 35.5t-55 27.5q-40 14 -61 23.5t-48 27.5t-39 43.5t-12 59.5q0 80 58 118.5t136 38.5q109 0 176 -19q0 -74 -20 -143q-47 -12 -85 2q-6 45 -17 74q-17 7 -43 7q-24 0 -39.5 -3.5t-21 -11t-7 -12.5t-1.5 -14q0 -21 24.5 -37.5t60 -30t71 -30.5t60 -48t24.5 -74z" />
    <glyph glyph-name="Scaron" unicode="&#x160;" horiz-adv-x="540" 
d="M21 34q3 106 24 192q40 11 89 -5q4 -65 11 -117q46 -19 107 -19q25 0 48.5 7t29.5 12q25 22 25 72q0 54 -103 95l-77 31q-141 58 -141 180q0 101 72.5 152t171.5 51q115 0 211 -40q-1 -93 -16 -170q-51 -14 -87 5q-3 47 -12 94q-38 13 -99 13q-19 0 -40 -4.5t-25 -7.5
q-23 -18 -23 -57q0 -16 8 -30t26 -25.5t29.5 -17.5t35.5 -17l82 -37q142 -63 142 -175q0 -99 -67.5 -165t-179.5 -66q-151 0 -242 49zM99 854q15 38 48 60l135 -80l133 80q34 -21 44 -56l-137 -130q-35 -7 -79 -7z" />
    <glyph glyph-name="scaron" unicode="&#x161;" horiz-adv-x="449" 
d="M209 -11q-112 0 -181 29q0 80 20 153q40 12 86 0q1 -35 9 -86q24 -11 69 -11q41 0 54 11t13 36q0 22 -18 35.5t-55 27.5q-40 14 -61 23.5t-48 27.5t-39 43.5t-12 59.5q0 80 58 118.5t136 38.5q109 0 176 -19q0 -74 -20 -143q-47 -12 -85 2q-6 45 -17 74q-17 7 -43 7
q-24 0 -39.5 -3.5t-21 -11t-7 -12.5t-1.5 -14q0 -21 24.5 -37.5t60 -30t71 -30.5t60 -48t24.5 -74q0 -82 -58.5 -124t-154.5 -42zM70 719q19 30 53 44l110 -100l104 100q35 -8 51 -40l-110 -172q-45 -11 -90 -9z" />
    <glyph glyph-name="uni0162" unicode="&#x162;" horiz-adv-x="649" 
d="M521 573h-123v-402q0 -48 4 -83q59 -4 113 -19q2 -39 -7 -70q-82 2 -159 2l-15 -41q50 -1 78.5 -22t28.5 -57q0 -58 -56.5 -104t-136.5 -61q-25 27 -21 61q92 36 92 81q0 18 -14.5 30t-41.5 10l-12 12l40 91q-120 -2 -155 -2q-10 29 -10 70q52 4 119 19q5 24 5 61v424
h-122q-12 -74 -15 -134q-38 -9 -89 0q-17 97 -13 220l12 12q62 -2 235 -2h133q173 0 235 2l12 -12q4 -123 -13 -220q-51 -9 -89 0q-3 60 -15 134z" />
    <glyph glyph-name="uni0163" unicode="&#x163;" horiz-adv-x="406" 
d="M89 130v263q-13 3 -72 13q-11 33 -5 66q32 11 79 16l56 137q45 3 86 -7v-133l159 -1q2 -50 -4 -91h-155v-204q0 -102 46 -102t97 19q23 -25 22 -64q-61 -46 -155 -55l-10 -27q50 -1 78.5 -22t28.5 -57q0 -58 -56.5 -104t-136.5 -61q-25 27 -21 61q92 36 92 81
q0 18 -14.5 30t-41.5 10l-12 12l35 79q-96 16 -96 141z" />
    <glyph glyph-name="Tcaron" unicode="&#x164;" horiz-adv-x="649" 
d="M521 573h-123v-402q0 -48 4 -83q59 -4 113 -19q2 -39 -7 -70q-47 2 -185 2q-40 0 -102.5 -1t-84.5 -1q-10 29 -10 70q52 4 119 19q5 24 5 61v424h-122q-12 -74 -15 -134q-38 -9 -89 0q-17 97 -13 220l12 12q62 -2 235 -2h133q173 0 235 2l12 -12q4 -123 -13 -220
q-51 -9 -89 0q-3 60 -15 134zM145 854q15 38 48 60l135 -80l133 80q34 -21 44 -56l-137 -130q-35 -7 -79 -7z" />
    <glyph glyph-name="tcaron" unicode="&#x165;" horiz-adv-x="406" 
d="M89 130v263q-13 3 -72 13q-11 33 -5 66q32 11 79 16l56 137q45 3 86 -7v-133l159 -1q2 -50 -4 -91h-155v-204q0 -102 46 -102t97 19q23 -25 22 -64q-75 -56 -183 -56q-126 0 -126 144zM283 764l12 12q79 8 119 -22l-58 -225q-42 -5 -76 6z" />
    <glyph glyph-name="Tbar" unicode="&#x166;" horiz-adv-x="649" 
d="M521 573h-123v-211h110q13 -41 0 -82h-110v-109q0 -48 4 -83q59 -4 113 -19q2 -39 -7 -70q-47 2 -185 2q-40 0 -102.5 -1t-84.5 -1q-10 29 -10 70q52 4 119 19q5 24 5 61v131h-110q-14 42 0 82h110v211h-122q-12 -74 -15 -134q-38 -9 -89 0q-17 97 -13 220l12 12
q62 -2 235 -2h133q173 0 235 2l12 -12q4 -123 -13 -220q-51 -9 -89 0q-3 60 -15 134z" />
    <glyph glyph-name="tbar" unicode="&#x167;" horiz-adv-x="426" 
d="M391 236h-148v-47q0 -102 46 -102t97 19q23 -25 22 -64q-75 -56 -183 -56q-126 0 -126 144v106h-77q-13 37 0 68h77v89q-13 3 -72 13q-11 33 -5 66q32 11 79 16l56 137q45 3 86 -7v-133l159 -1q2 -50 -4 -91h-155v-89h148q12 -34 0 -68z" />
    <glyph glyph-name="uni0168" unicode="&#x168;" horiz-adv-x="712" 
d="M621 444v-167q0 -133 -67 -214t-212 -81q-122 0 -184.5 60t-62.5 192v210q0 76 -5 138q-48 15 -87 19q0 39 8 70q19 0 71 -1t86 -1q115 0 154 2q7 -33 6 -70q-40 -15 -81 -19q-4 -49 -4 -138v-162q0 -199 138 -199q30 0 57 10.5t37 22.5q34 41 34 134v194q0 76 -5 138
q-48 15 -87 19q0 39 8 70q21 0 67.5 -1t71.5 -1q97 0 136 2q7 -33 6 -70q-40 -15 -81 -19q-4 -49 -4 -138zM240 744q-37 13 -47 45q24 44 59 71t67 27q25 0 65 -26t55 -26q25 0 64 41q34 -12 48 -43q-25 -44 -60.5 -72t-68.5 -28q-24 0 -65 26t-53 26q-25 0 -64 -41z" />
    <glyph glyph-name="uni0169" unicode="&#x169;" horiz-adv-x="622" 
d="M89 150v246q-36 16 -78 22q0 43 7 67q15 0 64.5 -1t90.5 -1h50l12 -12q-2 -90 -2 -261q0 -118 59 -118q35 0 89 50v254q-35 16 -73 22q0 43 7 67q15 0 63 -1t88 -1h49l12 -12q-2 -75 -2 -250v-62q0 -25 2 -69q28 2 64 11q20 -15 20 -43q-29 -31 -68.5 -51.5t-77.5 -20.5
q-21 0 -39.5 20t-30.5 52q-70 -72 -155 -72q-70 0 -110.5 42.5t-40.5 121.5zM157 565q-37 12 -49 46q24 45 60.5 73t69.5 28q26 0 67.5 -26.5t56.5 -26.5q26 0 66 42q34 -11 50 -44q-26 -46 -62.5 -74.5t-70.5 -28.5q-26 0 -67.5 26.5t-54.5 26.5q-26 0 -66 -42z" />
    <glyph glyph-name="Umacron" unicode="&#x16a;" horiz-adv-x="712" 
d="M621 444v-167q0 -133 -67 -214t-212 -81q-122 0 -184.5 60t-62.5 192v210q0 76 -5 138q-48 15 -87 19q0 39 8 70q19 0 71 -1t86 -1q115 0 154 2q7 -33 6 -70q-40 -15 -81 -19q-4 -49 -4 -138v-162q0 -199 138 -199q30 0 57 10.5t37 22.5q34 41 34 134v194q0 76 -5 138
q-48 15 -87 19q0 39 8 70q21 0 67.5 -1t71.5 -1q97 0 136 2q7 -33 6 -70q-40 -15 -81 -19q-4 -49 -4 -138zM221 836h302q21 -48 0 -97h-302q-20 51 0 97z" />
    <glyph glyph-name="umacron" unicode="&#x16b;" horiz-adv-x="622" 
d="M89 150v246q-36 16 -78 22q0 43 7 67q15 0 64.5 -1t90.5 -1h50l12 -12q-2 -90 -2 -261q0 -118 59 -118q35 0 89 50v254q-35 16 -73 22q0 43 7 67q15 0 63 -1t88 -1h49l12 -12q-2 -75 -2 -250v-62q0 -25 2 -69q28 2 64 11q20 -15 20 -43q-29 -31 -68.5 -51.5t-77.5 -20.5
q-21 0 -39.5 20t-30.5 52q-70 -72 -155 -72q-70 0 -110.5 42.5t-40.5 121.5zM138 670h292q20 -50 0 -101h-292q-20 53 0 101z" />
    <glyph glyph-name="Ubreve" unicode="&#x16c;" horiz-adv-x="712" 
d="M621 444v-167q0 -133 -67 -214t-212 -81q-122 0 -184.5 60t-62.5 192v210q0 76 -5 138q-48 15 -87 19q0 39 8 70q19 0 71 -1t86 -1q115 0 154 2q7 -33 6 -70q-40 -15 -81 -19q-4 -49 -4 -138v-162q0 -199 138 -199q30 0 57 10.5t37 22.5q34 41 34 134v194q0 76 -5 138
q-48 15 -87 19q0 39 8 70q21 0 67.5 -1t71.5 -1q97 0 136 2q7 -33 6 -70q-40 -15 -81 -19q-4 -49 -4 -138zM365 730q-59 0 -102 33.5t-62 81.5q11 26 47 40q60 -58 125 -58q67 0 127 58q34 -12 43 -38q-19 -47 -70 -82t-108 -35z" />
    <glyph glyph-name="ubreve" unicode="&#x16d;" horiz-adv-x="622" 
d="M89 150v246q-36 16 -78 22q0 43 7 67q15 0 64.5 -1t90.5 -1h50l12 -12q-2 -90 -2 -261q0 -118 59 -118q35 0 89 50v254q-35 16 -73 22q0 43 7 67q15 0 63 -1t88 -1h49l12 -12q-2 -75 -2 -250v-62q0 -25 2 -69q28 2 64 11q20 -15 20 -43q-29 -31 -68.5 -51.5t-77.5 -20.5
q-21 0 -39.5 20t-30.5 52q-70 -72 -155 -72q-70 0 -110.5 42.5t-40.5 121.5zM277 555q-63 0 -103.5 37t-57.5 93q10 27 42 36q58 -64 128 -64q71 0 126 63q27 -4 40 -33q-16 -53 -64 -92.5t-111 -39.5z" />
    <glyph glyph-name="Uring" unicode="&#x16e;" horiz-adv-x="712" 
d="M621 444v-167q0 -133 -67 -214t-212 -81q-122 0 -184.5 60t-62.5 192v210q0 76 -5 138q-48 15 -87 19q0 39 8 70q19 0 71 -1t86 -1q115 0 154 2q7 -33 6 -70q-40 -15 -81 -19q-4 -49 -4 -138v-162q0 -199 138 -199q30 0 57 10.5t37 22.5q34 41 34 134v194q0 76 -5 138
q-48 15 -87 19q0 39 8 70q21 0 67.5 -1t71.5 -1q97 0 136 2q7 -33 6 -70q-40 -15 -81 -19q-4 -49 -4 -138zM377 782q13 0 29 8q10 10 10 29q0 16 -12.5 29t-28.5 13q-17 0 -29 -8q-10 -7 -10 -28q0 -16 12.5 -29.5t28.5 -13.5zM370 708q-118 0 -118 112q0 42 40 78.5
t90 36.5q118 0 118 -112q0 -42 -40 -78.5t-90 -36.5z" />
    <glyph glyph-name="uring" unicode="&#x16f;" horiz-adv-x="622" 
d="M89 150v246q-36 16 -78 22q0 43 7 67q15 0 64.5 -1t90.5 -1h50l12 -12q-2 -90 -2 -261q0 -118 59 -118q35 0 89 50v254q-35 16 -73 22q0 43 7 67q15 0 63 -1t88 -1h49l12 -12q-2 -75 -2 -250v-62q0 -25 2 -69q28 2 64 11q20 -15 20 -43q-29 -31 -68.5 -51.5t-77.5 -20.5
q-21 0 -39.5 20t-30.5 52q-70 -72 -155 -72q-70 0 -110.5 42.5t-40.5 121.5zM294 608q16 0 30 7q9 5 9 31q0 17 -12 30t-29 13q-20 0 -30 -7q-10 -8 -10 -30q0 -17 12.5 -30.5t29.5 -13.5zM287 531q-56 0 -87 29t-31 87q0 44 40 81.5t90 37.5q118 0 118 -116q0 -43 -40 -81
t-90 -38z" />
    <glyph glyph-name="Uhungarumlaut" unicode="&#x170;" horiz-adv-x="712" 
d="M621 444v-167q0 -133 -67 -214t-212 -81q-122 0 -184.5 60t-62.5 192v210q0 76 -5 138q-48 15 -87 19q0 39 8 70q19 0 71 -1t86 -1q115 0 154 2q7 -33 6 -70q-40 -15 -81 -19q-4 -49 -4 -138v-162q0 -199 138 -199q30 0 57 10.5t37 22.5q34 41 34 134v194q0 76 -5 138
q-48 15 -87 19q0 39 8 70q21 0 67.5 -1t71.5 -1q97 0 136 2q7 -33 6 -70q-40 -15 -81 -19q-4 -49 -4 -138zM432 931l8 -22l-132 -184q-37 6 -53 31l65 158q50 17 112 17zM598 931l8 -22l-142 -184q-37 6 -53 31l75 158q50 17 112 17z" />
    <glyph glyph-name="uhungarumlaut" unicode="&#x171;" horiz-adv-x="622" 
d="M89 150v246q-36 16 -78 22q0 43 7 67q15 0 64.5 -1t90.5 -1h50l12 -12q-2 -90 -2 -261q0 -118 59 -118q35 0 89 50v254q-35 16 -73 22q0 43 7 67q15 0 63 -1t88 -1h49l12 -12q-2 -75 -2 -250v-62q0 -25 2 -69q28 2 64 11q20 -15 20 -43q-29 -31 -68.5 -51.5t-77.5 -20.5
q-21 0 -39.5 20t-30.5 52q-70 -72 -155 -72q-70 0 -110.5 42.5t-40.5 121.5zM487 765l8 -22l-121 -191q-42 3 -57 22l59 169q48 22 111 22zM326 765l8 -22l-111 -191q-42 3 -57 22l49 169q48 22 111 22z" />
    <glyph glyph-name="Uogonek" unicode="&#x172;" horiz-adv-x="712" 
d="M621 444v-167q0 -139 -67 -212q-42 -45 -65 -80t-23 -70q0 -25 10 -41t25 -16q20 0 53 9q21 -24 21 -61q-64 -35 -125 -35q-43 0 -72.5 22.5t-29.5 55.5q0 75 90 146l-3 5q-39 -18 -108 -18q-114 0 -173 60t-59 192v210q0 76 -5 138q-48 15 -87 19q0 39 8 70q19 0 71 -1
t86 -1q115 0 154 2q7 -33 6 -70q-40 -15 -81 -19q-4 -49 -4 -138v-162q0 -199 138 -199q30 0 57 10.5t37 22.5q34 41 34 134v194q0 76 -5 138q-48 15 -87 19q0 39 8 70q21 0 67.5 -1t71.5 -1q97 0 136 2q7 -33 6 -70q-40 -15 -81 -19q-4 -49 -4 -138z" />
    <glyph glyph-name="uogonek" unicode="&#x173;" horiz-adv-x="622" 
d="M89 150v246q-36 16 -78 22q0 43 7 67q15 1 49.5 -0.5t55.5 -1.5h100l12 -12q-2 -90 -2 -261q0 -118 59 -118q35 0 89 50v254q-35 16 -73 22q0 43 7 67q15 0 63 -1t88 -1h49l12 -12q-2 -75 -2 -250v-62q0 -25 2 -69q28 2 64 11q20 -15 20 -43q-171 -86 -171 -151
q0 -22 10 -35.5t27 -13.5q18 0 52 9q21 -24 21 -61q-64 -35 -125 -35q-43 0 -72.5 28.5t-29.5 70.5q0 74 103 135q-19 21 -31 53q-70 -72 -155 -72q-70 0 -110.5 42.5t-40.5 121.5z" />
    <glyph glyph-name="Wcircumflex" unicode="&#x174;" horiz-adv-x="998" 
d="M241 -5l-158 587q-45 15 -80 19q0 39 8 70q20 0 71.5 -1t84.5 -1q115 0 153 2q7 -33 6 -70l-89 -17l87 -348l2 -110h4l125 532q58 17 147 17l108 -436v-110h4l104 458l-95 16q0 35 6 68q16 0 59.5 -1t72.5 -1q94 0 126 2q6 -35 5 -70q-36 -15 -74 -19l-143 -570
q-59 -17 -150 -17l-102 381l-8 111h-4l-117 -475q-58 -17 -153 -17zM662 714l-135 80l-133 -80q-34 21 -44 56l137 130q35 7 79 7l144 -133q-15 -38 -48 -60z" />
    <glyph glyph-name="wcircumflex" unicode="&#x175;" horiz-adv-x="861" 
d="M678 400l-66 18q0 43 9 67q18 0 62.5 -1t75.5 -1q30 0 88 2q9 -32 6 -67q-25 -12 -64 -17l-121 -389q-65 -17 -157 -17l-61 289v90h-5l-82 -362q-65 -17 -156 -17l-135 406q-23 11 -64 17q0 39 7 67q12 0 48 -1t59 -1q17 0 68.5 1t90.5 1q8 -29 5 -67l-64 -18l53 -200
v-90h4l82 362q66 17 177 17l61 -289v-90h4zM553 528l-110 100l-104 -100q-36 9 -51 40l110 172q45 10 90 9l118 -177q-19 -30 -53 -44z" />
    <glyph glyph-name="Ycircumflex" unicode="&#x176;" horiz-adv-x="674" 
d="M594 582l-183 -336v-75q0 -48 4 -83q59 -4 113 -19q2 -39 -7 -70q-47 2 -185 2q-40 0 -102 -1t-85 -1q-10 29 -10 70q52 4 119 19q5 24 5 61v99l-180 332q-45 15 -80 19q0 40 8 72q21 0 76 -1t91 -1q118 0 159 2q7 -33 6 -70l-84 -17l114 -211l108 211l-90 17q0 35 6 70
q16 0 61 -1t75 -1q98 0 130 2q6 -35 5 -70q-36 -15 -74 -19zM496 714l-135 80l-133 -80q-34 21 -44 56l137 130q35 7 79 7l144 -133q-15 -38 -48 -60z" />
    <glyph glyph-name="ycircumflex" unicode="&#x177;" horiz-adv-x="586" 
d="M225 0l-150 401q-23 11 -67 17q0 39 7 67q13 0 50 -1t61 -1q8 0 60.5 1t100.5 1q8 -29 5 -67l-59 -18l67 -200v-90h4l95 290l-65 18q0 43 9 67q18 0 64 -1t77 -1q24 0 88 2q9 -32 6 -67q-25 -12 -64 -17l-141 -392q-46 -128 -94.5 -197.5t-113.5 -69.5q-80 0 -124 22
q-6 43 22 77h15q137 0 177 118l14 41h-44zM409 528l-110 100l-104 -100q-36 9 -51 40l110 172q45 10 90 9l118 -177q-19 -30 -53 -44z" />
    <glyph glyph-name="Ydieresis" unicode="&#x178;" horiz-adv-x="674" 
d="M594 582l-183 -336v-75q0 -48 4 -83q59 -4 113 -19q2 -39 -7 -70q-47 2 -185 2q-40 0 -102 -1t-85 -1q-10 29 -10 70q52 4 119 19q5 24 5 61v99l-180 332q-45 15 -80 19q0 40 8 72q21 0 76 -1t91 -1q118 0 159 2q7 -33 6 -70l-84 -17l114 -211l108 211l-90 17q0 35 6 70
q16 0 61 -1t75 -1q98 0 130 2q6 -35 5 -70q-36 -15 -74 -19zM254 738q-27 0 -48.5 18t-21.5 44q0 34 24 63t58 29q26 0 46.5 -18.5t20.5 -45.5q0 -34 -23 -61.5t-56 -28.5zM464 738q-25 0 -46.5 18.5t-21.5 43.5q0 34 23.5 63t56.5 29q28 0 49 -18.5t21 -45.5
q0 -35 -23.5 -62t-58.5 -28z" />
    <glyph glyph-name="Zacute" unicode="&#x179;" horiz-adv-x="590" 
d="M304 1h-269q-18 45 -15 88l327 484h-191q-12 -67 -15 -110q-48 -10 -89 0q-16 79 -13 196l12 12q62 -2 235 -2h221q30 -40 36 -88l-328 -484h224q19 52 36 123q42 6 87 -7q0 -87 -11 -202l-12 -12q-62 2 -235 2zM199 786l200 137q60 -31 74 -95l-7 -25l-233 -82
q-27 25 -34 65z" />
    <glyph glyph-name="zacute" unicode="&#x17a;" horiz-adv-x="521" 
d="M47 473l11 12q59 -2 224 -2h165q27 -44 27 -86l-278 -314h174q16 42 32 109q42 5 86 -4q2 -68 -8 -177l-12 -12q-61 2 -233 2h-183q-21 40 -21 97l266 303h-146q-8 -36 -15 -94q-44 -10 -81 0q-8 63 -8 166zM197 574l95 167q61 13 143 13l11 -29l-196 -194q-39 3 -53 43z
" />
    <glyph glyph-name="Zdotaccent" unicode="&#x17b;" horiz-adv-x="590" 
d="M304 1h-269q-18 45 -15 88l327 484h-191q-12 -67 -15 -110q-48 -10 -89 0q-16 79 -13 196l12 12q62 -2 235 -2h221q30 -40 36 -88l-328 -484h224q19 52 36 123q42 6 87 -7q0 -87 -11 -202l-12 -12q-62 2 -235 2zM292 733q-28 0 -52.5 20.5t-24.5 48.5q0 36 27 69t63 33
q30 0 54 -20t24 -50q0 -37 -27 -69t-64 -32z" />
    <glyph glyph-name="zdotaccent" unicode="&#x17c;" horiz-adv-x="521" 
d="M47 473l11 12q59 -2 224 -2h165q27 -44 27 -86l-278 -314h174q16 42 32 109q42 5 86 -4q2 -68 -8 -177l-12 -12q-61 2 -233 2h-183q-21 40 -21 97l266 303h-146q-8 -36 -15 -94q-44 -10 -81 0q-8 63 -8 166zM259 556q-29 0 -54.5 21.5t-25.5 50.5q0 36 28 70.5t65 34.5
q31 0 56 -20.5t25 -52.5q0 -38 -28 -71t-66 -33z" />
    <glyph glyph-name="Zcaron" unicode="&#x17d;" horiz-adv-x="590" 
d="M304 1h-269q-18 45 -15 88l327 484h-191q-12 -67 -15 -110q-48 -10 -89 0q-16 79 -13 196l12 12q62 -2 235 -2h221q30 -40 36 -88l-328 -484h224q19 52 36 123q42 6 87 -7q0 -87 -11 -202l-12 -12q-62 2 -235 2zM120 854q15 38 48 60l135 -80l133 80q34 -21 44 -56
l-137 -130q-35 -7 -79 -7z" />
    <glyph glyph-name="zcaron" unicode="&#x17e;" horiz-adv-x="521" 
d="M47 473l11 12q59 -2 224 -2h165q27 -44 27 -86l-278 -314h174q16 42 32 109q42 5 86 -4q2 -68 -8 -177l-12 -12q-61 2 -233 2h-183q-21 40 -21 97l266 303h-146q-8 -36 -15 -94q-44 -10 -81 0q-8 63 -8 166zM109 719q19 30 53 44l110 -100l104 100q35 -8 51 -40
l-110 -172q-45 -11 -90 -9z" />
    <glyph glyph-name="longs" unicode="&#x17f;" horiz-adv-x="381" 
d="M333 669q-40 0 -50 -16q-30 -47 -30 -162v-332q0 -39 3 -75q68 -4 118 -18q0 -48 -6 -67q-110 2 -184 2q-39 0 -87 -1t-65 -1q-7 21 -7 67q45 5 80 17q4 29 4 56v254q-11 3 -71 13q-11 33 -5 66q32 10 76 15v6q0 121 67 197t164 76q80 0 156 -38q-3 -102 -29 -157
q-54 -14 -88 4q0 42 -5 89q-22 5 -41 5z" />
    <glyph glyph-name="bbar" unicode="&#x180;" horiz-adv-x="573" 
d="M367 551h-142v-85v-14q65 43 136 43q82 0 132 -66.5t50 -178.5q0 -99 -63 -181.5t-156 -82.5q-83 0 -152 47q-49 -40 -85 -53q-33 9 -44 40q38 53 38 119v412h-83q-13 37 0 68h83v33q-45 12 -79 16q-10 32 -4 61q97 34 219 37l12 -12q-3 -72 -3 -135h141q12 -34 0 -68z
M300 394q-27 0 -75 -23v-251q44 -37 91 -37q13 0 25.5 5.5t16.5 11.5q38 50 38 124q0 70 -25.5 120t-70.5 50z" />
    <glyph glyph-name="Schwa" unicode="&#x18f;" horiz-adv-x="623" 
d="M39 352q178 -2 275 -2h124q-8 102 -55.5 163t-131.5 61q-46 0 -74 -6q-14 -42 -17 -102q-45 -11 -87 0q-22 64 -25 163q107 56 224 56q156 0 240 -94.5t84 -241.5q0 -93 -40.5 -176.5t-119 -137t-178.5 -53.5q-55 0 -98.5 20.5t-69 51.5t-42 71.5t-22.5 77t-6 72.5
q0 44 5 65zM289 93q56 0 88 23q16 11 34 49t25 91h-253q0 -67 26.5 -115t79.5 -48z" />
    <glyph glyph-name="florin" unicode="&#x192;" horiz-adv-x="550" 
d="M414 591q-44 0 -60.5 -31t-27.5 -113h90q12 -40 0 -80h-100q-35 -294 -73 -425q-17 -59 -65.5 -105.5t-108.5 -69.5q-29 12 -34 47q25 24 44.5 61.5t31.5 75.5t22 95t15.5 98.5t13 108t12.5 103.5l1 11h-79q-13 43 0 80h90l5 36q7 55 33.5 97t62 64t69.5 33t65 11
q80 0 156 -38q-3 -102 -29 -157q-54 -14 -88 4q0 42 -5 89q-22 5 -41 5z" />
    <glyph glyph-name="Obar" unicode="&#x19f;" horiz-adv-x="694" 
d="M337 -18q-147 0 -228.5 96t-81.5 245q0 89 39 171.5t116.5 138t174.5 55.5q146 0 228 -96t82 -245q0 -89 -39 -171.5t-116.5 -138t-174.5 -55.5zM365 93q27 0 54.5 9.5t35.5 19.5q55 65 56 183h-325q10 -95 54.5 -153.5t124.5 -58.5zM239 548q-50 -58 -55 -161h321
q-14 86 -57.5 138t-118.5 52q-27 0 -54.5 -9.5t-35.5 -19.5z" />
    <glyph glyph-name="Ohorn" unicode="&#x1a0;" horiz-adv-x="694" 
d="M337 -18q-147 0 -228.5 96t-81.5 245q0 89 39 171.5t116.5 138t174.5 55.5q39 0 92.5 -13t68.5 -13t29 7q22 12 22 38q0 34 -44 56l-2 16q5 17 33.5 42t45.5 26q25 -13 43 -41.5t18 -61.5q0 -90 -83 -147q87 -95 87 -250q0 -89 -39 -171.5t-116.5 -138t-174.5 -55.5z
M365 93q27 0 54.5 9.5t35.5 19.5q56 66 56 185q0 117 -45 193.5t-137 76.5q-27 0 -54.5 -9.5t-35.5 -19.5q-56 -66 -56 -185q0 -117 45 -193.5t137 -76.5z" />
    <glyph glyph-name="ohorn" unicode="&#x1a1;" horiz-adv-x="543" 
d="M278 498q23 1 73 -8.5t71 -9.5q22 0 32 5q20 11 20 48t-39 56l-2 16q6 18 32 42.5t44 25.5q27 -11 47 -41t20 -61q0 -95 -108 -159q45 -64 45 -155q0 -107 -67.5 -189t-186.5 -82q-109 0 -169 69t-60 170q0 110 68 191.5t180 81.5zM287 83q26 0 42 16q37 37 37 130
q0 29 -5 57t-16.5 55t-34.5 43.5t-54 16.5q-26 0 -42 -16q-37 -37 -37 -130q0 -29 5 -57t16.5 -55t34.5 -43.5t54 -16.5z" />
    <glyph glyph-name="Uhorn" unicode="&#x1af;" horiz-adv-x="712" 
d="M425 671q39 0 104.5 -3t80.5 -3q23 0 36 8q16 10 16 34q0 34 -44 56l-2 16q5 17 33.5 42t45.5 26q25 -13 43 -41.5t18 -61.5q0 -53 -34.5 -101t-98.5 -73q-2 -35 -2 -126v-167q0 -64 -15 -115.5t-47 -92.5t-88 -64t-132 -23q-119 0 -181.5 60.5t-62.5 191.5v210
q0 76 -5 138q-48 15 -87 19q0 39 8 70q19 0 71 -1t86 -1q115 0 154 2q7 -33 6 -70q-40 -15 -81 -19q-4 -49 -4 -138v-162q0 -199 137 -199q63 0 94 34q35 38 35 133v194q0 76 -5 138q-48 15 -87 19q0 39 8 70z" />
    <glyph glyph-name="uhorn" unicode="&#x1b0;" horiz-adv-x="622" 
d="M89 150v246q-36 16 -78 22q0 43 7 67q15 0 64.5 -1t90.5 -1h50l12 -12q-2 -90 -2 -261q0 -118 59 -118q35 0 89 50v254q-35 16 -73 22q0 43 7 67q15 0 63 -1t88 -1q56 0 64 4q22 11 22 46q0 37 -41 56l-2 16q6 18 32.5 42.5t45.5 25.5q27 -11 47 -41t20 -61
q0 -50 -34 -94.5t-95 -71.5v-184v-62q0 -25 2 -69q28 2 64 11q20 -15 20 -43q-29 -31 -68.5 -51.5t-77.5 -20.5q-21 0 -39.5 20t-30.5 52q-70 -72 -155 -72q-70 0 -110.5 42.5t-40.5 121.5z" />
    <glyph glyph-name="Ezh" unicode="&#x1b7;" horiz-adv-x="596" 
d="M196 388l150 185h-205q-12 -67 -15 -110q-48 -10 -89 0q-16 79 -13 196l12 12q62 -2 243 -2h219q30 -40 36 -88l-151 -170q86 -5 138.5 -53.5t52.5 -129.5q0 -95 -100 -169t-236 -74q-129 0 -217 29q2 122 18 200q36 10 85 5q9 -74 25 -116q29 -7 100 -7q37 0 76.5 7.5
t49.5 15.5q41 33 41 92q0 47 -31 78.5t-90 31.5q-40 0 -77 -10l-10 8q-14 30 -12 69z" />
    <glyph glyph-name="uni01C4" unicode="&#x1c4;" horiz-adv-x="1287" 
d="M181 1q-34 0 -86 -1t-71 -1q-8 31 -8 70q39 4 87 19q5 24 5 61v295q0 76 -5 138q-48 15 -87 19q0 39 8 70q19 0 71 -1t86 -1q33 0 105 2.5t106 2.5q131 0 204.5 -91.5t73.5 -238.5q0 -137 -92 -242.5t-230 -105.5q-23 0 -77.5 2.5t-89.5 2.5zM339 577q-29 0 -83 -2v-480
h84q32 0 66 7.5t46 17.5q62 52 62 186q0 69 -18.5 129t-59.5 101t-97 41zM1001 1h-269q-18 45 -15 88l327 484h-191q-12 -67 -15 -110q-48 -10 -89 0q-16 79 -13 196l12 12q62 -2 235 -2h221q30 -40 36 -88l-328 -484h224q19 52 36 123q42 6 87 -7q0 -87 -11 -202l-12 -12
q-62 2 -235 2zM817 854q15 38 48 60l135 -80l133 80q34 -21 44 -56l-137 -130q-35 -7 -79 -7z" />
    <glyph glyph-name="uni01C5" unicode="&#x1c5;" horiz-adv-x="1218" 
d="M181 1q-34 0 -86 -1t-71 -1q-8 31 -8 70q39 4 87 19q5 24 5 61v295q0 76 -5 138q-48 15 -87 19q0 39 8 70q19 0 71 -1t86 -1q33 0 105 2.5t106 2.5q131 0 204.5 -91.5t73.5 -238.5q0 -137 -92 -242.5t-230 -105.5q-23 0 -77.5 2.5t-89.5 2.5zM339 577q-29 0 -83 -2v-480
h84q32 0 66 7.5t46 17.5q62 52 62 186q0 69 -18.5 129t-59.5 101t-97 41zM744 473l11 12q59 -2 224 -2h165q27 -44 27 -86l-278 -314h174q16 43 32 109q42 5 86 -4q3 -67 -8 -177l-12 -12q-61 2 -233 2h-183q-21 40 -21 97l266 303h-146q-8 -36 -15 -94q-44 -10 -81 0
q-8 63 -8 166zM806 719q19 30 53 44l110 -100l104 100q35 -8 51 -40l-110 -172q-45 -11 -90 -9z" />
    <glyph glyph-name="uni01C6" unicode="&#x1c6;" horiz-adv-x="1103" 
d="M30 231q0 110 65.5 187t150.5 77q50 0 99 -19v176q-48 12 -85 16q-10 32 -4 61q100 34 225 37l12 -12q-4 -133 -4 -288v-307q0 -25 2 -69q28 2 64 11q20 -15 20 -43q-29 -31 -68.5 -51.5t-77.5 -20.5q-22 0 -41 21.5t-31 56.5q-73 -78 -149 -78q-86 0 -132 69t-46 176z
M253 92q34 0 92 58v236q-41 12 -76 12q-45 0 -55 -13q-15 -18 -26 -54.5t-11 -72.5q0 -68 21 -117t55 -49zM691 719q19 30 53 44l110 -100l104 100q35 -8 51 -40l-110 -172q-45 -11 -90 -9zM629 473l11 12q59 -2 224 -2h165q27 -44 27 -86l-278 -314h174q16 42 32 109
q42 5 86 -4q2 -67 -8 -177l-12 -12q-61 2 -233 2h-183q-21 40 -21 97l266 303h-146q-8 -36 -15 -94q-44 -10 -81 0q-8 63 -8 166z" />
    <glyph glyph-name="uni01C7" unicode="&#x1c7;" horiz-adv-x="889" 
d="M256 444v-347h191q21 72 36 147q41 7 89 -7q0 -115 -11 -225l-12 -13q-62 2 -235 2h-133q-34 0 -86 -1t-71 -1q-8 31 -8 70q39 4 87 19q5 24 5 61v295q0 76 -5 138q-48 15 -87 19q0 39 8 70q19 0 71 -1t86 -1q139 0 186 2q7 -33 6 -70q-53 -15 -113 -19q-4 -49 -4 -138z
M793 444v-401q0 -120 -76 -185t-211 -73q-25 31 -19 69q158 62 158 200v390q0 76 -5 138q-48 15 -87 19q0 39 8 70q19 0 71.5 -1t86.5 -1q114 0 153 2q7 -33 6 -70q-40 -15 -81 -19q-4 -49 -4 -138z" />
    <glyph glyph-name="uni01C8" unicode="&#x1c8;" horiz-adv-x="898" 
d="M256 444v-347h191q21 72 36 147q41 7 89 -7q0 -115 -11 -225l-12 -13q-62 2 -235 2h-133q-34 0 -86 -1t-71 -1q-8 31 -8 70q39 4 87 19q5 24 5 61v295q0 76 -5 138q-48 15 -87 19q0 39 8 70q19 0 71 -1t86 -1q139 0 186 2q7 -33 6 -70q-53 -15 -113 -19q-4 -49 -4 -138z
M819 185v-172q0 -63 -20 -113.5t-54.5 -82.5t-70.5 -51.5t-78 -31.5q-28 16 -28 51q107 77 107 242v357q-45 12 -79 16q-10 32 -4 61q97 34 219 37l12 -12q-4 -252 -4 -301zM732 556q-29 0 -54.5 21.5t-25.5 50.5q0 36 28 70.5t65 34.5q31 0 56 -20.5t25 -52.5
q0 -38 -28 -71t-66 -33z" />
    <glyph glyph-name="uni01C9" unicode="&#x1c9;" horiz-adv-x="651" 
d="M237 466v-307q0 -39 3 -75q46 -5 75 -18q0 -48 -6 -67q-54 2 -144 2q-37 0 -85.5 -1t-63.5 -1q-7 21 -7 67q45 5 80 17q4 29 4 56v513q-45 12 -79 16q-10 32 -4 61q97 34 219 37l12 -12q-4 -133 -4 -288zM572 185v-172q0 -63 -20 -113.5t-54.5 -82.5t-70.5 -51.5
t-78 -31.5q-28 16 -28 51q107 77 107 242v357q-45 12 -79 16q-10 32 -4 61q97 34 219 37l12 -12q-4 -252 -4 -301zM485 556q-29 0 -54.5 21.5t-25.5 50.5q0 36 28 70.5t65 34.5q31 0 56 -20.5t25 -52.5q0 -38 -28 -71t-66 -33z" />
    <glyph glyph-name="uni01CA" unicode="&#x1ca;" horiz-adv-x="1090" 
d="M652 12q-71 -17 -166 -17l-244 432l-23 110h-4v-366q0 -48 4 -83q41 -4 81 -19q1 -37 -6 -70q-39 2 -135 2q-23 0 -68.5 -1t-66.5 -1q-8 31 -8 70q39 4 87 19q5 24 5 61v295q0 76 -5 138q-48 15 -87 19q0 39 8 70q20 0 69 -1t76 -1q77 0 111 -4l236 -416l25 -110h4v305
q0 76 -5 138q-48 15 -87 19q0 39 8 70q21 0 68 -1t70 -1q94 0 132 2q7 -33 6 -70q-40 -15 -81 -19q-4 -49 -4 -138v-432zM994 444v-401q0 -120 -76 -185t-211 -73q-25 31 -19 69q158 62 158 200v390q0 76 -5 138q-48 15 -87 19q0 39 8 70q19 0 71.5 -1t86.5 -1q114 0 153 2
q7 -33 6 -70q-40 -15 -81 -19q-4 -49 -4 -138z" />
    <glyph glyph-name="uni01CB" unicode="&#x1cb;" horiz-adv-x="1069" 
d="M652 12q-71 -17 -166 -17l-244 432l-23 110h-4v-366q0 -48 4 -83q41 -4 81 -19q1 -37 -6 -70q-39 2 -135 2q-23 0 -68.5 -1t-66.5 -1q-8 31 -8 70q39 4 87 19q5 24 5 61v295q0 76 -5 138q-48 15 -87 19q0 39 8 70q20 0 69 -1t76 -1q77 0 111 -4l236 -416l25 -110h4v305
q0 76 -5 138q-48 15 -87 19q0 39 8 70q21 0 68 -1t70 -1q94 0 132 2q7 -33 6 -70q-40 -15 -81 -19q-4 -49 -4 -138v-432zM990 185v-172q0 -63 -20 -113.5t-54.5 -82.5t-70.5 -51.5t-78 -31.5q-28 16 -28 51q107 77 107 242v357q-45 12 -79 16q-10 32 -4 61q97 34 219 37
l12 -12q-4 -252 -4 -301zM903 556q-29 0 -54.5 21.5t-25.5 50.5q0 36 28 70.5t65 34.5q31 0 56 -20.5t25 -52.5q0 -38 -28 -71t-66 -33z" />
    <glyph glyph-name="uni01CC" unicode="&#x1cc;" horiz-adv-x="967" 
d="M214 497l16 -8q6 -13 17 -48q71 57 153 57q63 0 110 -40t47 -116v-183q0 -39 3 -75q47 -5 75 -18q0 -49 -7 -67q-52 2 -140 2q-32 0 -71.5 -1t-52.5 -1q-5 20 -5 67q30 7 50 17q4 29 4 56v145q0 56 -16 84.5t-63 28.5q-32 0 -77 -25v-213q0 -39 3 -75q39 -5 67 -18
q0 -48 -6 -67q-50 2 -133 2q-39 0 -88 -1t-64 -1q-7 21 -7 67q45 5 80 17q4 29 4 56v245q-36 11 -79 16q-11 33 -4 61q85 30 184 36zM888 185v-172q0 -63 -20 -113.5t-54.5 -82.5t-70.5 -51.5t-78 -31.5q-28 16 -28 51q107 77 107 242v357q-45 12 -79 16q-10 32 -4 61
q97 34 219 37l12 -12q-4 -252 -4 -301zM801 556q-29 0 -54.5 21.5t-25.5 50.5q0 36 28 70.5t65 34.5q31 0 56 -20.5t25 -52.5q0 -38 -28 -71t-66 -33z" />
    <glyph glyph-name="Acaron" unicode="&#x1cd;" horiz-adv-x="717" 
d="M482 86l-38 105q-85 5 -149 5h-67l-38 -110l89 -17q1 -37 -6 -70q-41 2 -140 2q-27 0 -66.5 -1t-53.5 -1q-8 31 -8 70q34 4 80 19l205 570q60 17 135 17l214 -587q38 -4 74 -19q1 -37 -6 -70q-37 2 -150 2q-33 0 -87 -1t-75 -1q-8 31 -8 70zM348 545l-91 -264h155
l-58 161l-2 103h-4zM185 854q15 38 48 60l135 -80l133 80q34 -21 44 -56l-137 -130q-35 -7 -79 -7z" />
    <glyph glyph-name="acaron" unicode="&#x1ce;" horiz-adv-x="535" 
d="M29 112q0 38 25.5 72t68.5 58t86.5 40.5t91.5 28.5q-3 100 -61 100q-35 0 -60 -4q-8 -27 -8 -75q-46 -22 -88 -12q-33 47 -33 120q98 57 220 57q22 0 43 -3.5t46 -14t43 -27.5t30.5 -47.5t12.5 -70.5v-175q0 -25 2 -69q28 2 64 11q20 -15 20 -43q-29 -31 -68.5 -51.5
t-77.5 -20.5q-40 0 -67 62q-80 -62 -148 -62q-142 0 -142 126zM237 89q24 0 65 25v106q-92 -11 -107 -23q-19 -14 -19 -50q0 -24 16 -41t45 -17zM85 724q19 30 53 44l110 -100l104 100q35 -8 51 -40l-110 -172q-45 -10 -90 -9z" />
    <glyph glyph-name="Icaron" unicode="&#x1cf;" horiz-adv-x="362" 
d="M103 582q-48 15 -87 19q0 39 8 70q19 0 71 -1t86 -1q115 0 154 2q7 -33 6 -70q-40 -15 -81 -19q-4 -49 -4 -138v-273q0 -48 4 -83q41 -4 81 -19q1 -37 -6 -70q-39 2 -154 2q-34 0 -86 -1t-71 -1q-8 31 -8 70q39 4 87 19q5 24 5 61v295q0 76 -5 138zM3 854q15 38 48 60
l135 -80l133 80q34 -21 44 -56l-137 -130q-35 -7 -79 -7z" />
    <glyph glyph-name="icaron" unicode="&#x1d0;" horiz-adv-x="354" 
d="M257 198v-39q0 -39 3 -75q46 -5 75 -18q0 -48 -6 -67q-54 2 -141 2q-39 0 -88 -1t-64 -1q-7 21 -7 67q45 5 80 17q4 29 4 56v245q-45 12 -79 16q-10 32 -4 61q97 34 219 37l12 -12q-4 -133 -4 -288zM15 724q19 30 53 44l110 -100l104 100q35 -8 51 -40l-110 -172
q-45 -10 -90 -9z" />
    <glyph glyph-name="Ocaron" unicode="&#x1d1;" horiz-adv-x="694" 
d="M337 -18q-147 0 -228.5 96t-81.5 245q0 89 39 171.5t116.5 138t174.5 55.5q146 0 228 -96t82 -245q0 -89 -39 -171.5t-116.5 -138t-174.5 -55.5zM365 93q27 0 54.5 9.5t35.5 19.5q56 66 56 185q0 117 -45 193.5t-137 76.5q-27 0 -54.5 -9.5t-35.5 -19.5q-56 -66 -56 -185
q0 -117 45 -193.5t137 -76.5zM170 854q15 38 48 60l135 -80l133 80q34 -21 44 -56l-137 -130q-35 -7 -79 -7z" />
    <glyph glyph-name="ocaron" unicode="&#x1d2;" horiz-adv-x="543" 
d="M278 498q116 0 175.5 -68.5t59.5 -179.5q0 -101 -68.5 -182.5t-179.5 -81.5q-115 0 -175 68t-60 180q0 101 68.5 182.5t179.5 81.5zM280 83q39 0 50 15q36 46 36 127q0 41 -9.5 79t-33.5 67.5t-60 29.5q-39 0 -50 -15q-36 -46 -36 -127q0 -41 9.5 -79t33.5 -67.5
t60 -29.5zM116 724q19 30 53 44l110 -100l104 100q35 -8 51 -40l-110 -172q-45 -10 -90 -9z" />
    <glyph glyph-name="Ucaron" unicode="&#x1d3;" horiz-adv-x="712" 
d="M621 444v-167q0 -133 -67 -214t-212 -81q-122 0 -184.5 60t-62.5 192v210q0 76 -5 138q-48 15 -87 19q0 39 8 70q19 0 71 -1t86 -1q115 0 154 2q7 -33 6 -70q-40 -15 -81 -19q-4 -49 -4 -138v-162q0 -199 138 -199q30 0 57 10.5t37 22.5q34 41 34 134v194q0 76 -5 138
q-48 15 -87 19q0 39 8 70q21 0 67.5 -1t71.5 -1q97 0 136 2q7 -33 6 -70q-40 -15 -81 -19q-4 -49 -4 -138zM193 854q15 38 48 60l135 -80l133 80q34 -21 44 -56l-137 -130q-35 -7 -79 -7z" />
    <glyph glyph-name="ucaron" unicode="&#x1d4;" horiz-adv-x="622" 
d="M89 150v246q-36 16 -78 22q0 43 7 67q15 0 64.5 -1t90.5 -1h50l12 -12q-2 -90 -2 -261q0 -118 59 -118q35 0 89 50v254q-35 16 -73 22q0 43 7 67q15 0 63 -1t88 -1h49l12 -12q-2 -75 -2 -250v-62q0 -25 2 -69q28 2 64 11q20 -15 20 -43q-29 -31 -68.5 -51.5t-77.5 -20.5
q-21 0 -39.5 20t-30.5 52q-70 -72 -155 -72q-70 0 -110.5 42.5t-40.5 121.5zM136 724q19 30 53 44l110 -100l104 100q35 -8 51 -40l-110 -172q-45 -10 -90 -9z" />
    <glyph glyph-name="Udieresismacron" unicode="&#x1d5;" horiz-adv-x="712" 
d="M621 444v-167q0 -133 -67 -214t-212 -81q-122 0 -184.5 60t-62.5 192v210q0 76 -5 138q-48 15 -87 19q0 39 8 70q19 0 71 -1t86 -1q115 0 154 2q7 -33 6 -70q-40 -15 -81 -19q-4 -49 -4 -138v-162q0 -199 138 -199q30 0 57 10.5t37 22.5q34 41 34 134v194q0 76 -5 138
q-48 15 -87 19q0 39 8 70q21 0 67.5 -1t71.5 -1q97 0 136 2q7 -33 6 -70q-40 -15 -81 -19q-4 -49 -4 -138zM261 728q-27 0 -48.5 18t-21.5 44q0 34 24 63t58 29q26 0 46.5 -18.5t20.5 -45.5q0 -34 -23 -61.5t-56 -28.5zM471 728q-25 0 -46.5 18.5t-21.5 43.5q0 34 23.5 63
t56.5 29q28 0 49 -18.5t21 -45.5q0 -35 -23.5 -62t-58.5 -28zM221 1026h302q21 -48 0 -97h-302q-20 51 0 97z" />
    <glyph glyph-name="udieresismacron" unicode="&#x1d6;" horiz-adv-x="622" 
d="M89 150v246q-36 16 -78 22q0 43 7 67q15 0 64.5 -1t90.5 -1h50l12 -12q-2 -90 -2 -261q0 -118 59 -118q35 0 89 50v254q-35 16 -73 22q0 43 7 67q15 0 63 -1t88 -1h49l12 -12q-2 -75 -2 -250v-62q0 -25 2 -69q28 2 64 11q20 -15 20 -43q-29 -31 -68.5 -51.5t-77.5 -20.5
q-21 0 -39.5 20t-30.5 52q-70 -72 -155 -72q-70 0 -110.5 42.5t-40.5 121.5zM172 538q-28 0 -49.5 19t-21.5 45q0 35 24 64.5t60 29.5q27 0 49 -19.5t22 -46.5q0 -35 -24.5 -63t-59.5 -29zM383 538q-26 0 -48.5 19t-22.5 45q0 34 25 64t59 30q28 0 49.5 -19.5t21.5 -46.5
q0 -36 -24 -63.5t-60 -28.5zM133 841h302q21 -48 0 -97h-302q-20 51 0 97z" />
    <glyph glyph-name="Udieresisacute" unicode="&#x1d7;" horiz-adv-x="712" 
d="M621 444v-167q0 -133 -67 -214t-212 -81q-122 0 -184.5 60t-62.5 192v210q0 76 -5 138q-48 15 -87 19q0 39 8 70q19 0 71 -1t86 -1q115 0 154 2q7 -33 6 -70q-40 -15 -81 -19q-4 -49 -4 -138v-162q0 -199 138 -199q30 0 57 10.5t37 22.5q34 41 34 134v194q0 76 -5 138
q-48 15 -87 19q0 39 8 70q21 0 67.5 -1t71.5 -1q97 0 136 2q7 -33 6 -70q-40 -15 -81 -19q-4 -49 -4 -138zM261 728q-27 0 -48.5 18t-21.5 44q0 34 24 63t58 29q26 0 46.5 -18.5t20.5 -45.5q0 -34 -23 -61.5t-56 -28.5zM471 728q-25 0 -46.5 18.5t-21.5 43.5q0 34 23.5 63
t56.5 29q28 0 49 -18.5t21 -45.5q0 -35 -23.5 -62t-58.5 -28zM249 976l200 137q60 -31 74 -95l-7 -25l-233 -82q-27 25 -34 65z" />
    <glyph glyph-name="udieresisacute" unicode="&#x1d8;" horiz-adv-x="622" 
d="M89 150v246q-36 16 -78 22q0 43 7 67q15 0 64.5 -1t90.5 -1h50l12 -12q-2 -90 -2 -261q0 -118 59 -118q35 0 89 50v254q-35 16 -73 22q0 43 7 67q15 0 63 -1t88 -1h49l12 -12q-2 -75 -2 -250v-62q0 -25 2 -69q28 2 64 11q20 -15 20 -43q-29 -31 -68.5 -51.5t-77.5 -20.5
q-21 0 -39.5 20t-30.5 52q-70 -72 -155 -72q-70 0 -110.5 42.5t-40.5 121.5zM172 538q-28 0 -49.5 19t-21.5 45q0 35 24 64.5t60 29.5q27 0 49 -19.5t22 -46.5q0 -35 -24.5 -63t-59.5 -29zM383 538q-26 0 -48.5 19t-22.5 45q0 34 25 64t59 30q28 0 49.5 -19.5t21.5 -46.5
q0 -36 -24 -63.5t-60 -28.5zM161 791l200 137q60 -31 74 -95l-7 -25l-233 -82q-27 25 -34 65z" />
    <glyph glyph-name="Udieresiscaron" unicode="&#x1d9;" horiz-adv-x="712" 
d="M621 444v-167q0 -133 -67 -214t-212 -81q-122 0 -184.5 60t-62.5 192v210q0 76 -5 138q-48 15 -87 19q0 39 8 70q19 0 71 -1t86 -1q115 0 154 2q7 -33 6 -70q-40 -15 -81 -19q-4 -49 -4 -138v-162q0 -199 138 -199q30 0 57 10.5t37 22.5q34 41 34 134v194q0 76 -5 138
q-48 15 -87 19q0 39 8 70q21 0 67.5 -1t71.5 -1q97 0 136 2q7 -33 6 -70q-40 -15 -81 -19q-4 -49 -4 -138zM261 728q-27 0 -48.5 18t-21.5 44q0 34 24 63t58 29q26 0 46.5 -18.5t20.5 -45.5q0 -34 -23 -61.5t-56 -28.5zM471 728q-25 0 -46.5 18.5t-21.5 43.5q0 34 23.5 63
t56.5 29q28 0 49 -18.5t21 -45.5q0 -35 -23.5 -62t-58.5 -28zM193 1044q15 38 48 60l135 -80l133 80q34 -21 44 -56l-137 -130q-35 -7 -79 -7z" />
    <glyph glyph-name="udieresiscaron" unicode="&#x1da;" horiz-adv-x="622" 
d="M89 150v246q-36 16 -78 22q0 43 7 67q15 0 64.5 -1t90.5 -1h50l12 -12q-2 -90 -2 -261q0 -118 59 -118q35 0 89 50v254q-35 16 -73 22q0 43 7 67q15 0 63 -1t88 -1h49l12 -12q-2 -75 -2 -250v-62q0 -25 2 -69q28 2 64 11q20 -15 20 -43q-29 -31 -68.5 -51.5t-77.5 -20.5
q-21 0 -39.5 20t-30.5 52q-70 -72 -155 -72q-70 0 -110.5 42.5t-40.5 121.5zM172 538q-28 0 -49.5 19t-21.5 45q0 35 24 64.5t60 29.5q27 0 49 -19.5t22 -46.5q0 -35 -24.5 -63t-59.5 -29zM383 538q-26 0 -48.5 19t-22.5 45q0 34 25 64t59 30q28 0 49.5 -19.5t21.5 -46.5
q0 -36 -24 -63.5t-60 -28.5zM105 859q15 38 48 60l135 -80l133 80q34 -21 44 -56l-137 -130q-35 -7 -79 -7z" />
    <glyph glyph-name="Udieresisgrave" unicode="&#x1db;" horiz-adv-x="712" 
d="M621 444v-167q0 -133 -67 -214t-212 -81q-122 0 -184.5 60t-62.5 192v210q0 76 -5 138q-48 15 -87 19q0 39 8 70q19 0 71 -1t86 -1q115 0 154 2q7 -33 6 -70q-40 -15 -81 -19q-4 -49 -4 -138v-162q0 -199 138 -199q30 0 57 10.5t37 22.5q34 41 34 134v194q0 76 -5 138
q-48 15 -87 19q0 39 8 70q21 0 67.5 -1t71.5 -1q97 0 136 2q7 -33 6 -70q-40 -15 -81 -19q-4 -49 -4 -138zM261 728q-27 0 -48.5 18t-21.5 44q0 34 24 63t58 29q26 0 46.5 -18.5t20.5 -45.5q0 -34 -23 -61.5t-56 -28.5zM471 728q-25 0 -46.5 18.5t-21.5 43.5q0 34 23.5 63
t56.5 29q28 0 49 -18.5t21 -45.5q0 -35 -23.5 -62t-58.5 -28zM300 1122l192 -144q0 -44 -36 -64l-228 95l-6 25q17 60 78 88z" />
    <glyph glyph-name="udieresisgrave" unicode="&#x1dc;" horiz-adv-x="622" 
d="M89 150v246q-36 16 -78 22q0 43 7 67q15 0 64.5 -1t90.5 -1h50l12 -12q-2 -90 -2 -261q0 -118 59 -118q35 0 89 50v254q-35 16 -73 22q0 43 7 67q15 0 63 -1t88 -1h49l12 -12q-2 -75 -2 -250v-62q0 -25 2 -69q28 2 64 11q20 -15 20 -43q-29 -31 -68.5 -51.5t-77.5 -20.5
q-21 0 -39.5 20t-30.5 52q-70 -72 -155 -72q-70 0 -110.5 42.5t-40.5 121.5zM172 538q-28 0 -49.5 19t-21.5 45q0 35 24 64.5t60 29.5q27 0 49 -19.5t22 -46.5q0 -35 -24.5 -63t-59.5 -29zM383 538q-26 0 -48.5 19t-22.5 45q0 34 25 64t59 30q28 0 49.5 -19.5t21.5 -46.5
q0 -36 -24 -63.5t-60 -28.5zM222 937l192 -144q0 -45 -36 -64l-228 95l-6 25q17 60 78 88z" />
    <glyph glyph-name="Gcaron" unicode="&#x1e6;" horiz-adv-x="689" 
d="M182 363q0 -123 51 -199.5t149 -76.5q33 0 71 3v8q0 76 -5 138q-57 15 -102 19q0 40 9 70q18 0 70 -1t95 -1q120 0 147 2q7 -33 6 -70q-36 -15 -74 -19q-4 -49 -4 -138v-58q-146 -55 -269 -55q-143 0 -221 95.5t-78 242.5q0 65 23 128.5t65.5 116t112 85t155.5 32.5
q115 0 198 -30q0 -113 -23 -193q-44 -7 -89 7q-3 62 -12 103q-36 6 -85 6q-93 0 -119 -22q-20 -16 -45.5 -68t-25.5 -125zM194 854q15 38 48 60l135 -80l133 80q34 -21 44 -56l-137 -130q-35 -7 -79 -7z" />
    <glyph glyph-name="gcaron" unicode="&#x1e7;" horiz-adv-x="532" 
d="M466 332q0 -77 -59.5 -134t-169.5 -58q-8 -16 -8 -33q0 -15 4 -19q5 -6 104 -6q71 0 118.5 -39t47.5 -105q0 -100 -75 -154t-213 -54q-58 0 -99.5 13.5t-62.5 35.5t-30 44t-9 44q0 78 100 135q-11 13 -11 40q0 45 59 106q-119 31 -119 155q0 75 59.5 133.5t164.5 58.5
q58 0 102 -18q41 48 116 89q41 -25 53 -88q-41 -21 -109 -42q37 -43 37 -104zM263 -31q-61 0 -92 7q-27 -31 -27 -72q0 -33 26 -55t78 -22q76 0 109 21q8 5 14 24.5t6 39.5q0 57 -114 57zM330 315q0 35 -22.5 63t-58.5 28q-34 0 -46 -10q-25 -21 -25 -68q0 -42 21.5 -70.5
t54.5 -28.5q35 0 48 11q10 8 19 30.5t9 44.5zM87 719q19 30 53 44l110 -100l104 100q35 -8 51 -40l-110 -172q-45 -11 -90 -9z" />
    <glyph glyph-name="Oogonek" unicode="&#x1ea;" horiz-adv-x="694" 
d="M468 -85q0 -25 10 -41t25 -16q20 0 53 9q21 -24 21 -61q-64 -35 -125 -35q-43 0 -72.5 23.5t-29.5 59.5q0 70 90 141l-3 4q-48 -17 -100 -17q-147 0 -228.5 96t-81.5 245q0 89 39 171.5t116.5 138t174.5 55.5q146 0 228 -96t82 -245q0 -75 -31 -149.5t-84 -129.5
q-84 -86 -84 -153zM365 93q27 0 54.5 9.5t35.5 19.5q56 66 56 185q0 117 -45 193.5t-137 76.5q-27 0 -54.5 -9.5t-35.5 -19.5q-56 -66 -56 -185q0 -117 45 -193.5t137 -76.5z" />
    <glyph glyph-name="oogonek" unicode="&#x1eb;" horiz-adv-x="543" 
d="M438 61q-72 -93 -72 -146q0 -25 10 -41t25 -16q20 0 53 9q21 -24 21 -61q-64 -35 -125 -35q-43 0 -72.5 23.5t-29.5 60.5q0 68 88 143l-4 4q-35 -16 -83 -16q-101 0 -160 69t-59 179q0 101 68.5 182.5t179.5 81.5q116 0 175.5 -68.5t59.5 -179.5q0 -92 -75 -189zM280 83
q39 0 50 15q36 46 36 127q0 41 -9.5 79t-33.5 67.5t-60 29.5q-39 0 -50 -15q-36 -46 -36 -127q0 -41 9.5 -79t33.5 -67.5t60 -29.5z" />
    <glyph glyph-name="Ezhcaron" unicode="&#x1ee;" horiz-adv-x="596" 
d="M196 388l150 185h-205q-12 -67 -15 -110q-48 -10 -89 0q-16 79 -13 196l12 12q62 -2 243 -2h219q30 -40 36 -88l-151 -170q86 -5 138.5 -53.5t52.5 -129.5q0 -95 -100 -169t-236 -74q-129 0 -217 29q2 122 18 200q36 10 85 5q9 -74 25 -116q29 -7 100 -7q37 0 76.5 7.5
t49.5 15.5q41 33 41 92q0 47 -31 78.5t-90 31.5q-40 0 -77 -10l-10 8q-14 30 -12 69zM95 854q15 38 48 60l135 -80l133 80q34 -21 44 -56l-137 -130q-35 -7 -79 -7z" />
    <glyph glyph-name="ezhcaron" unicode="&#x1ef;" horiz-adv-x="487" 
d="M471 3q0 -105 -75.5 -184.5t-193.5 -79.5q-125 0 -196 37q2 69 46 112l18 6q88 -58 153 -58q50 0 62 12q18 16 29 55t11 80q0 60 -37.5 101t-108.5 38q-26 18 -34 44l142 235h-151q-8 -38 -14 -94q-49 -10 -90 0q-8 63 -8 166l11 12q59 -2 224 -2h163q27 -44 27 -86
l-135 -187q68 -15 112.5 -71.5t44.5 -135.5zM74 724q19 30 53 44l110 -100l104 100q35 -8 51 -40l-110 -172q-45 -10 -90 -9z" />
    <glyph glyph-name="uni01F1" unicode="&#x1f1;" horiz-adv-x="1287" 
d="M181 1q-34 0 -86 -1t-71 -1q-8 31 -8 70q39 4 87 19q5 24 5 61v295q0 76 -5 138q-48 15 -87 19q0 39 8 70q19 0 71 -1t86 -1q33 0 105 2.5t106 2.5q131 0 204.5 -91.5t73.5 -238.5q0 -137 -92 -242.5t-230 -105.5q-23 0 -77.5 2.5t-89.5 2.5zM339 577q-29 0 -83 -2v-480
h84q32 0 66 7.5t46 17.5q62 52 62 186q0 69 -18.5 129t-59.5 101t-97 41zM1001 1h-269q-18 45 -15 88l327 484h-191q-12 -67 -15 -110q-48 -10 -89 0q-16 79 -13 196l12 12q62 -2 235 -2h221q30 -40 36 -88l-328 -484h224q19 52 36 123q42 6 87 -7q0 -87 -11 -202l-12 -12
q-62 2 -235 2z" />
    <glyph glyph-name="uni01F2" unicode="&#x1f2;" horiz-adv-x="1218" 
d="M181 1q-34 0 -86 -1t-71 -1q-8 31 -8 70q39 4 87 19q5 24 5 61v295q0 76 -5 138q-48 15 -87 19q0 39 8 70q19 0 71 -1t86 -1q33 0 105 2.5t106 2.5q131 0 204.5 -91.5t73.5 -238.5q0 -137 -92 -242.5t-230 -105.5q-23 0 -77.5 2.5t-89.5 2.5zM339 577q-29 0 -83 -2v-480
h84q32 0 66 7.5t46 17.5q62 52 62 186q0 69 -18.5 129t-59.5 101t-97 41zM744 473l11 12q59 -2 224 -2h165q27 -44 27 -86l-278 -314h174q16 43 32 109q42 5 86 -4q3 -67 -8 -177l-12 -12q-61 2 -233 2h-183q-21 40 -21 97l266 303h-146q-8 -36 -15 -94q-44 -10 -81 0
q-8 63 -8 166z" />
    <glyph glyph-name="uni01F3" unicode="&#x1f3;" horiz-adv-x="1103" 
d="M30 231q0 110 65.5 187t150.5 77q50 0 99 -19v176q-48 12 -85 16q-10 32 -4 61q100 34 225 37l12 -12q-4 -133 -4 -288v-307q0 -25 2 -69q28 2 64 11q20 -15 20 -43q-29 -31 -68.5 -51.5t-77.5 -20.5q-22 0 -41 21.5t-31 56.5q-73 -78 -149 -78q-86 0 -132 69t-46 176z
M253 92q34 0 92 58v236q-41 12 -76 12q-45 0 -55 -13q-15 -18 -26 -54.5t-11 -72.5q0 -68 21 -117t55 -49zM629 473l11 12q59 -2 224 -2h165q27 -44 27 -86l-278 -314h174q16 42 32 109q42 5 86 -4q2 -67 -8 -177l-12 -12q-61 2 -233 2h-183q-21 40 -21 97l266 303h-146
q-8 -36 -15 -94q-44 -10 -81 0q-8 63 -8 166z" />
    <glyph glyph-name="Gacute" unicode="&#x1f4;" horiz-adv-x="689" 
d="M182 363q0 -123 51 -199.5t149 -76.5q33 0 71 3v8q0 76 -5 138q-57 15 -102 19q0 40 9 70q18 0 70 -1t95 -1q120 0 147 2q7 -33 6 -70q-36 -15 -74 -19q-4 -49 -4 -138v-58q-146 -55 -269 -55q-143 0 -221 95.5t-78 242.5q0 65 23 128.5t65.5 116t112 85t155.5 32.5
q115 0 198 -30q0 -113 -23 -193q-44 -7 -89 7q-3 62 -12 103q-36 6 -85 6q-93 0 -119 -22q-20 -16 -45.5 -68t-25.5 -125zM273 786l200 137q60 -31 74 -95l-7 -25l-233 -82q-27 25 -34 65z" />
    <glyph glyph-name="uni01F5" unicode="&#x1f5;" horiz-adv-x="532" 
d="M466 332q0 -77 -59.5 -134t-169.5 -58q-8 -16 -8 -33q0 -15 4 -19q5 -6 104 -6q71 0 118.5 -39t47.5 -105q0 -100 -75 -154t-213 -54q-58 0 -99.5 13.5t-62.5 35.5t-30 44t-9 44q0 78 100 135q-11 13 -11 40q0 45 59 106q-119 31 -119 155q0 75 59.5 133.5t164.5 58.5
q58 0 102 -18q41 48 116 89q41 -25 53 -88q-41 -21 -109 -42q37 -43 37 -104zM263 -31q-61 0 -92 7q-27 -31 -27 -72q0 -33 26 -55t78 -22q76 0 109 21q8 5 14 24.5t6 39.5q0 57 -114 57zM330 315q0 35 -22.5 63t-58.5 28q-34 0 -46 -10q-25 -21 -25 -68q0 -42 21.5 -70.5
t54.5 -28.5q35 0 48 11q10 8 19 30.5t9 44.5zM175 579l95 167q61 13 143 13l11 -29l-196 -194q-39 3 -53 43z" />
    <glyph glyph-name="Aringacute" unicode="&#x1fa;" horiz-adv-x="717" 
d="M482 86l-38 105q-85 5 -149 5h-67l-38 -110l89 -17q1 -37 -6 -70q-41 2 -140 2q-27 0 -66.5 -1t-53.5 -1q-8 31 -8 70q34 4 80 19l205 570q60 17 135 17l214 -587q38 -4 74 -19q1 -37 -6 -70q-37 2 -150 2q-33 0 -87 -1t-75 -1q-8 31 -8 70zM348 545l-91 -264h155
l-58 161l-2 103h-4zM365 782q13 0 29 8q10 10 10 29q0 16 -12.5 29t-28.5 13q-17 0 -29 -8q-10 -7 -10 -28q0 -16 12.5 -29.5t28.5 -13.5zM358 708q-118 0 -118 112q0 42 40 78.5t90 36.5q118 0 118 -112q0 -42 -40 -78.5t-90 -36.5zM220 1001l200 137q60 -31 74 -95l-7 -25
l-233 -82q-27 25 -34 65z" />
    <glyph glyph-name="aringacute" unicode="&#x1fb;" horiz-adv-x="535" 
d="M29 112q0 38 25.5 72t68.5 58t86.5 40.5t91.5 28.5q-3 100 -61 100q-35 0 -60 -4q-8 -27 -8 -75q-46 -22 -88 -12q-33 47 -33 120q98 57 220 57q22 0 43 -3.5t46 -14t43 -27.5t30.5 -47.5t12.5 -70.5v-175q0 -25 2 -69q28 2 64 11q20 -15 20 -43q-29 -31 -68.5 -51.5
t-77.5 -20.5q-40 0 -67 62q-80 -62 -148 -62q-142 0 -142 126zM237 89q24 0 65 25v106q-92 -11 -107 -23q-19 -14 -19 -50q0 -24 16 -41t45 -17zM243 603q16 0 30 7q9 5 9 31q0 17 -12 30t-29 13q-19 0 -30 -7q-10 -7 -10 -30q0 -17 12.5 -30.5t29.5 -13.5zM236 526
q-56 0 -87 29t-31 87q0 44 40 81.5t90 37.5q118 0 118 -116q0 -43 -40 -81t-90 -38zM110 836l200 137q60 -31 74 -95l-7 -25l-233 -82q-27 25 -34 65z" />
    <glyph glyph-name="AEacute" unicode="&#x1fc;" horiz-adv-x="915" 
d="M189 86l89 -17q1 -37 -6 -70q-41 2 -140 2q-27 0 -66.5 -1t-53.5 -1q-8 31 -8 70q35 4 80 19l215 489l-87 24q0 39 8 70q21 0 63 -1t64 -1h282q173 0 235 2l12 -13q3 -121 -13 -195q-51 -9 -89 0q-5 59 -15 110h-178v-206l178 3l12 -12q-2 -52 -11 -82l-179 3v-182h191
q19 52 36 123q42 6 87 -7q0 -85 -11 -201l-12 -13q-62 2 -235 2h-129q-34 0 -87 -1t-72 -1q-8 31 -8 70q39 4 87 19q5 24 5 61v131h-159zM402 573l-91 -207h122v207h-31zM480 786l200 137q60 -31 74 -95l-7 -25l-233 -82q-27 25 -34 65z" />
    <glyph glyph-name="aeacute" unicode="&#x1fd;" horiz-adv-x="767" 
d="M29 112q0 38 25.5 72t68.5 58t86.5 40.5t91.5 28.5q-3 100 -61 100q-35 0 -60 -4q-8 -27 -8 -75q-46 -22 -88 -12q-33 47 -33 120q98 57 220 57q33 0 69 -14.5t60 -43.5q66 59 141 59q54 0 94 -19t60 -50.5t29.5 -64t9.5 -66.5t-9 -55l-12 -12q-112 2 -183 2h-82
q7 -59 37 -100t88 -41q53 0 135 34q22 -20 26 -62q-40 -32 -96.5 -55t-108.5 -23q-126 0 -184 85q-91 -85 -174 -85q-142 0 -142 126zM318 126q-15 47 -15 94q-91 -11 -108 -23q-19 -16 -19 -50q0 -24 16 -41t45 -17q31 0 81 37zM522 405q-26 0 -45.5 -27t-26.5 -71h70
q22 0 70 3q0 95 -68 95zM330 574l95 167q61 13 143 13l11 -29l-196 -194q-39 3 -53 43z" />
    <glyph glyph-name="Oslashacute" unicode="&#x1fe;" horiz-adv-x="694" 
d="M96 -35l44 82q-113 93 -113 276q0 89 39 171.5t116.5 138t174.5 55.5q67 0 125 -24l45 82q47 -3 73 -36l-46 -88q113 -93 113 -275q0 -89 -39 -171.5t-116.5 -138t-174.5 -55.5q-69 0 -128 24l-45 -82q-45 9 -68 41zM365 93q27 0 54.5 9.5t35.5 19.5q56 66 56 185
q0 107 -37 178l-198 -366q37 -26 89 -26zM183 363q0 -109 36 -178l197 367q-37 25 -87 25q-27 0 -54.5 -9.5t-35.5 -19.5q-56 -66 -56 -185zM249 786l200 137q60 -31 74 -95l-7 -25l-233 -82q-27 25 -34 65z" />
    <glyph glyph-name="oslashacute" unicode="&#x1ff;" horiz-adv-x="543" 
d="M86 -40l33 67q-89 65 -89 207q0 101 68.5 182.5t179.5 81.5q37 0 71 -8l35 69q45 -7 68 -31l-33 -69q94 -64 94 -209q0 -101 -68.5 -182.5t-179.5 -81.5q-40 0 -73 9l-34 -71q-45 6 -72 36zM280 83q86 0 86 142q0 50 -15 95l-111 -227q17 -10 40 -10zM177 259
q0 -48 13 -90l110 222q-18 10 -37 10q-86 0 -86 -142zM196 574l95 167q61 13 143 13l11 -29l-196 -194q-39 3 -53 43z" />
    <glyph glyph-name="Adblgrave" unicode="&#x200;" horiz-adv-x="717" 
d="M482 86l-38 105q-85 5 -149 5h-67l-38 -110l89 -17q1 -37 -6 -70q-41 2 -140 2q-27 0 -66.5 -1t-53.5 -1q-8 31 -8 70q34 4 80 19l205 570q60 17 135 17l214 -587q38 -4 74 -19q1 -37 -6 -70q-37 2 -150 2q-33 0 -87 -1t-75 -1q-8 31 -8 70zM348 545l-91 -264h155
l-58 161l-2 103h-4zM144 877l8 22q39 28 96 31l80 -172q-23 -23 -56 -35zM321 877l8 22q39 28 96 31l80 -172q-23 -23 -56 -35z" />
    <glyph glyph-name="adblgrave" unicode="&#x201;" horiz-adv-x="535" 
d="M29 112q0 38 25.5 72t68.5 58t86.5 40.5t91.5 28.5q-3 100 -61 100q-35 0 -60 -4q-8 -27 -8 -75q-46 -22 -88 -12q-33 47 -33 120q98 57 220 57q22 0 43 -3.5t46 -14t43 -27.5t30.5 -47.5t12.5 -70.5v-175q0 -25 2 -69q28 2 64 11q20 -15 20 -43q-29 -31 -68.5 -51.5
t-77.5 -20.5q-40 0 -67 62q-80 -62 -148 -62q-142 0 -142 126zM237 89q24 0 65 25v106q-92 -11 -107 -23q-19 -14 -19 -50q0 -24 16 -41t45 -17zM47 729l8 22q39 28 96 31l57 -198q-18 -24 -55 -27zM214 729l8 22q39 28 96 31l57 -198q-18 -24 -55 -27z" />
    <glyph glyph-name="uni0202" unicode="&#x202;" horiz-adv-x="717" 
d="M482 86l-38 105q-85 5 -149 5h-67l-38 -110l89 -17q1 -37 -6 -70q-41 2 -140 2q-27 0 -66.5 -1t-53.5 -1q-8 31 -8 70q34 4 80 19l205 570q60 17 135 17l214 -587q38 -4 74 -19q1 -37 -6 -70q-37 2 -150 2q-33 0 -87 -1t-75 -1q-8 31 -8 70zM348 545l-91 -264h155
l-58 161l-2 103h-4zM371 890q59 0 102 -33.5t62 -81.5q-11 -26 -47 -40q-60 58 -125 58q-66 0 -126 -58q-35 12 -44 38q19 47 70 82t108 35z" />
    <glyph glyph-name="uni0203" unicode="&#x203;" horiz-adv-x="535" 
d="M29 112q0 38 25.5 72t68.5 58t86.5 40.5t91.5 28.5q-3 100 -61 100q-35 0 -60 -4q-8 -27 -8 -75q-46 -22 -88 -12q-33 47 -33 120q98 57 220 57q22 0 43 -3.5t46 -14t43 -27.5t30.5 -47.5t12.5 -70.5v-175q0 -25 2 -69q28 2 64 11q20 -15 20 -43q-29 -31 -68.5 -51.5
t-77.5 -20.5q-40 0 -67 62q-80 -62 -148 -62q-142 0 -142 126zM237 89q24 0 65 25v106q-92 -11 -107 -23q-19 -14 -19 -50q0 -24 16 -41t45 -17zM249 705q63 0 103.5 -37t57.5 -93q-10 -27 -42 -36q-58 64 -128 64q-71 0 -126 -63q-27 4 -40 33q16 53 64 92.5t111 39.5z" />
    <glyph glyph-name="Edblgrave" unicode="&#x204;" horiz-adv-x="590" 
d="M181 669h123q173 0 235 2l12 -13q3 -121 -13 -195q-51 -9 -89 0q-5 59 -15 110h-178v-186l178 6l12 -12q-2 -58 -11 -88l-179 5v-201h191q19 52 36 123q42 6 87 -7q0 -85 -11 -201l-12 -13q-62 2 -235 2h-129q-34 0 -87 -1t-72 -1q-8 31 -8 70q39 4 87 19q5 24 5 61v295
q0 75 -5 138q-48 15 -87 19q0 39 8 70q19 0 71 -1t86 -1zM92 877l8 22q39 28 96 31l80 -172q-23 -23 -56 -35zM269 877l8 22q39 28 96 31l80 -172q-23 -23 -56 -35z" />
    <glyph glyph-name="edblgrave" unicode="&#x205;" horiz-adv-x="494" 
d="M30 228q0 102 69 186t169 84q54 0 94 -19t60 -50.5t29.5 -64t9.5 -66.5t-9 -55l-12 -12q-140 2 -228 2h-37q7 -59 37 -100t88 -41q53 0 135 34q22 -20 26 -62q-40 -32 -96.5 -55t-108.5 -23q-113 0 -169.5 67t-56.5 175zM211 390q-25 -39 -34 -83h22q82 0 118 3
q0 95 -68 95q-28 0 -38 -15zM68 729l8 22q39 28 96 31l57 -198q-18 -24 -55 -27zM235 729l8 22q39 28 96 31l57 -198q-18 -24 -55 -27z" />
    <glyph glyph-name="uni0206" unicode="&#x206;" horiz-adv-x="590" 
d="M181 669h123q173 0 235 2l12 -13q3 -121 -13 -195q-51 -9 -89 0q-5 59 -15 110h-178v-186l178 6l12 -12q-2 -58 -11 -88l-179 5v-201h191q19 52 36 123q42 6 87 -7q0 -85 -11 -201l-12 -13q-62 2 -235 2h-129q-34 0 -87 -1t-72 -1q-8 31 -8 70q39 4 87 19q5 24 5 61v295
q0 75 -5 138q-48 15 -87 19q0 39 8 70q19 0 71 -1t86 -1zM319 890q59 0 102 -33.5t62 -81.5q-11 -26 -47 -40q-60 58 -125 58q-66 0 -126 -58q-35 12 -44 38q19 47 70 82t108 35z" />
    <glyph glyph-name="uni0207" unicode="&#x207;" horiz-adv-x="494" 
d="M30 228q0 102 69 186t169 84q54 0 94 -19t60 -50.5t29.5 -64t9.5 -66.5t-9 -55l-12 -12q-140 2 -228 2h-37q7 -59 37 -100t88 -41q53 0 135 34q22 -20 26 -62q-40 -32 -96.5 -55t-108.5 -23q-113 0 -169.5 67t-56.5 175zM211 390q-25 -39 -34 -83h22q82 0 118 3
q0 95 -68 95q-28 0 -38 -15zM270 705q63 0 103.5 -37t57.5 -93q-10 -27 -42 -36q-58 64 -128 64q-71 0 -126 -63q-27 4 -40 33q16 53 64 92.5t111 39.5z" />
    <glyph glyph-name="Idblgrave" unicode="&#x208;" horiz-adv-x="362" 
d="M103 582q-48 15 -87 19q0 39 8 70q19 0 71 -1t86 -1q115 0 154 2q7 -33 6 -70q-40 -15 -81 -19q-4 -49 -4 -138v-273q0 -48 4 -83q41 -4 81 -19q1 -37 -6 -70q-39 2 -154 2q-34 0 -86 -1t-71 -1q-8 31 -8 70q39 4 87 19q5 24 5 61v295q0 76 -5 138zM-38 877l8 22
q39 28 96 31l80 -172q-23 -23 -56 -35zM139 877l8 22q39 28 96 31l80 -172q-23 -23 -56 -35z" />
    <glyph glyph-name="idblgrave" unicode="&#x209;" horiz-adv-x="354" 
d="M257 198v-39q0 -39 3 -75q46 -5 75 -18q0 -48 -6 -67q-54 2 -141 2q-39 0 -88 -1t-64 -1q-7 21 -7 67q45 5 80 17q4 29 4 56v245q-45 12 -79 16q-10 32 -4 61q97 34 219 37l12 -12q-4 -133 -4 -288zM-23 729l8 22q39 28 96 31l57 -198q-18 -24 -55 -27zM144 729l8 22
q39 28 96 31l57 -198q-18 -24 -55 -27z" />
    <glyph glyph-name="uni020A" unicode="&#x20a;" horiz-adv-x="362" 
d="M103 582q-48 15 -87 19q0 39 8 70q19 0 71 -1t86 -1q115 0 154 2q7 -33 6 -70q-40 -15 -81 -19q-4 -49 -4 -138v-273q0 -48 4 -83q41 -4 81 -19q1 -37 -6 -70q-39 2 -154 2q-34 0 -86 -1t-71 -1q-8 31 -8 70q39 4 87 19q5 24 5 61v295q0 76 -5 138zM189 890
q59 0 102 -33.5t62 -81.5q-11 -26 -47 -40q-60 58 -125 58q-66 0 -126 -58q-35 12 -44 38q19 47 70 82t108 35z" />
    <glyph glyph-name="uni020B" unicode="&#x20b;" horiz-adv-x="354" 
d="M257 198v-39q0 -39 3 -75q46 -5 75 -18q0 -48 -6 -67q-54 2 -141 2q-39 0 -88 -1t-64 -1q-7 21 -7 67q45 5 80 17q4 29 4 56v245q-45 12 -79 16q-10 32 -4 61q97 34 219 37l12 -12q-4 -133 -4 -288zM179 705q63 0 103.5 -37t57.5 -93q-10 -27 -42 -36q-58 64 -128 64
q-71 0 -126 -63q-27 4 -40 33q16 53 64 92.5t111 39.5z" />
    <glyph glyph-name="Odblgrave" unicode="&#x20c;" horiz-adv-x="694" 
d="M337 -18q-147 0 -228.5 96t-81.5 245q0 89 39 171.5t116.5 138t174.5 55.5q146 0 228 -96t82 -245q0 -89 -39 -171.5t-116.5 -138t-174.5 -55.5zM365 93q27 0 54.5 9.5t35.5 19.5q56 66 56 185q0 117 -45 193.5t-137 76.5q-27 0 -54.5 -9.5t-35.5 -19.5q-56 -66 -56 -185
q0 -117 45 -193.5t137 -76.5zM129 877l8 22q39 28 96 31l80 -172q-23 -23 -56 -35zM306 877l8 22q39 28 96 31l80 -172q-23 -23 -56 -35z" />
    <glyph glyph-name="odblgrave" unicode="&#x20d;" horiz-adv-x="543" 
d="M278 498q116 0 175.5 -68.5t59.5 -179.5q0 -101 -68.5 -182.5t-179.5 -81.5q-115 0 -175 68t-60 180q0 101 68.5 182.5t179.5 81.5zM280 83q39 0 50 15q36 46 36 127q0 41 -9.5 79t-33.5 67.5t-60 29.5q-39 0 -50 -15q-36 -46 -36 -127q0 -41 9.5 -79t33.5 -67.5
t60 -29.5zM78 729l8 22q39 28 96 31l57 -198q-18 -24 -55 -27zM245 729l8 22q39 28 96 31l57 -198q-18 -24 -55 -27z" />
    <glyph glyph-name="uni020E" unicode="&#x20e;" horiz-adv-x="694" 
d="M337 -18q-147 0 -228.5 96t-81.5 245q0 89 39 171.5t116.5 138t174.5 55.5q146 0 228 -96t82 -245q0 -89 -39 -171.5t-116.5 -138t-174.5 -55.5zM365 93q27 0 54.5 9.5t35.5 19.5q56 66 56 185q0 117 -45 193.5t-137 76.5q-27 0 -54.5 -9.5t-35.5 -19.5q-56 -66 -56 -185
q0 -117 45 -193.5t137 -76.5zM356 890q59 0 102 -33.5t62 -81.5q-11 -26 -47 -40q-60 58 -125 58q-66 0 -126 -58q-35 12 -44 38q19 47 70 82t108 35z" />
    <glyph glyph-name="uni020F" unicode="&#x20f;" horiz-adv-x="543" 
d="M278 498q116 0 175.5 -68.5t59.5 -179.5q0 -101 -68.5 -182.5t-179.5 -81.5q-115 0 -175 68t-60 180q0 101 68.5 182.5t179.5 81.5zM280 83q39 0 50 15q36 46 36 127q0 41 -9.5 79t-33.5 67.5t-60 29.5q-39 0 -50 -15q-36 -46 -36 -127q0 -41 9.5 -79t33.5 -67.5
t60 -29.5zM280 705q63 0 103.5 -37t57.5 -93q-10 -27 -42 -36q-58 64 -128 64q-71 0 -126 -63q-27 4 -40 33q16 53 64 92.5t111 39.5z" />
    <glyph glyph-name="uni0210" unicode="&#x210;" horiz-adv-x="668" 
d="M453 0l-126 272h-10q-31 0 -61 3v-104q0 -48 4 -83q41 -4 81 -19q1 -37 -6 -70q-39 2 -154 2q-34 0 -86 -1t-71 -1q-8 31 -8 70q39 4 87 19q5 24 5 61v295q0 76 -5 138q-48 15 -87 19q0 39 8 70q19 0 71 -1t86 -1t101 2.5t93 2.5q99 0 156.5 -48.5t57.5 -121.5
q0 -54 -33 -104t-88 -84l113 -229q41 -4 81 -19q1 -37 -6 -70q-44 2 -134 2h-69zM334 577q-52 0 -78 -2v-203q14 -1 44 -1q22 0 44 3.5t34.5 7.5t15.5 6q39 29 39 91q0 38 -26.5 68t-72.5 30zM96 877l8 22q39 28 96 31l80 -172q-23 -23 -56 -35zM273 877l8 22q39 28 96 31
l80 -172q-23 -23 -56 -35z" />
    <glyph glyph-name="rdblgrave" unicode="&#x211;" horiz-adv-x="498" 
d="M215 497l16 -8q14 -34 26 -80q60 86 141 86q51 0 93 -16q0 -123 -20 -190q-47 -18 -91 0q-7 65 -15 98q-6 1 -17 1q-46 0 -90 -73v-156q0 -39 3 -75q73 -5 118 -18q0 -46 -8 -67q-70 2 -182 2q-39 0 -88 -1t-64 -1q-7 21 -7 67q45 5 80 17q4 29 4 56v245q-36 11 -79 16
q-13 33 -4 61q85 30 184 36zM83 729l8 22q39 28 96 31l57 -198q-18 -24 -55 -27zM250 729l8 22q39 28 96 31l57 -198q-18 -24 -55 -27z" />
    <glyph glyph-name="uni0212" unicode="&#x212;" horiz-adv-x="668" 
d="M453 0l-126 272h-10q-31 0 -61 3v-104q0 -48 4 -83q41 -4 81 -19q1 -37 -6 -70q-39 2 -154 2q-34 0 -86 -1t-71 -1q-8 31 -8 70q39 4 87 19q5 24 5 61v295q0 76 -5 138q-48 15 -87 19q0 39 8 70q19 0 71 -1t86 -1t101 2.5t93 2.5q99 0 156.5 -48.5t57.5 -121.5
q0 -54 -33 -104t-88 -84l113 -229q41 -4 81 -19q1 -37 -6 -70q-44 2 -134 2h-69zM334 577q-52 0 -78 -2v-203q14 -1 44 -1q22 0 44 3.5t34.5 7.5t15.5 6q39 29 39 91q0 38 -26.5 68t-72.5 30zM323 890q59 0 102 -33.5t62 -81.5q-11 -26 -47 -40q-60 58 -125 58
q-66 0 -126 -58q-35 12 -44 38q19 47 70 82t108 35z" />
    <glyph glyph-name="uni0213" unicode="&#x213;" horiz-adv-x="498" 
d="M215 497l16 -8q14 -34 26 -80q60 86 141 86q51 0 93 -16q0 -123 -20 -190q-47 -18 -91 0q-7 65 -15 98q-6 1 -17 1q-46 0 -90 -73v-156q0 -39 3 -75q73 -5 118 -18q0 -46 -8 -67q-70 2 -182 2q-39 0 -88 -1t-64 -1q-7 21 -7 67q45 5 80 17q4 29 4 56v245q-36 11 -79 16
q-13 33 -4 61q85 30 184 36zM285 705q63 0 103.5 -37t57.5 -93q-10 -27 -42 -36q-58 64 -128 64q-71 0 -126 -63q-27 4 -40 33q16 53 64 92.5t111 39.5z" />
    <glyph glyph-name="Udblgrave" unicode="&#x214;" horiz-adv-x="712" 
d="M621 444v-167q0 -133 -67 -214t-212 -81q-122 0 -184.5 60t-62.5 192v210q0 76 -5 138q-48 15 -87 19q0 39 8 70q19 0 71 -1t86 -1q115 0 154 2q7 -33 6 -70q-40 -15 -81 -19q-4 -49 -4 -138v-162q0 -199 138 -199q30 0 57 10.5t37 22.5q34 41 34 134v194q0 76 -5 138
q-48 15 -87 19q0 39 8 70q21 0 67.5 -1t71.5 -1q97 0 136 2q7 -33 6 -70q-40 -15 -81 -19q-4 -49 -4 -138zM152 877l8 22q39 28 96 31l80 -172q-23 -23 -56 -35zM329 877l8 22q39 28 96 31l80 -172q-23 -23 -56 -35z" />
    <glyph glyph-name="udblgrave" unicode="&#x215;" horiz-adv-x="622" 
d="M89 150v246q-36 16 -78 22q0 43 7 67q15 0 64.5 -1t90.5 -1h50l12 -12q-2 -90 -2 -261q0 -118 59 -118q35 0 89 50v254q-35 16 -73 22q0 43 7 67q15 0 63 -1t88 -1h49l12 -12q-2 -75 -2 -250v-62q0 -25 2 -69q28 2 64 11q20 -15 20 -43q-29 -31 -68.5 -51.5t-77.5 -20.5
q-21 0 -39.5 20t-30.5 52q-70 -72 -155 -72q-70 0 -110.5 42.5t-40.5 121.5zM98 729l8 22q39 28 96 31l57 -198q-18 -24 -55 -27zM265 729l8 22q39 28 96 31l57 -198q-18 -24 -55 -27z" />
    <glyph glyph-name="uni0216" unicode="&#x216;" horiz-adv-x="712" 
d="M621 444v-167q0 -133 -67 -214t-212 -81q-122 0 -184.5 60t-62.5 192v210q0 76 -5 138q-48 15 -87 19q0 39 8 70q19 0 71 -1t86 -1q115 0 154 2q7 -33 6 -70q-40 -15 -81 -19q-4 -49 -4 -138v-162q0 -199 138 -199q30 0 57 10.5t37 22.5q34 41 34 134v194q0 76 -5 138
q-48 15 -87 19q0 39 8 70q21 0 67.5 -1t71.5 -1q97 0 136 2q7 -33 6 -70q-40 -15 -81 -19q-4 -49 -4 -138zM379 890q59 0 102 -33.5t62 -81.5q-11 -26 -47 -40q-60 58 -125 58q-66 0 -126 -58q-35 12 -44 38q19 47 70 82t108 35z" />
    <glyph glyph-name="uni0217" unicode="&#x217;" horiz-adv-x="622" 
d="M89 150v246q-36 16 -78 22q0 43 7 67q15 0 64.5 -1t90.5 -1h50l12 -12q-2 -90 -2 -261q0 -118 59 -118q35 0 89 50v254q-35 16 -73 22q0 43 7 67q15 0 63 -1t88 -1h49l12 -12q-2 -75 -2 -250v-62q0 -25 2 -69q28 2 64 11q20 -15 20 -43q-29 -31 -68.5 -51.5t-77.5 -20.5
q-21 0 -39.5 20t-30.5 52q-70 -72 -155 -72q-70 0 -110.5 42.5t-40.5 121.5zM300 705q63 0 103.5 -37t57.5 -93q-10 -27 -42 -36q-58 64 -128 64q-71 0 -126 -63q-27 4 -40 33q16 53 64 92.5t111 39.5z" />
    <glyph glyph-name="uni0218" unicode="&#x218;" horiz-adv-x="540" 
d="M21 34q3 106 24 192q40 11 89 -5q4 -65 11 -117q46 -19 107 -19q25 0 48.5 7t29.5 12q25 22 25 72q0 54 -103 95l-77 31q-141 58 -141 180q0 101 72.5 152t171.5 51q115 0 211 -40q-1 -93 -16 -170q-51 -14 -87 5q-3 47 -12 94q-38 13 -99 13q-19 0 -40 -4.5t-25 -7.5
q-23 -18 -23 -57q0 -16 8 -30t26 -25.5t29.5 -17.5t35.5 -17l82 -37q142 -63 142 -175q0 -99 -67.5 -165t-179.5 -66q-151 0 -242 49zM185 -92q31 38 93 46q56 -46 56 -105q0 -44 -31.5 -87.5t-93.5 -78.5q-27 13 -33 40q44 45 44 100q0 37 -35 85z" />
    <glyph glyph-name="uni0219" unicode="&#x219;" horiz-adv-x="449" 
d="M209 -11q-112 0 -181 29q0 80 20 153q40 12 86 0q1 -35 9 -86q24 -11 69 -11q41 0 54 11t13 36q0 22 -18 35.5t-55 27.5q-40 14 -61 23.5t-48 27.5t-39 43.5t-12 59.5q0 80 58 118.5t136 38.5q109 0 176 -19q0 -74 -20 -143q-47 -12 -85 2q-6 45 -17 74q-17 7 -43 7
q-24 0 -39.5 -3.5t-21 -11t-7 -12.5t-1.5 -14q0 -21 24.5 -37.5t60 -30t71 -30.5t60 -48t24.5 -74q0 -82 -58.5 -124t-154.5 -42zM135 -92q31 38 93 46q56 -46 56 -105q0 -44 -31.5 -87.5t-93.5 -78.5q-27 13 -33 40q44 45 44 100q0 37 -35 85z" />
    <glyph glyph-name="uni021A" unicode="&#x21a;" horiz-adv-x="649" 
d="M521 573h-123v-402q0 -48 4 -83q59 -4 113 -19q2 -39 -7 -70q-47 2 -185 2q-40 0 -102.5 -1t-84.5 -1q-10 29 -10 70q52 4 119 19q5 24 5 61v424h-122q-12 -74 -15 -134q-38 -9 -89 0q-17 97 -13 220l12 12q62 -2 235 -2h133q173 0 235 2l12 -12q4 -123 -13 -220
q-51 -9 -89 0q-3 60 -15 134zM257 -92q31 38 93 46q56 -46 56 -105q0 -44 -31.5 -87.5t-93.5 -78.5q-27 13 -33 40q44 45 44 100q0 37 -35 85z" />
    <glyph glyph-name="uni021B" unicode="&#x21b;" horiz-adv-x="406" 
d="M89 130v263q-13 3 -72 13q-11 33 -5 66q32 11 79 16l56 137q45 3 86 -7v-133l159 -1q2 -50 -4 -91h-155v-204q0 -102 46 -102t97 19q23 -25 22 -64q-75 -56 -183 -56q-126 0 -126 144zM144 -92q31 38 93 46q56 -46 56 -105q0 -44 -31.5 -87.5t-93.5 -78.5q-27 13 -33 40
q44 45 44 100q0 37 -35 85z" />
    <glyph glyph-name="uni021C" unicode="&#x21c;" horiz-adv-x="525" 
d="M133 217l-12 12q-8 59 17 112l117 -3q35 18 54 53t19 71q0 48 -33 80t-79 32q-42 0 -74 -6q-15 -43 -18 -102q-47 -11 -87 0q-24 72 -25 163q102 56 238 56q98 0 165 -54t67 -139q0 -108 -109 -184q61 -24 96.5 -70t35.5 -108q0 -138 -119 -226t-335 -119q-27 19 -22 67
q147 43 233.5 108.5t86.5 143.5q0 52 -28 85t-80 43z" />
    <glyph glyph-name="uni021D" unicode="&#x21d;" horiz-adv-x="481" 
d="M465 8q0 -114 -80 -191.5t-197 -77.5q-108 0 -178 33q2 69 45 112l17 6q84 -54 136 -54t72 20q16 18 27.5 55t11.5 76t-17.5 73t-49.5 46l-113 -9l-9 9q-13 49 14 89l104 -2q51 33 51 104q0 50 -28.5 81t-80.5 31q-26 0 -50 -4q-7 -36 -7 -87q-46 -22 -88 -12
q-34 50 -34 132q95 57 226 57q88 0 147 -48t59 -120q0 -89 -79 -153q47 -26 74 -70t27 -96z" />
    <glyph glyph-name="uni0226" unicode="&#x226;" horiz-adv-x="717" 
d="M482 86l-38 105q-85 5 -149 5h-67l-38 -110l89 -17q1 -37 -6 -70q-41 2 -140 2q-27 0 -66.5 -1t-53.5 -1q-8 31 -8 70q34 4 80 19l205 570q60 17 135 17l214 -587q38 -4 74 -19q1 -37 -6 -70q-37 2 -150 2q-33 0 -87 -1t-75 -1q-8 31 -8 70zM348 545l-91 -264h155
l-58 161l-2 103h-4zM357 733q-28 0 -52.5 20.5t-24.5 48.5q0 36 27 69t63 33q30 0 54 -20t24 -50q0 -37 -27 -69t-64 -32z" />
    <glyph glyph-name="uni0227" unicode="&#x227;" horiz-adv-x="535" 
d="M29 112q0 38 25.5 72t68.5 58t86.5 40.5t91.5 28.5q-3 100 -61 100q-35 0 -60 -4q-8 -27 -8 -75q-46 -22 -88 -12q-33 47 -33 120q98 57 220 57q22 0 43 -3.5t46 -14t43 -27.5t30.5 -47.5t12.5 -70.5v-175q0 -25 2 -69q28 2 64 11q20 -15 20 -43q-29 -31 -68.5 -51.5
t-77.5 -20.5q-40 0 -67 62q-80 -62 -148 -62q-142 0 -142 126zM237 89q24 0 65 25v106q-92 -11 -107 -23q-19 -14 -19 -50q0 -24 16 -41t45 -17zM235 561q-29 0 -54.5 21.5t-25.5 50.5q0 36 28 70.5t65 34.5q31 0 56 -20.5t25 -52.5q0 -38 -28 -71t-66 -33z" />
    <glyph glyph-name="uni022E" unicode="&#x22e;" horiz-adv-x="694" 
d="M337 -18q-147 0 -228.5 96t-81.5 245q0 89 39 171.5t116.5 138t174.5 55.5q146 0 228 -96t82 -245q0 -89 -39 -171.5t-116.5 -138t-174.5 -55.5zM365 93q27 0 54.5 9.5t35.5 19.5q56 66 56 185q0 117 -45 193.5t-137 76.5q-27 0 -54.5 -9.5t-35.5 -19.5q-56 -66 -56 -185
q0 -117 45 -193.5t137 -76.5zM342 733q-28 0 -52.5 20.5t-24.5 48.5q0 36 27 69t63 33q30 0 54 -20t24 -50q0 -37 -27 -69t-64 -32z" />
    <glyph glyph-name="uni022F" unicode="&#x22f;" horiz-adv-x="543" 
d="M278 498q116 0 175.5 -68.5t59.5 -179.5q0 -101 -68.5 -182.5t-179.5 -81.5q-115 0 -175 68t-60 180q0 101 68.5 182.5t179.5 81.5zM280 83q39 0 50 15q36 46 36 127q0 41 -9.5 79t-33.5 67.5t-60 29.5q-39 0 -50 -15q-36 -46 -36 -127q0 -41 9.5 -79t33.5 -67.5
t60 -29.5zM266 561q-29 0 -54.5 21.5t-25.5 50.5q0 36 28 70.5t65 34.5q31 0 56 -20.5t25 -52.5q0 -38 -28 -71t-66 -33z" />
    <glyph glyph-name="uni0232" unicode="&#x232;" horiz-adv-x="674" 
d="M594 582l-183 -336v-75q0 -48 4 -83q59 -4 113 -19q2 -39 -7 -70q-47 2 -185 2q-40 0 -102 -1t-85 -1q-10 29 -10 70q52 4 119 19q5 24 5 61v99l-180 332q-45 15 -80 19q0 40 8 72q21 0 76 -1t91 -1q118 0 159 2q7 -33 6 -70l-84 -17l114 -211l108 211l-90 17q0 35 6 70
q16 0 61 -1t75 -1q98 0 130 2q6 -35 5 -70q-36 -15 -74 -19zM214 836h302q21 -48 0 -97h-302q-20 51 0 97z" />
    <glyph glyph-name="uni0233" unicode="&#x233;" horiz-adv-x="586" 
d="M225 0l-150 401q-23 11 -67 17q0 39 7 67q13 0 50 -1t61 -1q8 0 60.5 1t100.5 1q8 -29 5 -67l-59 -18l67 -200v-90h4l95 290l-65 18q0 43 9 67q18 0 64 -1t77 -1q24 0 88 2q9 -32 6 -67q-25 -12 -64 -17l-141 -392q-46 -128 -94.5 -197.5t-113.5 -69.5q-80 0 -124 22
q-6 43 22 77h15q137 0 177 118l14 41h-44zM159 670h292q20 -50 0 -101h-292q-20 53 0 101z" />
    <glyph glyph-name="uni0237" unicode="&#x237;" horiz-adv-x="321" 
d="M242 185v-172q0 -63 -20 -113.5t-54.5 -82.5t-70.5 -51.5t-78 -31.5q-28 16 -28 51q107 77 107 242v357q-45 12 -79 16q-10 32 -4 61q97 34 219 37l12 -12q-4 -252 -4 -301z" />
    <glyph glyph-name="uni0243" unicode="&#x243;" horiz-adv-x="631" 
d="M186 1q-34 0 -86 -1t-71 -1q-8 31 -8 70q39 4 87 19q5 24 5 61v9h-84q-14 42 0 82h84v204q0 76 -5 138q-48 15 -87 19q0 39 8 70q19 0 71 -1t86 -1q43 0 109 2.5t89 2.5q78 0 129.5 -44.5t51.5 -111.5q0 -96 -98 -146q71 -19 110 -61.5t39 -93.5q0 -84 -78 -152.5
t-193 -68.5q-24 0 -74.5 2.5t-84.5 2.5zM348 158h-87v-63h46q99 0 120 16q35 28 35 88q0 104 -151 104h-50v-63h87q13 -41 0 -82zM330 577q-3 0 -69 -3v-179h31q62 0 90 26t28 63q0 39 -23 66t-57 27z" />
    <glyph glyph-name="schwa" unicode="&#x259;" horiz-adv-x="525" 
d="M264 495q116 0 173.5 -66t57.5 -173q0 -102 -74 -186t-181 -84q-58 0 -100 19.5t-64 51.5t-32 65t-10 68q0 38 10 59l13 13q152 -2 247 -2h45q-7 65 -35 107.5t-80 42.5q-28 0 -52 -4q-6 -24 -8 -58q-49 -21 -92 -11q-28 40 -28 102q99 56 210 56zM307 94q34 42 41 92
h-35q-99 0 -135 -4q0 -103 82 -103q35 0 47 15z" />
    <glyph glyph-name="obar" unicode="&#x275;" horiz-adv-x="543" 
d="M278 498q116 0 175.5 -68.5t59.5 -179.5q0 -101 -68.5 -182.5t-179.5 -81.5q-115 0 -175 68t-60 180q0 101 68.5 182.5t179.5 81.5zM280 83q39 0 50 15q34 45 36 120h-187q8 -57 32.5 -96t68.5 -39zM213 386q-29 -37 -35 -100h182q-10 50 -34 82.5t-63 32.5t-50 -15z" />
    <glyph glyph-name="ezh" unicode="&#x292;" horiz-adv-x="487" 
d="M471 3q0 -105 -75.5 -184.5t-193.5 -79.5q-125 0 -196 37q2 69 46 112l18 6q88 -58 153 -58q50 0 62 12q18 16 29 55t11 80q0 60 -37.5 101t-108.5 38q-26 18 -34 44l142 235h-151q-8 -38 -14 -94q-49 -10 -90 0q-8 63 -8 166l11 12q59 -2 224 -2h163q27 -44 27 -86
l-135 -187q68 -15 112.5 -71.5t44.5 -135.5z" />
    <glyph glyph-name="uni02BC" unicode="&#x2bc;" horiz-adv-x="235" 
d="M34 714q3 32 28 53t56 21q35 0 57 -23.5t22 -60.5q0 -50 -45 -104.5t-102 -82.5q-24 11 -30 34q56 64 56 109q0 40 -42 54z" />
    <glyph glyph-name="uni02BE" unicode="&#x2be;" horiz-adv-x="415" 
d="M143 689l-6 6q-3 41 9 66q25 5 47 5q58 0 91 -29.5t33 -83.5q0 -57 -44 -89.5t-105 -32.5q-12 0 -30 2q-3 33 5 60q9 -1 26 -1q28 0 46.5 13t18.5 35q0 24 -17.5 37t-45.5 13q-21 0 -28 -1z" />
    <glyph glyph-name="uni02BF" unicode="&#x2bf;" horiz-adv-x="415" 
d="M271 608l6 -6q3 -41 -9 -66q-25 -5 -47 -5q-58 0 -91 29.5t-33 83.5q0 57 44 89.5t105 32.5q12 0 30 -2q3 -32 -5 -60q-9 1 -26 1q-28 0 -46.5 -13t-18.5 -35q0 -24 17.5 -37t45.5 -13q21 0 28 1z" />
    <glyph glyph-name="circumflex" unicode="&#x2c6;" horiz-adv-x="415" 
d="M311 528l-111 100l-103 -100q-36 9 -51 40l110 172q45 10 90 9l118 -177q-19 -30 -53 -44z" />
    <glyph glyph-name="caron" unicode="&#x2c7;" horiz-adv-x="415" 
d="M50 719q19 30 53 44l110 -100l104 100q35 -8 51 -40l-110 -172q-45 -11 -90 -9z" />
    <glyph glyph-name="uni02C8" unicode="&#x2c8;" horiz-adv-x="212" 
d="M60 484v266q42 8 92 0v-266q-50 -10 -92 0z" />
    <glyph glyph-name="uni02C9" unicode="&#x2c9;" horiz-adv-x="415" 
d="M61 670h292q20 -50 0 -101h-292q-20 53 0 101z" />
    <glyph glyph-name="uni02CC" unicode="&#x2cc;" horiz-adv-x="212" 
d="M60 -178v266q42 8 92 0v-266q-50 -10 -92 0z" />
    <glyph glyph-name="breve" unicode="&#x2d8;" horiz-adv-x="415" 
d="M200 555q-63 0 -103.5 37t-57.5 93q10 27 42 36q58 -64 128 -64q71 0 126 63q27 -4 40 -33q-16 -53 -64 -92.5t-111 -39.5z" />
    <glyph glyph-name="dotaccent" unicode="&#x2d9;" horiz-adv-x="415" 
d="M200 556q-29 0 -54.5 21.5t-25.5 50.5q0 36 28 70.5t65 34.5q31 0 56 -20.5t25 -52.5q0 -38 -28 -71t-66 -33z" />
    <glyph glyph-name="ring" unicode="&#x2da;" horiz-adv-x="415" 
d="M208 608q16 0 30 7q9 5 9 31q0 17 -12 30t-29 13q-20 0 -30 -7q-10 -8 -10 -30q0 -17 12.5 -30.5t29.5 -13.5zM201 531q-56 0 -87 29t-31 87q0 44 40 81.5t90 37.5q118 0 118 -116q0 -43 -40 -81t-90 -38z" />
    <glyph glyph-name="ogonek" unicode="&#x2db;" horiz-adv-x="415" 
d="M294 22l31 -20q-53 -23 -85.5 -53.5t-32.5 -54.5q0 -15 10 -25.5t25 -10.5q20 0 53 9q21 -24 21 -61q-64 -35 -125 -35q-43 0 -72.5 23.5t-29.5 60.5q0 55 60 99.5t145 67.5z" />
    </font>
</defs>
</svg>
